<mxfile host="Electron" modified="2024-05-04T02:05:53.065Z" agent="Mozilla/5.0 (Windows NT 10.0; Win64; x64) AppleWebKit/537.36 (KHTML, like Gecko) draw.io/24.2.5 Chrome/120.0.6099.109 Electron/28.1.0 Safari/537.36" etag="YhLzafG0oqFCzP7181uF" version="24.2.5" type="device" pages="2">
  <diagram name="System Design" id="8qaHQ3KCgm6kREAW0U32">
    <mxGraphModel dx="4424" dy="1243" grid="1" gridSize="10" guides="1" tooltips="1" connect="1" arrows="1" fold="1" page="1" pageScale="1" pageWidth="827" pageHeight="1169" math="0" shadow="0">
      <root>
        <mxCell id="0" />
        <mxCell id="1" parent="0" />
        <object placeholders="1" c4Name="" c4Type="SystemScopeBoundary" c4Application="" label="&lt;font style=&quot;font-size: 16px&quot;&gt;&lt;b&gt;&lt;div style=&quot;&quot;&gt;%c4Name%&lt;/div&gt;&lt;/b&gt;&lt;/font&gt;&lt;div style=&quot;&quot;&gt;[%c4Application%]&lt;/div&gt;" id="6aOU3OEgJt2-wErYsUlW-24">
          <mxCell style="rounded=1;fontSize=11;whiteSpace=wrap;html=1;dashed=1;arcSize=20;fillColor=none;strokeColor=#666666;fontColor=#333333;labelBackgroundColor=none;align=center;verticalAlign=bottom;labelBorderColor=none;spacingTop=0;spacing=10;dashPattern=8 4;metaEdit=1;rotatable=0;perimeter=rectanglePerimeter;noLabel=0;labelPadding=0;allowArrows=0;connectable=0;expand=0;recursiveResize=0;editable=1;pointerEvents=0;absoluteArcSize=1;points=[[0.25,0,0],[0.5,0,0],[0.75,0,0],[1,0.25,0],[1,0.5,0],[1,0.75,0],[0.75,1,0],[0.5,1,0],[0.25,1,0],[0,0.75,0],[0,0.5,0],[0,0.25,0]];" parent="1" vertex="1">
            <mxGeometry x="-1270" y="60" width="2050" height="1000" as="geometry" />
          </mxCell>
        </object>
        <mxCell id="6aOU3OEgJt2-wErYsUlW-31" value="Client" style="outlineConnect=0;dashed=0;verticalLabelPosition=bottom;verticalAlign=top;align=center;html=1;fontSize=12;fontStyle=0;aspect=fixed;shape=mxgraph.aws4.resourceIcon;resIcon=mxgraph.aws4.client;rounded=1;" parent="1" vertex="1">
          <mxGeometry x="-1720" y="410" width="190" height="190" as="geometry" />
        </mxCell>
        <object placeholders="1" c4Type="Relationship" c4Technology="e.g. JSON/HTTP" c4Description="e.g. Makes API calls" label="&lt;div style=&quot;text-align: left&quot;&gt;&lt;div style=&quot;text-align: center&quot;&gt;&lt;b&gt;%c4Description%&lt;/b&gt;&lt;/div&gt;&lt;div style=&quot;text-align: center&quot;&gt;[%c4Technology%]&lt;/div&gt;&lt;/div&gt;" id="6aOU3OEgJt2-wErYsUlW-34">
          <mxCell style="endArrow=blockThin;html=1;fontSize=10;fontColor=#404040;strokeWidth=1;endFill=1;strokeColor=#828282;elbow=vertical;metaEdit=1;endSize=14;startSize=14;jumpStyle=arc;jumpSize=16;rounded=1;edgeStyle=orthogonalEdgeStyle;curved=1;" parent="1" edge="1">
            <mxGeometry width="240" relative="1" as="geometry">
              <mxPoint x="-1510" y="500" as="sourcePoint" />
              <mxPoint x="-1270" y="500" as="targetPoint" />
            </mxGeometry>
          </mxCell>
        </object>
        <mxCell id="6aOU3OEgJt2-wErYsUlW-58" value="" style="edgeStyle=none;curved=1;rounded=1;orthogonalLoop=1;jettySize=auto;html=1;fontSize=12;startSize=8;endSize=8;strokeWidth=3;" parent="1" source="6aOU3OEgJt2-wErYsUlW-47" target="6aOU3OEgJt2-wErYsUlW-57" edge="1">
          <mxGeometry relative="1" as="geometry" />
        </mxCell>
        <object placeholders="1" c4Name="Authorization" c4Type="Container" c4Technology="Spring Boot" c4Description="Description of container role/responsibility." label="&lt;font style=&quot;font-size: 16px&quot;&gt;&lt;b&gt;%c4Name%&lt;/b&gt;&lt;/font&gt;&lt;div&gt;[%c4Type%: %c4Technology%]&lt;/div&gt;&lt;br&gt;&lt;div&gt;&lt;font style=&quot;font-size: 11px&quot;&gt;&lt;font color=&quot;#E6E6E6&quot;&gt;%c4Description%&lt;/font&gt;&lt;/div&gt;" id="6aOU3OEgJt2-wErYsUlW-47">
          <mxCell style="rounded=1;whiteSpace=wrap;html=1;fontSize=11;labelBackgroundColor=none;fillColor=#dae8fc;align=center;arcSize=10;strokeColor=#6c8ebf;metaEdit=1;resizable=0;points=[[0.25,0,0],[0.5,0,0],[0.75,0,0],[1,0.25,0],[1,0.5,0],[1,0.75,0],[0.75,1,0],[0.5,1,0],[0.25,1,0],[0,0.75,0],[0,0.5,0],[0,0.25,0]];" parent="1" vertex="1">
            <mxGeometry x="-680" y="150" width="240" height="120" as="geometry" />
          </mxCell>
        </object>
        <mxCell id="6aOU3OEgJt2-wErYsUlW-48" value="&lt;h1&gt;API Gateway&lt;/h1&gt;&lt;h3 style=&quot;&quot;&gt;&lt;span style=&quot;font-size: 15px;&quot;&gt;(&lt;/span&gt;&lt;font style=&quot;font-size: 23px;&quot;&gt;nginx&lt;/font&gt;&lt;span style=&quot;font-size: 15px;&quot;&gt;)&lt;/span&gt;&lt;/h3&gt;" style="rounded=1;whiteSpace=wrap;html=1;fillColor=#f5f5f5;strokeColor=#666666;gradientColor=none;" parent="1" vertex="1">
          <mxGeometry x="-1190" y="140" width="200" height="820" as="geometry" />
        </mxCell>
        <object placeholders="1" c4Type="Relationship" id="6aOU3OEgJt2-wErYsUlW-50">
          <mxCell style="endArrow=blockThin;html=1;fontSize=10;fontColor=#404040;strokeWidth=1;endFill=1;strokeColor=#828282;elbow=vertical;metaEdit=1;endSize=14;startSize=14;jumpStyle=arc;jumpSize=16;rounded=1;edgeStyle=orthogonalEdgeStyle;curved=1;" parent="1" edge="1">
            <mxGeometry width="240" relative="1" as="geometry">
              <mxPoint x="-960" y="209.38" as="sourcePoint" />
              <mxPoint x="-720" y="209.38" as="targetPoint" />
            </mxGeometry>
          </mxCell>
        </object>
        <object placeholders="1" c4Type="Relationship" id="6aOU3OEgJt2-wErYsUlW-51">
          <mxCell style="endArrow=blockThin;html=1;fontSize=10;fontColor=#404040;strokeWidth=1;endFill=1;strokeColor=#828282;elbow=vertical;metaEdit=1;endSize=14;startSize=14;jumpStyle=arc;jumpSize=16;rounded=1;edgeStyle=orthogonalEdgeStyle;curved=1;" parent="1" edge="1">
            <mxGeometry width="240" relative="1" as="geometry">
              <mxPoint x="-960" y="470" as="sourcePoint" />
              <mxPoint x="-720" y="470" as="targetPoint" />
            </mxGeometry>
          </mxCell>
        </object>
        <mxCell id="6aOU3OEgJt2-wErYsUlW-60" value="" style="edgeStyle=none;curved=1;rounded=1;orthogonalLoop=1;jettySize=auto;html=1;fontSize=12;startSize=8;endSize=8;strokeWidth=3;" parent="1" source="6aOU3OEgJt2-wErYsUlW-52" target="6aOU3OEgJt2-wErYsUlW-59" edge="1">
          <mxGeometry relative="1" as="geometry" />
        </mxCell>
        <object placeholders="1" c4Name="Search and Partner Requests" c4Type="Container" c4Technology="Spring Boot" c4Description="Description of container role/responsibility." label="&lt;font style=&quot;font-size: 16px&quot;&gt;&lt;b&gt;%c4Name%&lt;/b&gt;&lt;/font&gt;&lt;div&gt;[%c4Type%: %c4Technology%]&lt;/div&gt;&lt;br&gt;&lt;div&gt;&lt;font style=&quot;font-size: 11px&quot;&gt;&lt;font color=&quot;#E6E6E6&quot;&gt;%c4Description%&lt;/font&gt;&lt;/div&gt;" id="6aOU3OEgJt2-wErYsUlW-52">
          <mxCell style="rounded=1;whiteSpace=wrap;html=1;fontSize=11;labelBackgroundColor=none;fillColor=#dae8fc;align=center;arcSize=10;strokeColor=#6c8ebf;metaEdit=1;resizable=0;points=[[0.25,0,0],[0.5,0,0],[0.75,0,0],[1,0.25,0],[1,0.5,0],[1,0.75,0],[0.75,1,0],[0.5,1,0],[0.25,1,0],[0,0.75,0],[0,0.5,0],[0,0.25,0]];" parent="1" vertex="1">
            <mxGeometry x="-680" y="660" width="240" height="120" as="geometry" />
          </mxCell>
        </object>
        <object placeholders="1" c4Type="Relationship" id="6aOU3OEgJt2-wErYsUlW-53">
          <mxCell style="endArrow=blockThin;html=1;fontSize=10;fontColor=#404040;strokeWidth=1;endFill=1;strokeColor=#828282;elbow=vertical;metaEdit=1;endSize=14;startSize=14;jumpStyle=arc;jumpSize=16;rounded=1;edgeStyle=orthogonalEdgeStyle;curved=1;" parent="1" edge="1">
            <mxGeometry width="240" relative="1" as="geometry">
              <mxPoint x="-970" y="710" as="sourcePoint" />
              <mxPoint x="-730" y="710" as="targetPoint" />
            </mxGeometry>
          </mxCell>
        </object>
        <object placeholders="1" c4Type="Relationship" id="6aOU3OEgJt2-wErYsUlW-54">
          <mxCell style="endArrow=blockThin;html=1;fontSize=10;fontColor=#404040;strokeWidth=1;endFill=1;strokeColor=#828282;elbow=vertical;metaEdit=1;endSize=14;startSize=14;jumpStyle=arc;jumpSize=16;rounded=1;edgeStyle=orthogonalEdgeStyle;curved=1;" parent="1" edge="1">
            <mxGeometry width="240" relative="1" as="geometry">
              <mxPoint x="-970" y="919" as="sourcePoint" />
              <mxPoint x="-730" y="919" as="targetPoint" />
            </mxGeometry>
          </mxCell>
        </object>
        <mxCell id="6aOU3OEgJt2-wErYsUlW-63" value="" style="edgeStyle=none;curved=1;rounded=1;orthogonalLoop=1;jettySize=auto;html=1;fontSize=12;startSize=8;endSize=8;strokeWidth=3;" parent="1" source="6aOU3OEgJt2-wErYsUlW-55" target="6aOU3OEgJt2-wErYsUlW-61" edge="1">
          <mxGeometry relative="1" as="geometry" />
        </mxCell>
        <object placeholders="1" c4Name="Scheduling and Tracking" c4Type="Container" c4Technology="Django" c4Description="Description of container role/responsibility." label="&lt;font style=&quot;font-size: 16px&quot;&gt;&lt;b&gt;%c4Name%&lt;/b&gt;&lt;/font&gt;&lt;div&gt;[%c4Type%: %c4Technology%]&lt;/div&gt;&lt;br&gt;&lt;div&gt;&lt;font style=&quot;font-size: 11px&quot;&gt;&lt;font color=&quot;#E6E6E6&quot;&gt;%c4Description%&lt;/font&gt;&lt;/div&gt;" id="6aOU3OEgJt2-wErYsUlW-55">
          <mxCell style="rounded=1;whiteSpace=wrap;html=1;fontSize=11;labelBackgroundColor=none;fillColor=#dae8fc;align=center;arcSize=10;strokeColor=#6c8ebf;metaEdit=1;resizable=0;points=[[0.25,0,0],[0.5,0,0],[0.75,0,0],[1,0.25,0],[1,0.5,0],[1,0.75,0],[0.75,1,0],[0.5,1,0],[0.25,1,0],[0,0.75,0],[0,0.5,0],[0,0.25,0]];" parent="1" vertex="1">
            <mxGeometry x="-680" y="860" width="240" height="120" as="geometry" />
          </mxCell>
        </object>
        <mxCell id="6aOU3OEgJt2-wErYsUlW-64" value="" style="edgeStyle=none;curved=1;rounded=1;orthogonalLoop=1;jettySize=auto;html=1;fontSize=12;startSize=8;endSize=8;strokeWidth=3;" parent="1" source="6aOU3OEgJt2-wErYsUlW-56" target="6aOU3OEgJt2-wErYsUlW-62" edge="1">
          <mxGeometry relative="1" as="geometry" />
        </mxCell>
        <mxCell id="KaDRmkhnHZzaqQ7Fkf-4-25" style="edgeStyle=none;curved=1;rounded=0;orthogonalLoop=1;jettySize=auto;html=1;fontSize=12;startSize=8;endSize=8;entryX=0;entryY=0.5;entryDx=0;entryDy=0;entryPerimeter=0;strokeWidth=3;" parent="1" source="6aOU3OEgJt2-wErYsUlW-56" target="6aOU3OEgJt2-wErYsUlW-66" edge="1">
          <mxGeometry relative="1" as="geometry">
            <mxPoint x="-220" y="540" as="targetPoint" />
            <Array as="points">
              <mxPoint x="-330" y="530" />
            </Array>
          </mxGeometry>
        </mxCell>
        <mxCell id="KaDRmkhnHZzaqQ7Fkf-4-28" style="edgeStyle=none;curved=1;rounded=0;orthogonalLoop=1;jettySize=auto;html=1;fontSize=12;startSize=8;endSize=8;strokeWidth=5;fillColor=#e51400;strokeColor=#B20000;" parent="1" source="6aOU3OEgJt2-wErYsUlW-56" target="6aOU3OEgJt2-wErYsUlW-68" edge="1">
          <mxGeometry relative="1" as="geometry" />
        </mxCell>
        <object placeholders="1" c4Name="User Profile Management" c4Type="Container" c4Technology="Django" c4Description="Description of container role/responsibility." label="&lt;font style=&quot;font-size: 16px&quot;&gt;&lt;b&gt;%c4Name%&lt;/b&gt;&lt;/font&gt;&lt;div&gt;[%c4Type%: %c4Technology%]&lt;/div&gt;&lt;br&gt;&lt;div&gt;&lt;font style=&quot;font-size: 11px&quot;&gt;&lt;font color=&quot;#E6E6E6&quot;&gt;%c4Description%&lt;/font&gt;&lt;/div&gt;" id="6aOU3OEgJt2-wErYsUlW-56">
          <mxCell style="rounded=1;whiteSpace=wrap;html=1;fontSize=11;labelBackgroundColor=none;fillColor=#dae8fc;align=center;arcSize=10;strokeColor=#6c8ebf;metaEdit=1;resizable=0;points=[[0.25,0,0],[0.5,0,0],[0.75,0,0],[1,0.25,0],[1,0.5,0],[1,0.75,0],[0.75,1,0],[0.5,1,0],[0.25,1,0],[0,0.75,0],[0,0.5,0],[0,0.25,0]];" parent="1" vertex="1">
            <mxGeometry x="-680" y="410" width="240" height="120" as="geometry" />
          </mxCell>
        </object>
        <object placeholders="1" c4Name="Usernames and passwords" c4Type="Postgres Database" c4Technology="" c4Description="Usernames and passwords" label="&lt;font style=&quot;font-size: 16px&quot;&gt;&lt;b&gt;%c4Type%&lt;/b&gt;&lt;/font&gt;&lt;div&gt;[%c4Type%:&amp;nbsp;%c4Technology%]&lt;/div&gt;&lt;br&gt;&lt;div&gt;&lt;font style=&quot;font-size: 11px&quot;&gt;&lt;font color=&quot;#E6E6E6&quot;&gt;%c4Description%&lt;/font&gt;&lt;/div&gt;" id="6aOU3OEgJt2-wErYsUlW-57">
          <mxCell style="shape=cylinder3;size=15;whiteSpace=wrap;html=1;boundedLbl=1;rounded=1;labelBackgroundColor=none;fillColor=#647687;fontSize=12;fontColor=#ffffff;align=center;strokeColor=#314354;metaEdit=1;points=[[0.5,0,0],[1,0.25,0],[1,0.5,0],[1,0.75,0],[0.5,1,0],[0,0.75,0],[0,0.5,0],[0,0.25,0]];resizable=0;" parent="1" vertex="1">
            <mxGeometry x="110" y="150" width="240" height="120" as="geometry" />
          </mxCell>
        </object>
        <object placeholders="1" c4Name="Container name" c4Type="MongoDB Database" c4Technology="" c4Description="" label="&lt;font style=&quot;font-size: 16px&quot;&gt;&lt;b&gt;%c4Type%&lt;/b&gt;&lt;/font&gt;&lt;div&gt;[%c4Type%:&amp;nbsp;%c4Technology%]&lt;/div&gt;&lt;br&gt;&lt;div&gt;&lt;font style=&quot;font-size: 11px&quot;&gt;&lt;font color=&quot;#E6E6E6&quot;&gt;%c4Description%&lt;/font&gt;&lt;/div&gt;" id="6aOU3OEgJt2-wErYsUlW-59">
          <mxCell style="shape=cylinder3;size=15;whiteSpace=wrap;html=1;boundedLbl=1;rounded=1;labelBackgroundColor=none;fillColor=#647687;fontSize=12;fontColor=#ffffff;align=center;strokeColor=#314354;metaEdit=1;points=[[0.5,0,0],[1,0.25,0],[1,0.5,0],[1,0.75,0],[0.5,1,0],[0,0.75,0],[0,0.5,0],[0,0.25,0]];resizable=0;" parent="1" vertex="1">
            <mxGeometry x="120.01" y="660" width="240" height="120" as="geometry" />
          </mxCell>
        </object>
        <object placeholders="1" c4Name="Container name" c4Type="Postgres Database" c4Technology="" c4Description="" label="&lt;font style=&quot;font-size: 16px&quot;&gt;&lt;b&gt;%c4Type%&lt;/b&gt;&lt;/font&gt;&lt;div&gt;[%c4Type%:&amp;nbsp;%c4Technology%]&lt;/div&gt;&lt;br&gt;&lt;div&gt;&lt;font style=&quot;font-size: 11px&quot;&gt;&lt;font color=&quot;#E6E6E6&quot;&gt;%c4Description%&lt;/font&gt;&lt;/div&gt;" id="6aOU3OEgJt2-wErYsUlW-61">
          <mxCell style="shape=cylinder3;size=15;whiteSpace=wrap;html=1;boundedLbl=1;rounded=1;labelBackgroundColor=none;fillColor=#647687;fontSize=12;fontColor=#ffffff;align=center;strokeColor=#314354;metaEdit=1;points=[[0.5,0,0],[1,0.25,0],[1,0.5,0],[1,0.75,0],[0.5,1,0],[0,0.75,0],[0,0.5,0],[0,0.25,0]];resizable=0;" parent="1" vertex="1">
            <mxGeometry x="120" y="860" width="240" height="120" as="geometry" />
          </mxCell>
        </object>
        <object placeholders="1" c4Name="Container name" c4Type="Postgres Database" c4Technology="" c4Description="" label="&lt;font style=&quot;font-size: 16px&quot;&gt;&lt;b&gt;%c4Type%&lt;/b&gt;&lt;/font&gt;&lt;div&gt;[%c4Type%:&amp;nbsp;%c4Technology%]&lt;/div&gt;&lt;br&gt;&lt;div&gt;&lt;font style=&quot;font-size: 11px&quot;&gt;&lt;font color=&quot;#E6E6E6&quot;&gt;%c4Description%&lt;/font&gt;&lt;/div&gt;" id="6aOU3OEgJt2-wErYsUlW-62">
          <mxCell style="shape=cylinder3;size=15;whiteSpace=wrap;html=1;boundedLbl=1;rounded=1;labelBackgroundColor=none;fillColor=#647687;fontSize=12;align=center;strokeColor=#314354;metaEdit=1;points=[[0.5,0,0],[1,0.25,0],[1,0.5,0],[1,0.75,0],[0.5,1,0],[0,0.75,0],[0,0.5,0],[0,0.25,0]];resizable=0;fontColor=#ffffff;" parent="1" vertex="1">
            <mxGeometry x="110" y="370" width="240" height="120" as="geometry" />
          </mxCell>
        </object>
        <mxCell id="6aOU3OEgJt2-wErYsUlW-66" value="" style="outlineConnect=0;dashed=0;verticalLabelPosition=bottom;verticalAlign=top;align=center;html=1;shape=mxgraph.aws3.s3;fillColor=#E05243;gradientColor=none;rounded=1;" parent="1" vertex="1">
          <mxGeometry x="170.88" y="510" width="118.25" height="130" as="geometry" />
        </mxCell>
        <mxCell id="6aOU3OEgJt2-wErYsUlW-67" value="&lt;h1&gt;S3 Storage&lt;/h1&gt;" style="text;html=1;align=center;verticalAlign=middle;resizable=0;points=[];autosize=1;strokeColor=none;fillColor=none;fontSize=16;rounded=1;" parent="1" vertex="1">
          <mxGeometry x="289.13" y="530" width="190" height="90" as="geometry" />
        </mxCell>
        <mxCell id="KaDRmkhnHZzaqQ7Fkf-4-15" style="edgeStyle=none;curved=1;rounded=0;orthogonalLoop=1;jettySize=auto;html=1;fontSize=12;startSize=8;endSize=8;entryX=0.007;entryY=0.424;entryDx=0;entryDy=0;entryPerimeter=0;" parent="1" source="6aOU3OEgJt2-wErYsUlW-68" target="6aOU3OEgJt2-wErYsUlW-68" edge="1">
          <mxGeometry relative="1" as="geometry">
            <mxPoint x="-132.06500000000005" y="430" as="targetPoint" />
          </mxGeometry>
        </mxCell>
        <object placeholders="1" c4Name="" c4Type="Kafka" c4Technology="" c4Description="" label="&lt;font style=&quot;font-size: 16px&quot;&gt;&lt;b&gt;%c4Type%&lt;/b&gt;&lt;/font&gt;&lt;div&gt;[%c4Type%:&amp;nbsp;%c4Technology%]&lt;/div&gt;&lt;br&gt;&lt;div&gt;&lt;font style=&quot;font-size: 11px&quot;&gt;&lt;font color=&quot;#E6E6E6&quot;&gt;%c4Description%&lt;/font&gt;&lt;/div&gt;" id="6aOU3OEgJt2-wErYsUlW-68">
          <mxCell style="shape=cylinder3;size=15;direction=south;whiteSpace=wrap;html=1;boundedLbl=1;rounded=1;labelBackgroundColor=none;fillColor=#e51400;fontSize=12;fontColor=#ffffff;align=center;strokeColor=#B20000;metaEdit=1;points=[[0.5,0,0],[1,0.25,0],[1,0.5,0],[1,0.75,0],[0.5,1,0],[0,0.75,0],[0,0.5,0],[0,0.25,0]];resizable=1;" parent="1" vertex="1">
            <mxGeometry x="-230.00000000000006" y="570" width="195.87" height="110" as="geometry" />
          </mxCell>
        </object>
        <mxCell id="GP-Hr6eN_d5tIUdFAs-K-1" value="&lt;h1&gt;&lt;font style=&quot;font-size: 25px;&quot;&gt;Microservices&lt;/font&gt;&lt;/h1&gt;&lt;div style=&quot;font-size: 25px;&quot;&gt;&lt;br&gt;&lt;/div&gt;" style="text;html=1;align=center;verticalAlign=middle;resizable=0;points=[];autosize=1;strokeColor=none;fillColor=none;rounded=1;" parent="1" vertex="1">
          <mxGeometry x="-1260" y="990" width="190" height="110" as="geometry" />
        </mxCell>
        <mxCell id="KaDRmkhnHZzaqQ7Fkf-4-6" style="edgeStyle=none;curved=1;rounded=0;orthogonalLoop=1;jettySize=auto;html=1;exitX=1;exitY=0.25;exitDx=0;exitDy=0;exitPerimeter=0;fontSize=12;startSize=8;endSize=8;" parent="1" source="6aOU3OEgJt2-wErYsUlW-68" target="6aOU3OEgJt2-wErYsUlW-68" edge="1">
          <mxGeometry relative="1" as="geometry" />
        </mxCell>
        <object placeholders="1" c4Name="Kafka" c4Type="Kafka" c4Technology="" c4Description="" label="&lt;font style=&quot;font-size: 16px&quot;&gt;&lt;b&gt;%c4Type%&lt;/b&gt;&lt;/font&gt;&lt;div&gt;[%c4Type%:&amp;nbsp;%c4Technology%]&lt;/div&gt;&lt;br&gt;&lt;div&gt;&lt;font style=&quot;font-size: 11px&quot;&gt;&lt;font color=&quot;#E6E6E6&quot;&gt;%c4Description%&lt;/font&gt;&lt;/div&gt;" id="KaDRmkhnHZzaqQ7Fkf-4-7">
          <mxCell style="shape=cylinder3;size=15;direction=south;whiteSpace=wrap;html=1;boundedLbl=1;rounded=1;labelBackgroundColor=none;fillColor=#e51400;fontSize=12;fontColor=#ffffff;align=center;strokeColor=#B20000;metaEdit=1;points=[[0.5,0,0],[1,0.25,0],[1,0.5,0],[1,0.75,0],[0.5,1,0],[0,0.75,0],[0,0.5,0],[0,0.25,0]];resizable=1;" parent="1" vertex="1">
            <mxGeometry x="-229.99999999999994" y="260" width="195.87" height="110" as="geometry" />
          </mxCell>
        </object>
        <mxCell id="KaDRmkhnHZzaqQ7Fkf-4-26" style="edgeStyle=none;curved=1;rounded=0;orthogonalLoop=1;jettySize=auto;html=1;entryX=0;entryY=0.5;entryDx=0;entryDy=0;entryPerimeter=0;fontSize=12;startSize=8;endSize=8;" parent="1" source="6aOU3OEgJt2-wErYsUlW-66" target="6aOU3OEgJt2-wErYsUlW-66" edge="1">
          <mxGeometry relative="1" as="geometry" />
        </mxCell>
        <mxCell id="KaDRmkhnHZzaqQ7Fkf-4-30" style="edgeStyle=none;curved=1;rounded=0;orthogonalLoop=1;jettySize=auto;html=1;entryX=1;entryY=0.25;entryDx=0;entryDy=0;entryPerimeter=0;fontSize=12;startSize=8;endSize=8;strokeWidth=5;fillColor=#e51400;strokeColor=#B20000;" parent="1" source="6aOU3OEgJt2-wErYsUlW-68" target="6aOU3OEgJt2-wErYsUlW-52" edge="1">
          <mxGeometry relative="1" as="geometry" />
        </mxCell>
        <mxCell id="KaDRmkhnHZzaqQ7Fkf-4-31" style="edgeStyle=none;curved=1;rounded=0;orthogonalLoop=1;jettySize=auto;html=1;entryX=1;entryY=0.5;entryDx=0;entryDy=0;entryPerimeter=0;fontSize=12;startSize=8;endSize=8;strokeWidth=5;fillColor=#e51400;strokeColor=#B20000;" parent="1" source="KaDRmkhnHZzaqQ7Fkf-4-7" target="6aOU3OEgJt2-wErYsUlW-47" edge="1">
          <mxGeometry relative="1" as="geometry" />
        </mxCell>
        <mxCell id="KaDRmkhnHZzaqQ7Fkf-4-32" style="edgeStyle=none;curved=1;rounded=0;orthogonalLoop=1;jettySize=auto;html=1;fontSize=12;startSize=8;endSize=8;strokeWidth=5;exitX=1;exitY=0.25;exitDx=0;exitDy=0;exitPerimeter=0;fillColor=#e51400;strokeColor=#B20000;" parent="1" source="6aOU3OEgJt2-wErYsUlW-56" target="KaDRmkhnHZzaqQ7Fkf-4-7" edge="1">
          <mxGeometry relative="1" as="geometry" />
        </mxCell>
      </root>
    </mxGraphModel>
  </diagram>
  <diagram id="22oZJMA6yenfI1GU_gmI" name="High Level Database Design">
    <mxGraphModel dx="2754" dy="1394" grid="0" gridSize="10" guides="1" tooltips="1" connect="1" arrows="1" fold="1" page="0" pageScale="1" pageWidth="827" pageHeight="1169" math="0" shadow="0">
      <root>
        <mxCell id="0" />
        <mxCell id="1" parent="0" />
        <object placeholders="1" c4Name="Search and Partner Requests" c4Type="SystemScopeBoundary" c4Application="Database fields" label="&lt;font style=&quot;font-size: 16px&quot;&gt;&lt;b&gt;&lt;div style=&quot;text-align: left&quot;&gt;%c4Name%&lt;/div&gt;&lt;/b&gt;&lt;/font&gt;&lt;div style=&quot;text-align: left&quot;&gt;[%c4Application%]&lt;/div&gt;" id="IQ_zyz6e-XzErU5XH7vD-24">
          <mxCell style="rounded=1;fontSize=11;whiteSpace=wrap;html=1;dashed=1;arcSize=20;fillColor=none;strokeColor=#666666;fontColor=#333333;labelBackgroundColor=none;align=left;verticalAlign=bottom;labelBorderColor=none;spacingTop=0;spacing=10;dashPattern=8 4;metaEdit=1;rotatable=0;perimeter=rectanglePerimeter;noLabel=0;labelPadding=0;allowArrows=0;connectable=0;expand=0;recursiveResize=0;editable=1;pointerEvents=0;absoluteArcSize=1;points=[[0.25,0,0],[0.5,0,0],[0.75,0,0],[1,0.25,0],[1,0.5,0],[1,0.75,0],[0.75,1,0],[0.5,1,0],[0.25,1,0],[0,0.75,0],[0,0.5,0],[0,0.25,0]];" parent="1" vertex="1">
            <mxGeometry x="130" y="-275" width="620" height="349" as="geometry" />
          </mxCell>
        </object>
        <object placeholders="1" c4Name="Authentication" c4Type="SystemScopeBoundary" c4Application="Database fields" label="&lt;font style=&quot;font-size: 16px&quot;&gt;&lt;b&gt;&lt;div style=&quot;text-align: left&quot;&gt;%c4Name%&lt;/div&gt;&lt;/b&gt;&lt;/font&gt;&lt;div style=&quot;text-align: left&quot;&gt;[%c4Application%]&lt;/div&gt;" id="IQ_zyz6e-XzErU5XH7vD-25">
          <mxCell style="rounded=1;fontSize=11;whiteSpace=wrap;html=1;dashed=1;arcSize=20;fillColor=none;strokeColor=#666666;fontColor=#333333;labelBackgroundColor=none;align=left;verticalAlign=bottom;labelBorderColor=none;spacingTop=0;spacing=10;dashPattern=8 4;metaEdit=1;rotatable=0;perimeter=rectanglePerimeter;noLabel=0;labelPadding=0;allowArrows=0;connectable=0;expand=0;recursiveResize=0;editable=1;pointerEvents=0;absoluteArcSize=1;points=[[0.25,0,0],[0.5,0,0],[0.75,0,0],[1,0.25,0],[1,0.5,0],[1,0.75,0],[0.75,1,0],[0.5,1,0],[0.25,1,0],[0,0.75,0],[0,0.5,0],[0,0.25,0]];" parent="1" vertex="1">
            <mxGeometry x="-784" y="-304" width="528" height="386" as="geometry" />
          </mxCell>
        </object>
        <object placeholders="1" c4Name="User Profile and Management" c4Type="SystemScopeBoundary" c4Application="Database fields" label="&lt;font style=&quot;font-size: 16px&quot;&gt;&lt;b&gt;&lt;div style=&quot;text-align: left&quot;&gt;%c4Name%&lt;/div&gt;&lt;/b&gt;&lt;/font&gt;&lt;div style=&quot;text-align: left&quot;&gt;[%c4Application%]&lt;/div&gt;" id="KCSENZXURoFtTQrcQOYk-1">
          <mxCell style="rounded=1;fontSize=11;whiteSpace=wrap;html=1;dashed=1;arcSize=20;fillColor=none;strokeColor=#666666;fontColor=#333333;labelBackgroundColor=none;align=left;verticalAlign=bottom;labelBorderColor=none;spacingTop=0;spacing=10;dashPattern=8 4;metaEdit=1;rotatable=0;perimeter=rectanglePerimeter;noLabel=0;labelPadding=0;allowArrows=0;connectable=0;expand=0;recursiveResize=0;editable=1;pointerEvents=0;absoluteArcSize=1;points=[[0.25,0,0],[0.5,0,0],[0.75,0,0],[1,0.25,0],[1,0.5,0],[1,0.75,0],[0.75,1,0],[0.5,1,0],[0.25,1,0],[0,0.75,0],[0,0.5,0],[0,0.25,0]];" parent="1" vertex="1">
            <mxGeometry x="-745" y="339" width="684" height="530" as="geometry" />
          </mxCell>
        </object>
        <object placeholders="1" c4Name="Scheduling and Tracking" c4Type="SystemScopeBoundary" c4Application="Database fields" label="&lt;font style=&quot;font-size: 16px&quot;&gt;&lt;b&gt;&lt;div style=&quot;text-align: left&quot;&gt;%c4Name%&lt;/div&gt;&lt;/b&gt;&lt;/font&gt;&lt;div style=&quot;text-align: left&quot;&gt;[%c4Application%]&lt;/div&gt;" id="KCSENZXURoFtTQrcQOYk-2">
          <mxCell style="rounded=1;fontSize=11;whiteSpace=wrap;html=1;dashed=1;arcSize=20;fillColor=none;strokeColor=#666666;fontColor=#333333;labelBackgroundColor=none;align=left;verticalAlign=bottom;labelBorderColor=none;spacingTop=0;spacing=10;dashPattern=8 4;metaEdit=1;rotatable=0;perimeter=rectanglePerimeter;noLabel=0;labelPadding=0;allowArrows=0;connectable=0;expand=0;recursiveResize=0;editable=1;pointerEvents=0;absoluteArcSize=1;points=[[0.25,0,0],[0.5,0,0],[0.75,0,0],[1,0.25,0],[1,0.5,0],[1,0.75,0],[0.75,1,0],[0.5,1,0],[0.25,1,0],[0,0.75,0],[0,0.5,0],[0,0.25,0]];" parent="1" vertex="1">
            <mxGeometry x="149" y="288" width="669" height="454" as="geometry" />
          </mxCell>
        </object>
        <mxCell id="gRYx53pJohbAWyfsE0vY-1" value="Credentials" style="swimlane;fontStyle=0;childLayout=stackLayout;horizontal=1;startSize=26;horizontalStack=0;resizeParent=1;resizeParentMax=0;resizeLast=0;collapsible=1;marginBottom=0;align=center;fontSize=14;rounded=1;" parent="1" vertex="1">
          <mxGeometry x="-655" y="-220" width="160" height="116" as="geometry" />
        </mxCell>
        <mxCell id="gRYx53pJohbAWyfsE0vY-8" value="UserID&lt;div&gt;&lt;br&gt;&lt;/div&gt;" style="text;strokeColor=none;fillColor=none;spacingLeft=4;spacingRight=4;overflow=hidden;rotatable=0;points=[[0,0.5],[1,0.5]];portConstraint=eastwest;fontSize=12;whiteSpace=wrap;html=1;rounded=1;" parent="gRYx53pJohbAWyfsE0vY-1" vertex="1">
          <mxGeometry y="26" width="160" height="30" as="geometry" />
        </mxCell>
        <mxCell id="gRYx53pJohbAWyfsE0vY-2" value="Username" style="text;strokeColor=none;fillColor=none;spacingLeft=4;spacingRight=4;overflow=hidden;rotatable=0;points=[[0,0.5],[1,0.5]];portConstraint=eastwest;fontSize=12;whiteSpace=wrap;html=1;rounded=1;" parent="gRYx53pJohbAWyfsE0vY-1" vertex="1">
          <mxGeometry y="56" width="160" height="30" as="geometry" />
        </mxCell>
        <mxCell id="gRYx53pJohbAWyfsE0vY-3" value="Password" style="text;strokeColor=none;fillColor=none;spacingLeft=4;spacingRight=4;overflow=hidden;rotatable=0;points=[[0,0.5],[1,0.5]];portConstraint=eastwest;fontSize=12;whiteSpace=wrap;html=1;rounded=1;" parent="gRYx53pJohbAWyfsE0vY-1" vertex="1">
          <mxGeometry y="86" width="160" height="30" as="geometry" />
        </mxCell>
        <mxCell id="DGFuIuux8BCJKthLp-qZ-2" value="Sessions" style="swimlane;fontStyle=0;childLayout=stackLayout;horizontal=1;startSize=26;horizontalStack=0;resizeParent=1;resizeParentMax=0;resizeLast=0;collapsible=1;marginBottom=0;align=center;fontSize=14;rounded=1;" parent="1" vertex="1">
          <mxGeometry x="170" y="307" width="160" height="236" as="geometry" />
        </mxCell>
        <mxCell id="DGFuIuux8BCJKthLp-qZ-5" value="UserID" style="text;strokeColor=none;fillColor=none;spacingLeft=4;spacingRight=4;overflow=hidden;rotatable=0;points=[[0,0.5],[1,0.5]];portConstraint=eastwest;fontSize=12;whiteSpace=wrap;html=1;rounded=1;" parent="DGFuIuux8BCJKthLp-qZ-2" vertex="1">
          <mxGeometry y="26" width="160" height="30" as="geometry" />
        </mxCell>
        <mxCell id="ssSE-rFYfGTZqSJR0qbM-26" value="Date" style="text;strokeColor=none;fillColor=none;spacingLeft=4;spacingRight=4;overflow=hidden;rotatable=0;points=[[0,0.5],[1,0.5]];portConstraint=eastwest;fontSize=12;whiteSpace=wrap;html=1;rounded=1;" parent="DGFuIuux8BCJKthLp-qZ-2" vertex="1">
          <mxGeometry y="56" width="160" height="30" as="geometry" />
        </mxCell>
        <mxCell id="ssSE-rFYfGTZqSJR0qbM-23" value="Time" style="text;strokeColor=none;fillColor=none;spacingLeft=4;spacingRight=4;overflow=hidden;rotatable=0;points=[[0,0.5],[1,0.5]];portConstraint=eastwest;fontSize=12;whiteSpace=wrap;html=1;rounded=1;" parent="DGFuIuux8BCJKthLp-qZ-2" vertex="1">
          <mxGeometry y="86" width="160" height="30" as="geometry" />
        </mxCell>
        <mxCell id="ssSE-rFYfGTZqSJR0qbM-24" value="Length" style="text;strokeColor=none;fillColor=none;spacingLeft=4;spacingRight=4;overflow=hidden;rotatable=0;points=[[0,0.5],[1,0.5]];portConstraint=eastwest;fontSize=12;whiteSpace=wrap;html=1;rounded=1;" parent="DGFuIuux8BCJKthLp-qZ-2" vertex="1">
          <mxGeometry y="116" width="160" height="30" as="geometry" />
        </mxCell>
        <mxCell id="ssSE-rFYfGTZqSJR0qbM-25" value="Completion" style="text;strokeColor=none;fillColor=none;spacingLeft=4;spacingRight=4;overflow=hidden;rotatable=0;points=[[0,0.5],[1,0.5]];portConstraint=eastwest;fontSize=12;whiteSpace=wrap;html=1;rounded=1;" parent="DGFuIuux8BCJKthLp-qZ-2" vertex="1">
          <mxGeometry y="146" width="160" height="30" as="geometry" />
        </mxCell>
        <mxCell id="ssSE-rFYfGTZqSJR0qbM-27" value="Participants" style="text;strokeColor=none;fillColor=none;spacingLeft=4;spacingRight=4;overflow=hidden;rotatable=0;points=[[0,0.5],[1,0.5]];portConstraint=eastwest;fontSize=12;whiteSpace=wrap;html=1;rounded=1;" parent="DGFuIuux8BCJKthLp-qZ-2" vertex="1">
          <mxGeometry y="176" width="160" height="30" as="geometry" />
        </mxCell>
        <mxCell id="ssSE-rFYfGTZqSJR0qbM-28" value="Results" style="text;strokeColor=none;fillColor=none;spacingLeft=4;spacingRight=4;overflow=hidden;rotatable=0;points=[[0,0.5],[1,0.5]];portConstraint=eastwest;fontSize=12;whiteSpace=wrap;html=1;rounded=1;" parent="DGFuIuux8BCJKthLp-qZ-2" vertex="1">
          <mxGeometry y="206" width="160" height="30" as="geometry" />
        </mxCell>
        <mxCell id="ssSE-rFYfGTZqSJR0qbM-1" value="Convert to NoSQL Database?" style="text;html=1;align=center;verticalAlign=middle;resizable=0;points=[];autosize=1;strokeColor=none;fillColor=none;fontSize=16;rounded=1;" parent="1" vertex="1">
          <mxGeometry x="-586.5" y="-56.5" width="230" height="31" as="geometry" />
        </mxCell>
        <mxCell id="jUg-Ty0C3YflYHAD7qnG-1" value="need to add pending requests field" style="text;html=1;align=center;verticalAlign=middle;resizable=0;points=[];autosize=1;strokeColor=none;fillColor=none;" parent="1" vertex="1">
          <mxGeometry x="-479" y="579" width="202" height="26" as="geometry" />
        </mxCell>
        <mxCell id="xDu4upLqag5UrLgHgWjR-1" value="Merge UPAM and SAPR?" style="text;html=1;align=center;verticalAlign=middle;resizable=0;points=[];autosize=1;strokeColor=none;fillColor=none;" parent="1" vertex="1">
          <mxGeometry x="-174" y="984" width="155" height="26" as="geometry" />
        </mxCell>
        <mxCell id="xDu4upLqag5UrLgHgWjR-2" value="Stop thinking in terms of UI pages and more about servers" style="text;html=1;align=center;verticalAlign=middle;resizable=0;points=[];autosize=1;strokeColor=none;fillColor=none;" parent="1" vertex="1">
          <mxGeometry x="-240" y="933" width="328" height="26" as="geometry" />
        </mxCell>
        <mxCell id="xDu4upLqag5UrLgHgWjR-4" value="Saga between all services&lt;div&gt;When username changes or commonly&lt;/div&gt;&lt;div&gt;shared field etween servoce dbs changes&lt;/div&gt;" style="text;html=1;align=center;verticalAlign=middle;resizable=0;points=[];autosize=1;strokeColor=none;fillColor=none;" parent="1" vertex="1">
          <mxGeometry x="-496" y="874" width="239" height="55" as="geometry" />
        </mxCell>
        <mxCell id="xDu4upLqag5UrLgHgWjR-5" value="possible saga for gorup update&lt;div&gt;or deletion as well&lt;/div&gt;" style="text;html=1;align=center;verticalAlign=middle;resizable=0;points=[];autosize=1;strokeColor=none;fillColor=none;" parent="1" vertex="1">
          <mxGeometry x="-500" y="951" width="183" height="41" as="geometry" />
        </mxCell>
        <mxCell id="E88NwztFnTZuqebjhYmT-3" value="" style="shape=image;imageAspect=0;aspect=fixed;verticalLabelPosition=bottom;verticalAlign=top;image=data:image/png,iVBORw0KGgoAAAANSUhEUgAAA1wAAAFLCAYAAADCqY3OAAAAAXNSR0IArs4c6QAAAARnQU1BAACxjwv8YQUAAAAJcEhZcwAAEnQAABJ0Ad5mH3gAAGp0SURBVHhe7b3vTxxXuu97/qfzal5t7RdHo5G2tKVII0WRRpN7d3yk4617vTOKs0fkRszISTzJtmznhCQ4PrbHNtiY+AcGYpw2mGBswBjCDwOmsTs0tsEEDBgwGGMzz62nuqq7uno1XTTduGk+X+kzGWqtqqcbF89T36q1Vv235eVlAQAAAAAAgNyD4QIAAAAAAMgTGC4AAAAAAIA8geECAAAAAADIExguAAAAAACAPIHhAgAAAAAAyBMZDVdTU5OMj48b20yEw2Hp7++Xubk5Y7sJYhAjE8QgRhCIQYxMEIMYQSAGMTJBDGIEwY2R0XANDAxINBo1tpnQg46MjMjTp0+N7SaIQYxMEIMYQSAGMTJBDGIEgRjEyAQxiBEEN0ZGw7WwsGBjajPx/Plzu7/+19RughjEyAQxiBEEYhAjE8QgRhCIQYxMEIMYQXBjMIcLAAAAAAAgT2C4AAAAAAAA8gSGCwAAAAAAIE9guAAAAAAAAPIEhgsAAAAAACBPYLgAAAAAAADyBIYLAAAAAAAgT2C4AAAAAAAA8gSGCwAAAAAAIE9kNFyPHz+W+fl5Y5uJmZkZmZ6e3tBbmIlBjEwQgxhBIAYxMkEMYgSBGMTIBDGIEQQ3RkbDFQqFJBqNGttM3Lt3T7q7u+Xp06fGdhPEIEYmiEGMIBCDGJkgBjGCQAxiZIIYxAiCGyOj4ZqYmJAnT54Y20zMzs7a+8zNzRnbTRCDGJkgBjGCQAxiZIIYxAgCMYiRCWIQIwhuDOZwAQAAAAAA5AkMFwAAAAAAQJ7AcAEAAAAAAOQJDBcAAAAAAECewHABAAAAAADkCQwXAAAAAABAnsBwAQAAAAAA5AkMFwAAAAAAQJ7AcAEAAAAAAOQJDBcAAAAAAECeyGi4mpqaZHx83NhmIhwOS39/v8zNzRnbTRCDGJkgBjGCQAxiZIIYxAgCMYiRCWIQIwhujIyGa2BgQKLRqLHNhB50ZGREnj59amw3QQxiZIIYxAgCMYiRCWIQIwjEIEYmiEGMILgxMhquhYUFG1ObiefPn9v99b+mdhPEIEYmiEGMIBCDGJkgBjGCQAxiZIIYxAiCG4M5XAAAAAAAAHkCwwUAAAAAAJAnMFwAAAAAAAB5AsMFAAAAAACQJzBcAAAAAAAAeQLDBQAAAAAAkCcwXAAAAAAAAHkiK8O1tLQki4uLAADgoHlRMeVMgK3APQdN5ycAwE6lEGpzYMNl+gLuy7wAAHYypvxoyqMA+cB0/pnOUwCAnYYpP5ryaL7JaLjGxsZkdnbW/oD6wVdXV+X11DNZe/BE1u5PAACAxeuxKXm98tLOm97EPjMzI9PT0xt6M/3jx49lfn7e2GaCGDszxuTkpL2PewHxcuWV/PrLijy+BwAAynh4RZ79umr7F78B28rcvq7h0g9z9epVefDggaysrMhqY5+8+OR7Wf5/jgIAgJ//9//Iy+NN8iryJJ7YBwYG5M6dO/L06VNjnjURCoUkGo0a20zcu3dPuru7iRGAYoihxd49r9R0TYwsy4/fPJVv/u+H8vX/BQAAfipLnsjPDfO2n3Hrs3qcrcrtaQ2X6/4ePnwoi2NPZOVgrfkCAwAAUli91ivPnj2z74Y9evTIvjNmyrUmJiYm5MmTJ8Y2EzoKQfeZm5sztpsgxvaMoWZLa7OeVzoCpfuHeePFBQAApHLh01/l6fiybbq0NusTKFOuNbGZ3G40XK7Z0ouF5TnLDX523nhBAQAA6XnZ2GfnUTenbmQYAoAf12y59fnnhmfGCwoAAEjP2f/viczPLSXVZ1POzSUphstN6Poh1MG9PHPDeCEBAACZeRF9gumCTeM3WxO/LBovJAAAIDPXT8zYPsetz/muzUmGy5/Qlx9PGS8gAAAgGC/Ptm5pUofixK3Peh7p+dT89xnjRQQAAATj10exnOp6n3zWZ6Ph0uA632Dlep/xAgIAAILx4qMKe4Kt5lV3RTlMF2wEtzbr+aPnkZ5PJ/5j3HgBAQAAwej5cc72O67p2hLDZUroK1WtxgsIAAAIzsLE1JYldSg+3Pqs54+eR1PjLJQBALBZmk8+3bIbokbDZSf0qSlZOd1svHgAAIDgLD6ctFeVc5O65ltMFwTBPVfcm6F6Hj0Zw3ABAGyWxqNPbb+jvmdLDJcpoeu7PTBcAACbR1+toUldl5TFcMFG8NZnPX/0PJqIsjohAMBmUcOlfmcrboimGC5N6K7hej70SOYnrQ8AAABZs/j4VzunuoaLYYUQFD1P3NEnev7oefTk0bxMPnkBAACbIHL3edxw5fuGaFrDpS/qsg3X0ksAANgEC48n7aSuY8V1hbl8JnUoHry1Wc8bPX9sw/XQMvKG8wwAAIKjhkv9zhszXL/++iuGCwAgR6jh0jfNa1LHcEFQvLVZzxs9f/Q8wnABAGwe13Cp78m74XIPvLCwYAfSO2ga+PHjxxguAIAc8EvPoESj0cCGq6mpScbHx41tJsLhsPT399vHNrWbIEbhx3DPkVTDZZ1DhvMMAACC86B/UQYGBmzfo/5Hc636oXT1eTO5Pclw6QHcIQu24br/xPgBAQAgONHILxKJRAIbLi0AatBMbSY0mY+MjNj529RughiFH8M9R/yGa3Zm3nieAQBAcKLDz6WnpydpyP96hmszuX19wzXJXTQAgM0yOztnJ2q9ixbEcGk+VkxtJtwcnu54JohR+DF0f8U1XHr+qOF6Zv1sOs8AACA4v068sM1QUMOl27LN7XHD5SZ0r+FaerFq/IAAABAcvUDWC+WghgtA8ddnDBcAQO5Qn6N+x2u48lWfjYZLEzqGCwAgN2C4IBv89RnDBQCQO1zDpXkVwwUAsM3xGq58r4QExYO3PrsrCGO4AAByA4YLAKCIwHBBNnjrM4YLACC3YLgAAIoIDBdkg7c+Y7gAAHILhgsAoIjAcEE2eOszhgsAILdguAAAiggMF2SDtz5juAAAcguGCwCgiMBwQTZ46zOGCwAgt2C4AACKCAwXZIO3PmO4AAByC4YLAKCI+HVqSsbHxwMbLs2/2sfUZmJmZkamp6c3VCCIUfgxdH9Ft2O4AAByy/PllzI6OhrYcG0mt2O4AADyzL17wxKJRAIbrlAoJNFo1Nhm4t69e9Ld3W3nb1O7CWIUfgxvfcZwAQDkloXnL6Snpyew4dpMbsdwAQDkmSdPJu2EG9RwTUxM2HnY1GZCj6n7aA43tZsgRuHH8NZnPSaGCwAgd+gTrqGhITuvBjFcm8ntGC4oSqan5mR8xtwGsNUwhwuywVufMVyQV6zrv/En1rlmatsE00+s486Z2wDeNMzhAsiaOWk/uFt+88+/l//+z+/If3z/2NAHYGvBcEE2eOszhgvyxfTN7+Tt32rN/L3805/qZXjB3G9DLDyWi396xz7mf//tbjl007qQNfUDeINguACyZaxedttmy+FfT0iXqR/AFoLhgmzw1mcMF+SHKbn4756a+c9/lK+7Tf02SPt3zo1Ph73NMm7qB/AGwXABZE1Yjv4+keR/U0KShzcPhguywVufMVyQFb8k34TcXZU66qP/yHvx9v/+2y+k/klye1Y8aZaPnadmyltHwuZ+24zRqpLE7+qfS+TsL+Z+sD3AcAFshidhufjNd3Lo77dlNBdDIwA2CYYLssFbnzFckBUBDNf8wpx0Xa6QQwer5adcGohfbsvJg9/J0cthGS+SWozhKi4wXAAARQSGC7LBW58xXJAVQQwXBAbDVVxguCC/LDyX4e4f5eTfPpX33tktb9uUyr5v6qX9gXUumPZx0X1v1svRv5Q6++2W//hLhZxtHl3/Dla2MTe836jUH/xODrmc6jEPKVyYkv4r1XIo6Xt8JyevpLsT5ztu3Whsu97Bix/D+lx/b5b+9YZjzD2WrsvV8vl/7o3HfXvPITla1SPDrORUtGC4IBu89RnDVViMt19K1IODl6Rd8779pOiEfPg/3ZpSIRe7p4z7x7H26W9Orqnv/efX6WvCkx77qZEb+2S7dYFo1bP2qq/lP+z9v5D6MU+/T0vkXzyG61/+/evkz2wdc7gucTzvdj/TD3rk7Ddfx7/f2//zU/n87z9Kl8l0+D5nvGYa2uzvYG0f7/1RDrm1Uevi5YGMT8ZG/dcH1n6HtA4/NvXPvo67/977/v2PHsP1R9n9qXMsw7XG+N3b1u/rkPPvouyVD/9WLaG7Gc4J2DIwXJA/xm7K5287KwcZeUfe/vSmeShepn1//4VcDGexX7qYWe3XI597+/yvehn1HtNiuveS/MfvPH38/K5UTvbGCkAC33H/67ZVpL6Qt7zbXH5bImcfePeNMfrj1/GVoIz8drd8/iOJuBjBcEE2eOszhquwSHnS8eCxnP13c716q6TZvPJf+Ef52DPnOAWrJnxc53silfLEakDq93rjOk9dfP1SSTydaf8v8/Y4lqELfequ/mviHflDmWU4vN/RH/+/etK26VO3Yev3aTy+dV1Rb6inatq+/rf1rw/eOzIg00n7ZV/Hk/+9DXivNabCctJdoTEN//SnS9I/lTg+vBkwXJAfFkbl5Lu+P/zf/lHefuc9+SfvNou3ygaS952yEtV6hcHFbzayjZn1Z81guB5YiX490+OSYpp8x/3Tp/Lhesf5/Qnp8hafoWr5g6/Pb/51t7z9lj8pv5ebFaKgoMBwQTZ46zOGq7BIvgDfLfv+sv4FeUpNfdy8fg2J854carfOAXc/n1l570+lSU+wcm+45qx2z6Ia6/DWwZ6EwdmA4Xr7L4fW/6z+erowIF8HuR6xTNfupFfDZF/HgxuuOQn9xV/X35G33tkt/8MX6zes3PjGwXBBfvAt0/rWf91O3JGyDE7S3bnfHpKf4i8Ofi4/7fMmkPfk4yrnUf/Ccxntrk4yMb/5y81E0s02ZtafdT3D5TdxVjL+pkeGdd+Zx9J1zHeH7d1LMhzf13dc5Xd75evLt+Wn5tty8Uip7y7ZO/L5TXdfq6AdTP79fd7ieYIWvpT8+9vn+f1BUYDhgmzw1mcMV2FhugB/q+SStIfnZPyXsIQO7vU9sSmVi55hbl1l3qFp78m+KwljMN78XXI98V6Ym4zUb/8ou/9SLRe1Fv3dHd74XMb1pcO91fKep+97fw/HtltMOzV1PcM13Xgo+Xv8/gs5eXPU3n+0u973hG6PnHRHuWzAcNnEj/tY+q98J3/wmZP/uJwY/TFe96mnzarjxxJTAaaHkutp8qthNlHHretj/c5df9/rad9rj4axf59Tjin2vZrmN/9uXUfEr13m5Kck8+r5fcEbAcMF+eHmd54/9N/Lx1d8w+Yeh+2ko3RZRcNNxrq864ee/f5wzDMW22H6R29S/jSxrGy2MbPdbz3DdedE0p3AJGNo478z9Uf5+o7b5k/U/idgL2W4MrkAeycnJxe0LyTkG0qgY71j32dAht3EDUXDyP37Eo1GAxuupqYmGR8fN7aZCIfD0t/fb+dwU7sJYhR+DG99xnAVFimG6395LqxtrIvrT72mKrkmTE+NSpdTw0Ito75a9FjO/pv32J46lmJWSta/aPf1Ny2akd5wTcnFP3nbLIMwlLzvfG+FvB1vt47/vWOMNmS4UuvpdMvXyU/uvL+DGcuUtTs188qA56ZqjJ8+9ez3z99Je7xtc3VcSf53TzanNr7v9rZ/OXzrs7c7/+7tdx97rl3gTbDw/IUMDAwENlybye0Yrp1Ed7Lh0PHhH35ZL6HuURmPPyFKRc1UfB8d8tbu3NHxMnRJ/sNz7M9bnP2zjJn1fusYrv5juxPbfU+g4lhGz3s37+24ufQd99+8T78chqqTC48nUSffzbTM3tufyqGqZp9ZhGJldDQqkUgksOHSAqAGzdRmQpP5yMiInb9N7SaIUfgxvPUZw1VY+A3Xh3W+m4KKryYkmQ4T9lMpy4hd/i55CPp6hivlxqGPzRiumZuyz7Nv0ueIMyX9joGwGXJ+DxsxXMahdaNy8h1PnyTjZMD+3VlGrLlaPvzXdPttro4rGQ2X7wa1Xmu8p08f28Myys3UgmNxaUV6enoCG67N5HYM147isVxMM6nX5nfvyXv/WSEhN2E6mIZOZCKRpLKLmf1+6Q3X+uPUHdIWifTHTbdvUqLWNt8QCS//9NZe+fBIhhUOYdsyOztnJ+qghmthYcHG1GZCj6P90x3PBDEKP4bur2C4Co/kurg79cmPksmwWOYq9HddxS51bnIS6xmuTCZuvbrkkLY2bjSWl/X29bUlbmx6eS6hv3j299fshcfSXhVbEdI/NyqZdQzXRuu4RUbDZX3u9oPrzHnTueh7vpazN1P/HWDref7ipW2Gghou3ZZtbsdw7TSsJPXTl3vXT+7//I687Zn8ujnDlV3M7PcrUMNlt9+Wr//nOiZS+e1uOXTTbyJhu8McLsgGb33GcBUWyXVxb8rQtBjp68b0ze/Sr1r7uz8mm4giN1zvVZrNR9rP9aA+/UrDlqH5H0ltW224LPT1AFVfrL8qscU//anevHolbBnM4YL8Y7/f6raEqirsd0K9lZK8/hhfLW/0e2+C2SNHu33DCU2Y3h+ygZjZ77eO4UpauCLNHUnfcILfWGYu1pYDw+Uyo2P3m533mRjubCZN8oViAMMF2eCtzxiuwsJ/IzI+jN7Lg0tJC1bEh//pKnveYW86ZP7Ij/acntiQ+cdy9n952t+U4fItAJFx+KKX9T6nv+3T28n72vjmsf3zIQnZvxv/vLJ35L2/OdMNnCF7yd/nDRguF+vaZfRuj/x02Xnn57+m3nA1DkWFLQPDBXln2j+WeGFO2sv2JCWCeKLxzafa96NvX3v/5zKd4cW9G4rpYWP7pU+oySsb/V7+cCp1GMPwqeTjJpJhjgyX9XtKmYOm7xNJWj0xQxKHbQeGC7LBW58xXIWF33D9y5e+Zd8txi+XJvdxl4b33dhLWRTKbzbelOFa8htD74rADr45S/GnVet9Tn+b3mT0P+l5/GPSvPD4jUjfMM2URSksAi+akW/DNZM6R3v04qfJqz5m+veDvILhgrzQ/l/euyupqw1NX/nC0+4xG/67cb//Tn7yzTVKfmlh4olTtjGz/qzrJVSrMHzsfcTvf9eW/x1dv/0isdriZhL1grWv97jvVkt/UhKek1CJp927yiMUBRguyAZvfcZwFRZ+w5XpdR9Jq976Xnviv4mpww2TlifPoeH6l/iojQTpDddL6T+SPB8p+RUt/mXOPYtRrfc5/W0W6776xSJuaH1P3VLmf6W8azOfhuuPcqjds29K+zvWv63nnFB8qzrGTTi8ETBckB+6TyQncXflv+Yf5eTfPk0eb/xb66L/cWJffTqUdFfGfu/Hd3Lo4Hey79//mNzmNRTZxsz6s66fUP1Lvur3+MN/fi2f/+eelIm3ycvfby5Rd5UlFy13lUIdavD53uQ3+PMyxOIDwwXZ4K3PGK7Cwm+4fvPbmEH4p7d2y9tv+2qi4q0Z/pXskt4F5atvymYMV8qqebHP+Ja+H8rps57hmp+6Kft8n8d+af87Fv4hct7avxHDZf3u7N/X796zj5u6CMZ6T912y8enrFpq/e5CVV/LeylTDnJruPwjZdRUvfXOe7LbfbKX8kJrZ5VCexrBId/ne888jQK2DAwX5Ik568Lf/zJGE+/J5ykLNwTc93elcjFp8nC2MbPdL0NCXZiS0L51VhByeGvfTRlNegq1yUQ9ZRWJf/MVJxO/t4qD7x1dsP3BcEE2eOszhquw8Buuzyut/J9iFBz8oykyrWRn1YHPvaMeNmO4rFranvQUysWdE5XBcFlM91avu8qujb/2b8RwfXop5YlWgndSnzJ97x1R48P6XX/+qfflxLk1XPNT1jGSXvbs4JnfNlz3he8FyiZSvxdsPRguyCujzRXy4R9Mye0d+cN/VshP64xJHu+tl32mffWJ199+lK40Q+Gyjbnx/QIkVIvR5hOy2zCB9Tf/WiJfN5uSYA4Sta66eORT+UPKHTiL3+2RD4/c9pk8KBYwXJAN3vqM4SosUgzXTTUm9fLx29668o68vdeqU2OGYyxMyU9flvie5rwj/+PfT9j9k0zQpgyXhTHWe3K0N9aeyXDZPAnL2b/sMawabNXiv9Sn1v6NGC5tm7KO/7FvtMfbn8rRFudFyknMSX/VoZRa+k9/OCRne+d8/zY5NlzK2G352j+y5/cV0u/pM977o3zu72Oj/8Zfy0XrcyYdE94IGC7YGqx/b+/Kght6AW/Svtb5Y+pjItuYm/ms6zHjOa5/MnAemZ7yxOVliEUPhguywVufMVyFhclwuW3x/J5hISkbXUhpq2qQJ1bWNdT7ebM9znpmzK31AevitPtZ3kQdDfJZc/H7gryB4QIAKCIwXJAN3vqM4Sos1jNckIFsntIB5AEMFwBAEfHr1JSMj48HNlyaf7WPqc3EzMyMTE9Pb6hAEKPwY+j+im7HcBUWGK5NgOGCAuH5svW3PDoa2HBtJrdjuAAA8sy9e8MSiUQCG65QKCTRaNTYZuLevXvS3d1t529TuwliFH4Mb33GcBUWGK5NgOGCAmHh+Qvp6ekJbLg2k9sxXAAAeebJk0k74QY1XBMTE3YeNrWZ0GPqPprDTe0miFH4Mbz1WY+J4SocMFybAMMFBYI+4RoaGrLzahDDtZncjuECAMgzzOGCbPDWZwxXgWFdL7EYQpb4FpLYygWrALwwhwsAoIjAcEE2eOszhgsAILdguAAAiggMF2SDtz5juAAAcguGCwCgiMBwQTZ46zOGCwAgt2C4AACKCAwXZIO3PmO4AAByC4YLAKCIwHBBNnjrM4YLACC3YLgAAIoIDBdkg7c+Y7gAAHILhgsAoIjAcEE2eOszhgsAILdguAAAiggMF2SDtz5juAAAcguGCwCgiMBwQTZ46zOGCwAgt2C4AACKiJH79yUajQY2XE1NTTI+Pm5sMxEOh6W/v9/O4aZ2E8Qo/Bje+ozhAgDILQvPX8jAwEBgw7WZ3L6u4Xq+/FKePV8BAIBNMDoalUgkEthwaQFQg2ZqM6HJfGRkxM7fpnYTxCj8GN767DdcpvMMAACCo4arp6cnsOHaTG5f13BNzz2XkbEpAADIkgePnloXy3N2og5quBYWFmxMbSb0ONo/3fFMEKPwY+j+islw6XllOt8AACAY03OLthkKarh0W7a5fV3DtbD0wn7KBQAA2cMcLsgGb332Gy7TeQYAAMFRn1MQc7hevXolCCGENqdnz55huGDDeOtzkuGyzieEEEKbk/ocDBdCCBWJMFyQDd76jOFCCKHcCsOFEEJFJAwXZIO3PmO4EEIot8JwIYRQEQnDBdngrc8YLoQQyq0wXAghVETCcEE2eOszhgshhHIrDBdCCBWRMFyQDd76jOFCCKHcCsOFEEJFJAwXZIO3PmO4EEIot8JwIYRQEQnDBdngrc8YLoQQyq0wXAghVESanJyU8fHxwIZL86/2MbWZmJmZkenp6Q0VCGIUfgzdX9HtGC6EEMqtVlZWZHR0NLDh2kxux3AhhFCedffuXYlEIoENVygUkmg0amwzce/ePenu7rbzt6ndBDEKP4a3PmO4EEIot1pcXJSenp7AhmszuR3DhRBCeZY+3dKEG9RwTUxM2HnY1GZCj6n7aA43tZsgRuHH8NZnPSaGCyGEcqeXL1/K0NCQnVeDGK7N5HYM1xZodToi7cNTsrrmbCg0rc7KUHdExlecnxFCORVzuCAbvPW50A3Xs4dh6RtdlFXnZ4QQKnQxh6uYFKmV3Xs+knctdleEC7AYjcnpktjne7ekWvqCmK75sFyoqJZypS4s3GtFBa9wtxw9fVWOhkYl2H2FSbkT6pS6zknn580JwwXZ4K3PhWy4nt08FqshFqXXppyt6yt606khFo0PnY0IofxrdlSuW/Xt+uC8syGDNlw/DcrFMfIgDFcxaaA6Xoje/aJZgpWirVRYyt93Pt+eMqmddjavp8lmKXG/02fNMu5sRqhQNd/VKmVWsi+7MCCzzrb1FZEa7d8QcX7enDBckA3e+lzIhmvqWlmizlWEna3rq+uE09/iqz5nI0Io/5rok1NWfTt1a8bZsL42Xj9TlYtjWEeRwRudUndj1Pp/uVFRG67ZZwtyrbVTvjx+Tv72zSn5tuKiNN28I6urxWruXsj95lopr2iQ9mDn9pZrKdIqpyuqpao74J8BhgttO63JipXjll46P2YUhgvePN76vBWG6+7wAzlT86Ps//qkHDx6RiouNsijiV+d1nW0Nivtl6ulvLpV7i872zIIw4XQG9IGDdfG66dJuTjGjLSct+ry+b6cPbwoWsP16/SsHPo/Z+XAd5VS19gqP7X/LFW112zjVW4Zrxcrm/qXQFslDBcqemG44M3jrc/5NlxXrt+yjdbxc3XyU8fPcqW5Tb45dd7edqdvyOmVO2G4EHpD2rDhKhRhuALp9evX9lMtTebLL5JHcM7NL8j/PlEt1fWNzpZ0eiVTnbXyyV9L44n63T2lsvtApTSMLDp9PFpblKHmSiktSfTfVVImXzVH5JlhAYtnI63y1YF9sit+bKv/X4/I6c7Z1LlX8xFpOFEmuz9I9H33wwPySXWvTHk791Um2k8MOhsdrc5Ke/UR2fth4hjmzzcltZ+5fQ5L7eQLuX/1pOxxY3+wXw5eNX+nzBqUr5zY7+6plC5nqy39/Vlx4p/PjjMmSxgulAdN3WqWstPN0jLhbPBosMFKsqc7rLM1IdO2mAxJOV2Bef1cIrfa5PgZPZYSklOhiMy+xnDBm8dbn/NpuG73DtrGqnfovrMlpn/84x/S3NZt3xR9/CT9Jc741cNODflISq4m91ud7pXjnrq6628X7dEeGC6E3pA89XBpuFtOxevfVTl+uVv6p30Xk7mon4ZjxGv+o+cSbmqRbyuc41Q0yjkdNvja6Wgp1teN42K+XtiIitJwDY78Yif0p7OJQqF30S42NMvS8gsZ+eWh3f5kKr3jHr/qGSeeQql8ftNjutampLFsn6GfwxeWUfCcU0uWMXIXtzCxp9pz4ixbJsVdaMLEx7Uy5B47neGyjlH+sWcfP0mfL9lwfVVh/j3srsrm4jCd4XphFUTz7++TqosYLpRzbb3hWraOEbIT97cX2uT67RG5c6tTKs/pxN5OOa8JHcMFbxBvfc6n4dKh/Zeu/uT8ZGX/lZdy9Oxl6b/3wP5Zb5R+/0OT/f9NSmu4JpqlND5H2EPJRTl+LPEzhguhLZRTD49f6YjVxfoe6egdlpZQi72wRVlFi9x85LlA3mj9bOiQc3qcgIbrfF2jlJ1rlbpbw/Fj6HGP/5S4GJgf7JG6UFvMHJ5plhpd1CrUI4PZTwizVZSGS4cPHqm85PwU08Sv0/L5t6fs4QqrViw1XN13h51Wn1Z65aCbuN8vk6rhWduoTQ03JBL6ny+KO/DBWwB2fXZR2h8vyrPpMWk4tj++fe9l9x9zQqr+6hxjzz452DZhH3vpcZccjBurI9LozNKLXj7gbLNMznddEn1u9X0+IS3fJQzKJy2O+TMarlfJZmZftbSMzsrUaJeU73O2WSQMlNdwKaVScsK6MG1ukIOfeZ72vX9S2je8/EsawzV8McmA7q1olfbuXmk4czjpCSCGC+VKW224Vu52yLfWtqNWUVhyttl6PRXb318wNiEMF2SDtz7ny3C9Xluza+/QyKizRWRt7R+2ATt8rMp+yqX1W/9/OpkN16I0fumpFSXHpKqtV9rbGuRz381GDBdCWyinHuoTqZq7vkmXj5y2mqHE4ham+tnTZtdIY/28YKifaQ2X1e9CnzzxPM2S12Ny5aweo0OSl+BhSGEg3brTJ1+fPO/8lKpXr1/bwxbSGi7vMLbSWrnvMd/PRnulzzIsz+ZfOO+6isjxPzt9/2yZiCQT4jFXcYPmNR3HpMVz/q1OhKV9eMI69qIsOUMFvUMhPm97EduoWpmSvu6IRK2+z5ad353JcM13yCfutj1l0jAX22zL+z3jBirZcJVc8Zxqa+HEd92zX6oSNTOgzIarr8LdZhm/Y71Jf1B9ZzxmEcOFcqStNVwr0lOn+7dJT1K1cGSZMQwXvGm89TmfT7jUcPXdSx5O6JWORtmw4ZpullK3Tuw5LBe8f9dzrZ42DBdCWyrXcNUNG5ZoX5NwSJ9ctUiH67g2Wj+HO+2bmUENV81dzwW9o0c/NVpt/usBDFdGzS8+tyff6hwuvVtmUvTxkwxDCj3vi1I+2Cel5dVS1dwrQ49do+XIa1r+XCYH3XdGOXwSf5rlLoO+KI1l7jaL90tl75eVcvpql23kXKPlyvvOEUXneX1VbZ0YA2My5RotVybD5d32ZYfvPVZTciH+lGufHLf9p9dw+U1VshnbeOEyGa4Mx/Q+/cJwoRxpaw3XmFzRoQnplqhdGs7pkML6+nr55ptvpLy8XI4ePSrHjh2TEydO2Pz9738vCioqKuT777+Xuro6CVkF+8aNG3L79m0ZGxszFh/IjLc+58tw3bzTZ9fen9Pd7LR0+mLDxocUeutcSp1IfvqF4UJoC2UwP0nqjz29qrnr/JyuftYMmZdnN9XPtIbLXPPNbRiudbW4tGw53Qty6P9UJc3f8koX0dCnX2cvh5wtZi1FGqTUu0iFlw8Oy+kBZxif13Ctiy5AEdtFZrrkq3Rzqt7fL583TyQWzliblRbP0EQ/e75plajbOZPh8s7rcpQ6mdhrgDyf2Va+DZc/niUWzUB50NYarkyLYuR20YydYLjW4+zZs3Lz5k0ZGRmxzYKpGCnhcFj6+/vtWmRqN9HU1CTj4+PGNhPbKYa3PufDcHX0DNhm64frt5wtqer4ecAefaJTANIpo+EKVOcQQlsipx7W9Kc+WbLljPBIb7iyqJ8FargWFxdlYGAgsOHaTG7Pq+HSeVA6b0vN1q9PE/eRZ58t2EMHfxkblxu3e+yhCsrzJc/wvHRaeyXjw11SW10pn3y2X3YlTch1huclDT+slIbuXnv+USphGU96nvpKno2GpeFytRw8sD95BUJ92uRbGXd1bkz6mhusi6gy2eNZCVHZfcYZeZrJcJV3+VZATDZQ5QP+bVttuNzP4BFPuFAetLWGK4s7dJtQR0eH/dSnpaVFbt26Je3t7fbTH+XOnTspaN+ffvrJ2GaitbXVTuptbW3GdhO5jqHfS4956dIl+2mXyXgp+hRMi5apMGlRUlOmdcjUbkKLZTQaNbaZ2E4xvPU514ZLa7CaLV3+3auegbA8iD6W/uEHcv6H63af1s5ep9WsjIYr5aX/POFC6I3JYH6SFPQJ10ZGiBSo4dI829PTE9hwbSa3581wvVhZke/O1Njv3fKarWcLi1J28ns7ibvocIXJ6TT/8K5WXtjzqJSpOY8xW52QC37DsWaZCM9CGn0+E/9sRud76bGcoYirnmPPeFc6XJT2Y4n5SrFC8kqWnL7Ppq3jeI79rNOz0qFrREyGyzhPy1HS2HZ3oY6tNlzWx/bO4XLNo6P7lxKLhmC4UK4US7CNcj1lHqI7XtxkuFoNY8gn5LqucrSu4ZqXjhrnmN7Juq5MY9A3oZmZGTtRB53DtbCwYGNqM6HH0f7pjmci3zG0nmiRUbN5/vz5FOOl2/37FOL3UN5UDN1fybXh6hkM27XX/2RL52p5a7O+M1PNVrqpAK4yz+HyzVVe7kosgmWB4UJoC+XUw7L6EcMcLpFIo87h8pidlPrp1uRWubPgbPLIXVBjOxiu1dVVu04FNVy6LdvcnjfDVXHpqhw8ejY+J0vHiVda2/73idi7uHTOlr7BPtBTLZX3qUpJpbTPOZ9tvtezRHtiftNQVcIo2SsJ6tyqtVcy1XdR9vpXNfQuYvF+mVx46BxbzdwXznaLgx26PfnOXOmVCWf+2CuJXvEs1+4+uTIOq0g+xu6yZhmaVgMXkSpPvHe/63Wefm294VrtPBk/pj7d+/zyoETnJ6Tr8rGk1QsxXChnGooNY/CverQU7pTjmrx9hmu2TROyJnBv6l2T2dst9vb1DZe1f2es36lWX+p+PeeYMV/B2IT0AlnzalDDVYyMjo7aT8l0eKFruvSJmKkvxPDW51wZrtFHE7aZqmu8aRspnWOttfnk+R/s7fpOrjGrPuuN0rW1NEOOfDIarqTVfy3SrMarYLgQ2kK5hksNjXf5d9WC83QqQ/0Uqy7rEvJH64dl1nvTci4iNfYKg776mWPD9cTZsllt+zlcuuKgJu7O3iH7fR56h0zf6fHV37+3jdfKy+RBdMFkGQuvGTGw2zI08Qu1TO+5skzEV32u2XslfRWelfdMeN6LtTpQnWw6/FimrdY9SYyGy9Jkh3y+3ru8LFPZFV8tcesN13q/75JjlbLX/RnDhXKl+FKwVhKvaZPrt/okVK9Jt8W+IEwZPvh0SCo1qWsSr++Wlls9UlPTKGVnrf4ZhxRa8ixfeyo0JIORSYkODknoUkjKaqxj6LExXDlncnJSLl68GDddOrzS1A/yY7j0RcY68kTNVviXh/JjS4ddry+HbsiD6COn18ZkNlzr1Mo/V8pXnoWqMFwIbaGcelhZ3yZHK5ql7vaoRB9OyODtbqm0a3BIroQ9RsxUP2VZwo26kqDVvyJkHatTzlu1U0eGnLJqd37mcK1IT32sZh+v67Fq/ohkl7ES2v6G61XMcOmqRzqEUP+/8vfvf3B6ZKm1WWk/U+abW2XxwX45eDWSNLzP1uqENJ447Jvn9ZHsKj0ptSOeoYO2Xsj9qydl74fJfXXFwpIzvTLl84hLkWY5+NfkeVuK/Rb9ac/vLZ3hUs1HpLZ8f/J7rfaUyp7yZhlKmljyJgyXJfv37X3vlvO7mGDRDJQnTUekTs2SJmvlXKu0PNAXLOrPqfO1lh70yTnnJYk25zulf9p5j1Ymw6V6OSkd9U7RcLnUI9GF3C6ageFKxm+6dEy8qd9Ox1ufc2m4dMVgVX3jzXh9jow9trdlo3SGS6W1Mum9Wx8fk9qIvlg/sQ3DhdAWyqmHuhz7k87W2MuOXZyam6R09VPWZP7+gNRdbpaj5xrl6PlWCfXOyOu8LZphaeGRXK+JvXDZPAVhY9r2hkulb653E7ly70HUacmFPPOongf4jGuJ/kumAas+rT53jq1zvJxtaeWZW+ZfPj6wPHPIsj6GR97ilx6fuVpPzu8vF58NoUBatnLSYvD883pxXpaWgw1/Mkrjzc5beTBAgshCGK5U/Kbr0aNHxn47GW99zpXhGghHkmqzjj7ZCq0uWzUuSL1GCG2tXi7nuP7l9oalURu8RkinojBcz5eWpf3nu/ZwQmU6zZLwKPfKueFCCG1KGC4zWmdcw1VbW2vss5Px1udcGS7V8INovDbraoUIIbQhvX4u4Rs9MmhYNMNddCr1iVjhqSgMF3qD8jx1S0+Ap3cIoZwIw5UefUeZa7p0JUdTn52Ktz7n0nAhhNCm5CyaUXa2Va4PTsaekM3OSLSrU05V6HC/Ful46vQtYGG4EEKoiIThSs/PP/8cN1z6Pi9Tn52Ktz5juBBChaSUOdQu9lzqTQzx30JhuBBCqIiE4UqP1h3XcDGsMBlvfcZwIYQKT2uyYuWnqcioRB7O52Re1VYKw4UQQkUkDNf66Pu4XNOlL4k29dmJeOszhgshhHIrDBdCCBWRdEU+nZ8U1HBp/tU+pjYTalKmp6c3VCAKKUZfX1/ccA0ODm7b7+GSqxi6v6LbMVwIIZRbrays2C/lD2q4NpPbMVwIIZRn3b17VyKRSGDDpU98otGosc3EvXv3pLu7287fpnYThRTjwYMHccPV2Ni4bb+HS65ieOszhgshhHKrxcVF6enpCWy4NpPbMVwIIZRn6dMtTbhBDdfExISdh01tJvSYuo/mcFO7iUKKoX1cw3Xr1q1t+z1cchXDW5/1mBguhBDKnV6+fClDQ0N2Xg1iuDaT2zFcCCGUZzGHa30WFhbihqutrc3YZyfirc8YLoQQyq2Yw4UQQkUkDFdmzp49axuu5uZmY/tOxFufMVwIIZRbYbgQQqiIhOHKTF1dnW24GhoajO07EW99xnAhhFBuheFCCKEiEoYrMz/88INtuPS/pvadiLc+Y7gQQii3wnAhhFARCcOVGQxXKt76jOFCCKHcCsOFEEJFJAxXZjBcqXjrM4YLIYRyKwwXQggVkTBcmcFwpeKtzxguhBDKrTBcCCFURMJwZQbDlYq3PmO4EEIot8JwIYRQEQnDlRkMVyre+ozhQgih3ArDhRBCRSQMV2YwXKl46zOGCyGEcisMF0IIFZHu3bsn0Wg0sOFqamqS8fFxY5uJcDgs/f39dg43tZsotBiu4Tp//vy2/h5KrmJ46zOGCyGEcqvFxUUZGBgIbLg2k9sxXAghlGc9ePBAIpFIYMOlBUANmqnNhCbzkZERO3+b2k0UWgzXcF26dGlbfw8lVzG89RnDhRBCuZXm2Z6ensCGazO5HcOFEEJ51szMjJ2ogxquhYUFG1ObCT2O9k93PBOFFsM1XPX19dv6eyi5iqH7KxguhBDKvVZXV20zFNRw6bZsczuGCyGE8izmcGWGOVypeOszhgshhHIr5nBlo/mwXKiolgsDi84GhND216TcCXVKXeek8/P2FIYrMxiuVLz1GcOFECpsbb96jeHKRpPNUrLnIym5OuVsyEKYNoQKTBGpOX1Vyhoizs/ZaF4Gb1hF4Mao9f/ejDBcmcFwpeKtzxguhFBhKxf1emuF4cpGuTBcuTgGQiiHykUCn5GW89YxzvfJm/rLxnBlBsOVirc+Y7gQQoUtDNd6YLi8wnAhVGDCcO0UMFypeOszhgshVNjCcK3H9jNcq7PSfqZMdn/wkbxrmaN3P9gvB6+OyVI6s7S2KEPNlVJaUhrrb7GrpEy+arb2cbqIdRlW+5lzPC+fNcu408PWfERqyw/Irved9g/2SemZXpladdoRQtnp9XOJ3GqT42esZK0J+3RIToUiMvs6XQJ/JVO93XKuOuT0tzjTKOeadB+ni6WpW82J9jjN0jLhdFClxL4q317qlP7J3OU/DFdmMFypeOtzQRuu9W5W9lXa9fKrPudnR0uRVvnqwD7Z5dbbDw/EarnT7tXqdK8cT+kbkWdrTgdH41cPW+2HpXZiShrL9zv9K6XLbh2Ur/TnE4Oy+rhVDv7Vc03wt0ppfGz4e7dqfsMJz/XGnlLZfaBSGiIvnA6uEsdeijTLwVLn2O+XSkl1OPadZqzv8DdvzFrpM41x1muWqydl74femBelfXob3QBHuddEn5zS2hQaczYkK1brQnJl2PNHMfdIOhpa5NsKb23rkI4Hy04HR86xT92akiedVi10+tfcddotvZ4ckbpL69fbJMM1HZG6C57+59qkxR9XpfW3vUMqzzr9lLMtUtP+yJcLEsdeGu6WU069PnVrxmnPThiudFqzjNEXsQS058tqqW3rlYbLJ6XESoafnKmWvVZySk74L6TrxL5YcvvspFQ190p7W7N89Vks6ZVec/suSl9dtZR/ZyVWa/vuL05KeYX1c11Y4mVtskM+L9EEul8+qbAu2Lpbpar8cCyhf1wtXYbzCCEURMsy2BBLzN9eaJPrt0fkzq1OqTx3VY6GOuW8k2QTWpMnrpE61yJ1t4alv3dIQjWN9rajP47KitNzfrBH6kJtseR8pllqdEJvqEcGZ50OMiN3LsdiH63plJauEem4YfW3C06j1N3NzR82hiszGK5UvPW5qAzX8EW71r778RE5rXW5u0uqvtlv99tdlXxzZXW4VvbqTc4PDsvBy612DS8/FOu760CzjHuuL2OG64B88qVV9z+0+msdr+iQqN3qmKKyk3LwA8sIlTdIg7eOv39SWrx/7stWf6351vVGrG+vtFyttK833n2/TGqT1gXwHtu6Rqi2Pmdzgxx0rzUuWf9fzdcJ37XDXxucz+bKMoplsWuWPYeSr3H02qO8z2/00M7RvHRc0rrUIYNJJkc1KdertcZ1WrbE0YJlUBwTc6q+Rzp6ta52OLWtWW56bzo6hut4TYsc1Zud9VonO+WOc3Iu3e2wtlv7Wde+528MSX9Xn9Q59bbsQp88iX8exxTVddixY3GHpSWkxzXE9dT+svOx2q/HrtERKda2U21eM+Uc+1KLVFr/PX65zf6M1wc3NzMbw5VGsWRqJS9/Ul/ula/+rInRl/Cnu+y7WHv0rpOzyZZl3C7oE60/X5QhZ5OttEVjURq/1P5WQvaZ6SWrmGjh2Hs56SxCCAXUipXMv7US6FG9c+Vss/V6KjYUUJOs13CtPJLrl0KWOfMmetWy9F/R5N0iHXFDpUo/pHC2s8XqH5LzXXPOFkdusarukUfOps0Iw5UZDFcq3vpcTIar/ZgaCJ/BkRfSfmK/7P3ymgy5d0zWInJcTc9ntXLfd+9j/GqZfdyDnYnrFPca4d0vko1YTI4p2rPP+izJxuVZyxF7v9JricQx1aZPmfan9JWJa/Z3TTaG7rEPSNWos0m1NiZVf9Xt1ufsSD7O/QtqGvcn9Y99jn1ysC0pgSXMX4pBQztJ83a90idPvpM72iPH1YTcSNwFmOrSURuNVl/fH84j50lZo+dJmWO47NEfj3zHfj0mV7QWnrWM3oKzzdaaPGmN3fg83+P+wTqmyKqp/rhL/W12nU+KOzks56tD6Wu/10Cuc+zNCMNllJW4StMnHDfRGhO+QV0nNAlWSrv33EpXNJztpc2m1QtfSUu5dSy/eUMIBdCK9NRpEm2TnuTxAzFZZizFcK2j2LAKLRrOBlvpDJez/dKA+C5vbK10t9rJ/UrY2bAJYbgyg+FKxVufi8dwOTcw36+UrhRT5JO97z45biyuzjXBlx3xkSix6wCr/7CzIUmOKfJPFVCtdMlBbTsx6GxYT85xjvU6P6ucbZ7P4ip2rWGZS/ea1FXK78WZ2nCgNeUYqtWOk+t8N7QjtDQSG/FRPxIfxaF6dEOfNjXK9UBu3DEuVzw11R2u6DVDjlZ62uwafM40jGtpSsK9IzI4+tzZ4BzbOF/aMm460qRmKNBqwYMNVl/ruqDf//Qs4P5BheEyab5DPtGEVpHm6me0QfZY7ekM1+ryokyNhu2hC7XVziN6HevtHRaQpmjEEl2pfF6nQx9SufCNDhs4Io1vas1phLatnCR8wWx6ZGnYMKTQo2Urdz0ck34r6etQQB2GGLsD6LTbSmO4nGN/W9dj75/CjVb7jlxl5+b/sCcnJ2V8fDyw4dL8q31MbSZmZmZkenp6QwWi0GK4hquurm5bfw8lVzF0f0W3F9MTLveJUmxIYVjuT78Q01To+5f0KdBhKb9pqr0dUu4bqRIzXL66Hpdjioymar22V7I0Pyv3B6yYbc1y2h0OmGTc0u/v3tyNzSPzyP97cUzfrm+uGb6rRd0xO+4nLby2ZudqRXrqtcZ5b1BOyHWte2kXhbLO39kZiQ5aNa2rT0L1znB8b//4HK7U+VCPflIz1yw3A71ayzFFxnq9/uJVrxfnZSoyatXeYWlpcof1e+dbr3fs7LWysiKjo6OBDddmcvv2MVzrJXRVmvap7otSEp98GmPXx2VSYj/mD2a44sMU1iVdkkcIpVemJGpuX3rQJ+cdcxXnbLOcchbRCGS44sMo1mezk3JVd+/elUgkEthwhUIhiUajxjYT9+7dk+7ubjt/m9pNFFoM13B9//332/p7KLmK4a3PxWS49CJwqtNXm+05Tq1JQwdjZiUTCTOTU8O1pgt0WebKXSRLsT7jngOH7fniOTdczu8w8b3MpL0GQjtDw532jcD4ML7RHnt+VGW778bg6znpDzXbfRP1LCRHLzXbww+DGq7Yk6YO6wwPoo0arjWZ7e+ML4Dh8u3ZFquW6//Pv+FaXFyUnp6ewIZrM7l92z3h8k+ojcvwhGt1oDo2MXdftTQMT8iz54nvE0uCwQyXO676+MCiPJtPxwtZzTQ8AiHkU4ZhBqYnXBMDMaN0tlWu907I1OyyuKMO3FUJAxmu2SF78u3RxlGZn51Py9Ly5v+w9emWJtyghmtiYsLOw6Y2E3pM3UdzuKndRKHFcA3X5cuXt/X3UHIVw1uf9ZjFY7gSWn0+IUO6EMaXzqqCf22Q+86f3FCVLiBxRBomTTXXJfF0LHeG65X0VcQWr9hb0SpDjxdlKT6Gy+mba8MVv8YJG75jgsTnQDtSOqdKa2bdsD2sMPYEyj9veUXCP8ZuPh7/cUgiD711zDEuAQ1XpNE0LzqdNma4VoacxTiqO6QjPGnlucTJHTN6+TdcL1++lKGhITuvBjFcm8nt22gOV0SO68IYpvHXlp41xybQehN+X4UmujJp8M2HV23EcLkrKpnncCGEste8dNRoYjWtvGTJuZvnTbKz1sWZPbfKu/ytow0ZLtfspZnDlUsxhyszzOFKxVuft4Ph2nMpdQ5IbEh+esPlVWwhicQ8pfjNzoATpHNnuMJSrk+2jPOp8mS43GucNHO4EHIVM1mt0rPk1DDfnC6RUanTummsbRszXGkX6lC9XpElvTG56HqFjRmu8I/Wz2rmnjobPNoqw8UcrjSK3e3aJ191+1YNWg3HVjKykpfXLMX6GwzXcpcctIcJmA3X3is+wyUTsZWGSqyk6Z83qKsQfbZPSk/2+i7mEEJBFFsp0Er2rb6/oNdzjhlLTrKxAmAwXK8nYkvj2sXB2WYrkeifOFtcxSYbm1Y9WrOKWrP9zpJ+48XbxoThygyGKxVvfS5ow+UaFH+NXLZMhLNKX9xYrITltFUzdfVg/7yt2Jwtz8p9K72xWm1adVDreMkB+eRKJA9PuNKbnyXHQObecIlELx+wtqWuoqi6f+mw7D5QLe3Tzga0c+WsSlhZF5tnnFgl0FX6m4lL9mJQsXoYr7jrGK74Qh1aP303Rd1jJeY5b8xwxZ+e+Q3XgjOyBcP1BuUujfr+fvn8cpcMPY4NRfhqn2WSvjySumiG+64Pd0jhvNW/uVZKS/bJbtug+RKzm9zfP2Adv1lqO+P/0onhifFJvonYmjSZyIpQltIlYC9ocrUSfmhIBiOTEh0ckpC+ZLEm9s6NpCT7NDYUMDGkcEaivX1SY5mto2dNc7jcicZX5Xhdj7TcGkks9b40KnX2u0oapbJJY8/Ik/CwtFxRI2ZtrxnKydMvDFdmMFypeOtzYRsu9wZnrEZ+pfXTWZzqky9jo08SxiJ1uN6zxxFpuXwsVmPVXDk9VePXYvvv+qxSatsiEp0ekz67jmvtTV61L5dzuNzv4/2MDdVl1rWDdf2gffNguNSMljvXOPour77RWYkOd0ntMTVi1nbDKohoJ8oxL1qjznRKOGV0yJpjZhJDCnVxqY6mFrtG2sP4ghouS1P2qBJrn+o2aekakyfWse7caI0d52ynRPwrCQY0XBLuTB5SODspkdvdUqmf0a7LGK43q/mwnPa8rV3Zc6xLpibMwwGnOiplj70ioYOatZYpaTcNKbS0FGmQT9yJvKUNct/Zrkp6g7zLh4fleHe+ByQhVOR6OSkd9Y7JcbnUI1F9H5YhyS496JFKvYPn6X+qaUyixiGFlhYeyfWaWAGyl8/1vivHamvxxz4dssyf/y362QvDlRkMVyre+lzohkvcRSbc2qi19uqY/a5K/TnJWPj72pTKnvLmlPdtqYyLX5WelNpI8pOgXC+a0XLCmVfm8vExaZzojfXNh+FSLY9Jbbkvri4ocqZXpgyjutDO1Gx7bGTIt6HUYby2Xs9JT4Ovrp1rlY5HTk3dgOFSA2da3OJoXZ9Vo50utjZouPS43R1y3F6R0KVRznVOST9DCgtHusy7PYl0OcBnXNNlXZ0Jp6a1Zw1afZ6+bzy2ZxEOhFAOpMu865hwz+TZ9NLlbje4sIUePz7e3KeXy85CGc9lJUdGyxWGKzMYrlS89bngDZcru96al3lP0eqLWC0NWJu1Lgeu+7nSivsZA36nXCn+u2FBLrQJuTXVs7hU9sqi5gaROxdMj/vS2bZFwnAhhFARCcOVGQxXKt76vG0MF0IIbRNhuBBCqIiE4coMhisVb33GcCGEUG6F4UIIoSIShiszGK5UvPUZw4UQQrkVhgshhIpIGK7MYLhS8dZnDBdCCOVWGC6EECoiYbgyg+FKxVufMVwIIZRbYbgQQqiIdO/ePYlGo4ENV1NTk4yPjxvbTITDYenv77dzuKndRKHFcA3X+fPnt/X3UHIVw1ufMVwIIZRbLS4uysDAQGDDtZncjuFCCKE868GDBxKJRAIbLi0AatBMbSY0mY+MjNj529RuotBiuIbr0qVL2/p7KLmK4a3PGC6EEMqtNM/29PQENlybye0YLoQQyrNmZmbsRB3UcC0sLNiY2kzocbR/uuOZKLQYruGqr6/f1t9DyVUM3V/BcCGEUO61urpqm6Gghku3ZZvbMVwIIZRnMYcrM8zhSsVbnzFcCCGUWzGHCyGEikgYrsxguFLx1mcMF0II5VYYLoQQKiJhuDKD4UrFW58xXAghlFthuBBCqIiE4coMhisVb33GcCGEUG6F4UIIoSIShiszGK5UvPUZw4UQQrkVhgshhIpIGK7MXLt2zTZcFy5cMLbvRLz1GcOFEEK5FYYLIYSKSBiuzLS2ttqG69SpU8b2nYi3PmO4EEIot8JwIYRQEQnDlZnOzk7bcCn63jJTn52Gtz5juBBCKLfCcCGEUBEJw5WZ/v7+uOEaGxsz9tlpeOszhgshhHIrDBdCCBWRJicnZXx8PLDh0vyrfUxtJvSJ0PT09IYKRKHFCIfDccM1ODho7GOimH9Xur+i2zFcCCGUW62srMjo6Ghgw7WZ3I7hQgihPOvu3bsSiUQCG65QKCTRaNTYZuLevXvS3d1t529Tu4lCi6FPtVzD1dbWZuxjoph/V976jOFCCKHcanFxUXp6egIbrs3kdgwXQgjlWfp0SxNuUMM1MTFh52FTmwk9pu6jOdzUbqIQY5w5c8Y2XOfPnze2myjm35W3PusxMVwIIZQ7vXz5UoaGhuy8GsRwbSa3Y7gQQijPYg5XMG7evBl/yvXw4UNjn52Etz57DZf+FyGE0ObEHK4sNFS9X959f78cH8AkIlRcmpc7l69KWUWLdEw4m7aZMFzBePDgQVbDCosVb32empqSO3fuyPfffy/19fXOmYU2rOFa2fP+R7LnTFhWnU0FoQ1/rglprKiW8pvbNCmiItSk3Al1Sl3npPNz4QvDlVaL0ldnJZi6sCQPqFiUxrKP5N09H0nptVlnG0JoW2l2VK5byfr64LyzwdUjCZ21DNfpq1I35GzaZsJwBWNhYUHOnj1rG65z587ZP5v67RR0foHO/dOXQh8/flzKy8vlm2++wXBtQs9uHrOvFd79olmmnG2FoI1/rkH5SvufGHR+RuhNKyI1Vp0ua4g4Pxe+MFxpNSW1n1kJ5rNmGXe2xLX2SpbmXxTWHSuEUHBN9MkpK1mfujXjbPDo5bKVo1acH7afMFzB0Sdb7lMufaJj6lPs6NOsjo4OqaqqkhMnTsixY8fk6NGjtuHSn/v6+pwzC2Wj1eeLslSAFwsb+1wYLlRownCtR/EYLoTQ9tZ6hmubC8O1MfQJzk4zXXqO6LvIamtr499dzZVLQ0ODvdqlnkfaF+10YbhQoQnDtR7bxnCNXz0ce9yexGGpdYaKxtoTP6u6TmifSulaHpPa8v2yy9lv199qpW/Z6rA2K+1nDsuu953jfXhYTg8sxnb2aXW6V44f2Bc/xrsfHpCDVyPybM3pgBDKUjPScj42ZDCJ833xoTWDDbqtw7rEcJVI7EsP+uT8OXe/kJxqGpMl7TIdkboLofjxvr3QLeE5wx/s6+cSudUmx8+4x7D6XuqU/snc5T8M18bQoXSnTp0qetO1tLRkz1trbGxM+r4uNTU10tvba9dlPW/0/ClYw6X1tPqI7P3QqZF7SmX3gYvSbrp/srYoQ1dPpvadNvzNbeC4S5FW+SqlTjv5wNVks5RYbSVX/QP3XslU50UpLSl14ljXCn89Iqe7U6cpxK83Jhalr7pMdn/gxPtgv3xyOZzddUG6z+X/Xb1fKiVnemVqDcO1o+TckPw2NOZsSNbUrWa7/l0Z9px8c4+ko6FFvq3w1rYO6XigF8AexW92TsmTTqsWOv1r7jrtll5PjkjdpUQ9LTvTKOeaIjL72ulgy2O4fPW37FybtPjjqrT+tndIpTNtwOZsi9S0P0r+u/XW/OFuOeXU683eoMVwGfRs4JqUV5yU0j9bCebPZXJQJ4tWXJM+Z7pHesN1TA6Wl8qeQ7XS0N0qVeWWwdIk9UWD9f+thPpZpdS29UrD5ZNSYifNA1L12DmAo9XhWtmrpuyDw3Lwcqu0tzVL+aH9dvLbdaBZxjFdCG1C8zJ4o1PqrjTLt1YC/fZCm9TpxNsbo1ZLTGkNV12rnK9olMqmIem/3SPnHeN26ifr/+t/G/rkTu+QXK/XYmS1VffII+cIMc3IncuxonC0plNaukak40abnLILTqPU3TUUiCyE4do4upS+13yo6dJtpr7bDf0et27dis9X86JL42ubni/e+lzYhmtRGr/U+mmZgRPN0tLdK+3NF2M19f0j0jjndLM1JY1l++z6uedQdXL9fX+/lPe9cPqpNnDc4YuyW2v7x5ZJarb6dXdJ1TexOr27ynPH3WhsXkhXhVPTPzspVdb+LVdr5eBnMfNV6jNBsesNy8yVH5BdpUek/GqX1b9aPvlYP+tHsveS+aJ4XaX7XCdiv6tdf3M/VyzO7jMX5aC1HcO1UzQvHZecOphkclSTcr3aajvTaVVGRwtWjXRMzKn6HunoHZE7tzqc2tYsSWutOIbreE2LHNWblvVW/bVq8J1orHnpboe13dqvolnO37BqbVef1NU02scuu9AnT+Kfx63LHXbsWNxhaQnpcQ1xZdmq7Y4pO98m12+P2Meucet4m9dMOce+1CKV1n+PX45dJ6TO+d6YMFxplX5IYXrDlZr87l86YG9/t7wr2UFHamWPtX2Pt/9aRI6XaMxaue+79hq/WmYf52Bnof2eENqGWmdIYVrDZZmi66OeOx6vJ2KFx2o73+39g12TaLMWCO3vbLI029libQvJ+a6kK8JEsUoxaNkJw5Ud+lZ/XZXPa0h++OEHew7TdltQQ+urvmDz0qVLSd9HOXnypFy9elXC4XDSOeGtzwVtuCauyV5DrdXtpSVlUu55SvSs5YhVN/fJwTbfk6PlQflKa+1fG8S5ztvQcduPWfu+f1Jakur0C2k/sV/2fnlNhtwpoCZj45i13ZZ5SbomWFu0jquGJ/lGbOx6w4r3he+Gq3u98H61bHiWneFzrfZVpvlcU3JBr4X0M2C4dozm7XqlT558d/mjPXJcTciNxAXwVJeO2mi0+vouXB85T8oaPX9TTu1VQ9TyyHfs12NyRWvhWav+LjjbbK3Jk9bYjczzPe4fl1uXQylxl/rbYjdUvXEnh+V8dUiO6lMrZ5Ot11OxUS9eA7nOsTcjDFdaZWO4jkij3wBbScw2Sh3+72d4RG/33SfHjaujjUlVqdX/yw7fqokIoQ0rG8NVMxR/CuYq1rdVepLHI4jc7bCLQ2KYhDOU8dKAmNY2XelutZP7lbCzYRPCcG2OGzdupJgURU2KvrtLjczIyIj95Eh/16ZjvAl0aOTw8LD9OdVU+T+/msmuri7bWJr299bngjZcjmFJGQ6XIqeGH2g11szVjpOxejvsbAh8XOdJ2PuV0pVpxEmKsXkl7d/ptcIxn1lzNNcqpVZ/71My13B9ZXBV9y/pk7Lka5FAMnyulnL9Tiel3bRekHMdg+HaQVoasUdulNWPiPeUeHTDuZkYv1OxnpzaecXz1NepvUlmyNFKT5tdN891Gf44lqYk3Dsig6PPnQ3OsT3TARKyjJsOAzTUbJNidbxN+v1PzwLuH1QYrrTKxnBZCdj5OS4nUaUmy1TD5SbP8ps6RMFPh5Tr5/nzRdmmq1UjVDjKxnAZJuem9nXkN1xLw3bx+rauR/qtopHCjVb7jlxl5+bTO4Zr8+iQQu+CEjsBd8EM7yqFBbksvPtkxx36NzwhSyaTsNJlD4Pb9c01Qz21qDtmD/n/pMWZSx30uJZiT86svvaQwrDcn06zanGKsXFunKZdjn1KLuyz2j3XHabrDVfrta2rlM9lfXedQpHuczm/SwzXTtKK9NTHjEjihuKEXNc5zEaTo3olS7MzEh20alpXn4Tc4fXe/uvU3kc/qZlrlpuBzuf0dTl+gzPN53y9OC9TkVGr9g5LS5M7rN/6m48PQVzv2NkLw5VWW2+43GGJ62OIgRDamLbacDnx7OKzDqbPs1Hdu3dPotFoYMPV1NS0oflKOhRNV7jTHG5qN7FdY2h96u7ulrq6OqNJKSa2jeFSzUeSFqdSdH5T0qITjqlIrp+pJD3RCnJcW7FFL0rii2tY6AITJ1qTpwOkGJtMi0+kXndsjeHK9LkytaOi1HCnfSMwPoxvtMeeH1XZ7rsx+HpO+kOxedGJehaSo5ea7eGHQQ1X2npq1EYN15rM9nfGF8Bw+fZsi5yypwbk33DpKISBgYHAhmszdRDDlaTUBDZUpeO3j0jD5KI8m08H7/9CaNPaasM1O2RPvj3aOCrzs/NpWVrONEYps3QlOn2BbVDDpQVADZqpzYQmcx1Sp/nb1G6iGGLo7+/nn3+2l0v/5ZdfZGhoyB5eqE/D0tHa2moXQH3fl6ndRCgUkp9++snYZkJj6MqDOpRQF8Ewmanq6mr7uLdv37b3McXQNqW9vd1eSKOlpUWuX79uF/yC1eoLmRoNxxbCcMzPwQ5nIYz5DvnE+nl3VdhQRxMYn2Ktd1yfVp9PyJAubvWlY9T+2iD33T/jdE+S0k4NeFOGK8Pn4gnXzpTOqVKDUjdsDyuMPYFqkY6k+w8rEv4xthjF8R+HJPLQW8ec2hnQcEUa9Tj+46fTxgzXypCzGEd1h3SEJ626mPjDj9Xx/BsurSNaM4Iars3UQQxXklINlzvB1zyHCyGUM2214XLHlKeZw5VL6RwdTdRBDZcuCLGRRSH0ONo/3fFMEGPrYjx69Mg2YSbzVVlZac9R04Lsj6H7K3q+FPQcrnRa7pLPtabGTYNjItLM4QqslOOm1/0LOi3AMy8sxdhkmP9lMDZbY7gyfK4hZ1VGDNeOU8xk6Txlp4b55nSJjEqd1kdjbduY4Uq7UIfq9Yos6Y3JRdcrbMxwhX+0flYz99TZ4NFWGa7V1VU79wY1XLot2/qxPQ3XvmtbZrhkpVcO6pLw/tWIVFbSP1hyQD65EuEJF0KblZP0j7fGy0Bc+TFc7mRj06pHa1ZRa7bfWdK/0Qsng5jDBYr+e+vdUX2aZVpE4+LFi/bdVq3Fbn+3Phey4ZpqPiZ7PixLNRmuWSnvitfI6GVdJXifVX9Tn07dv3RYdh+olvbp2M+Bj7sSltOf7ZM9Vu321+LYPOz9UuWuTppibKyLrk5drCN1+XdVbFXj5JuuW2O4EvPSSq74PtfarDTYy+X7rlfQzpCzKmFlXWyecWKVQFfpbyYu2YtBWW0BDVd8oQ6rf2L595jcYyXmOW/McMWfnvkN10JsfjVzuN6o3NWEPpK93zRI7dXe+PKxeTNclsavxZZ/j72zKyLR6THpa66VUnsyr+fOGUIoe7mJ/XSjnLvRJy09iT/mfBkuWRqVOvtdJbF3eQ1GZuRJeFharqgRs7bXDOXk6ReGC/zoOaEvNdaXG/uNl5qxa9eu2eZM5xgUuuFSs1CqNyZLjklV95hMzc/K/YFWKdfFJqwaWT7guZawzFG5vXT6fvmkulX6RmclOtwltcec17V4n1oFPu4r6auIva9qb0WrDD1elGePI9Jy+VjsKZDeMHV6moyN3sxtOKDv3CqVkjOpn8m/LPtWGS5d/r32C/2u7ueasL//6QPWd/3yiD08E8O1E+WYF61RZzolnPJerjXHzCSGFM4/HJOOphY5ejYUG8YX1HBZmmpz32PZJi1dY/LEOtadG62x45ztlIh/JcGAhkvCnclDCmcnJXK7Wyr1M9p1GcP1ZrU8JlWH3DfBJ+5a5dNwqaa6fZNxLXaVnpTaiHkMOUJo41p60COV7gTac4l3YOXNcKkWHklLvWOw4oTkVMj/Fv3sheGC9ZicnLTnaVVVVSUZL10wQ1+OrMMRHz58WLiGy9JSpFk+d178G+fDw3I8ZXELS1Yd9y+EYS9wcaZXpnwjSQIfd21W2s8cTj6mZVT2lDdnWDTDkbu/Gjx3f/1M1WF55vtMW2a4VKsT0uBfNORAg/Wd0l+voOLXbHtsqN+3odSl3G29npOeBl9dO9cqHY+c2rkBw6UGzrS4xdG6PokmvZtrg4ZLj9vdIcftFQldGuVc55T023Ucw1UYWnkhz5a3/vOtPncm9r6B2AjtDK3JipWPll46P26VXi47C2U8l5UcGS1XGC4IwtLSkr24ii7qcfr06ZRVCnWhDTVmOiewUBWvkc8D1MhVq47bC2W8kFXTPCWPAh83fsxFWcpmrP8GPlNGOSYqbuBMGOakG6XXPEG+P0JeLVvX93ZdW5bNlzVdYj53i0nF5c4F0+Nucd3HcCGEUBEJwwUbRSdZ62qEuvy9f1n4K1euOGcWKmjNh+VCRbWUr0ddeHMLiCCEshaGCyGEikgYLsgG9xzRFS5v3rxpz+0q2PdwIYTQNhOGCyGEikgYLsgGb33W80bPH33nWGdnp3NmIYQQylYYLoQQKiJhuCAbvPXZNVx6Hun5hBBCaHPCcCGEUBEJwwXZ4K3PGC6EEMqtMFwIIVRE0mW/dR5OUMOl+Vf7mNpM6Kp109PTGyoQxCj8GLq/otsxXAghlFutrKzI6OhoYMO1mdyO4UIIoTxL593oct9BDVcoFJJoNGpsM3Hv3j3p7u6287ep3QQxCj+Gtz5juBBCKLfSF8v39PQENlybye0YLoQQyrP06ZYm3KCGa2Jiws7DpjYTekzdR3O4qd0EMQo/hrc+6zExXAghlDu9fPlShoaG7LwaxHBtJrdjuBBCKM9iDhdkg78+Y7gQQih3Yg4XQggVkTBckA3++uwaLq3TCCGENid9wqV+R3Ora7j0pfP5qM8YLoQQyrMwXJAN/vo8NTVln0djY2OytrbmnF0IIYSykeZXDBdCCBWJMFyQDenqsxquFy9eOGcXQgihjeof//iHvUIhhgshhIpEGC7IhnT1+eHDh3aN1gsGhBBCG5fmWF3Mymu4NNdiuBBCaJsKwwXZ4J4jegHg1md9p5vWZ70zq9sRQghtTKurq/LgwQN7tIBbmzXH5rM2Y7gQQijPwnBBNrjniNdw6TnkvmZgZGTEbuNJF0IIBZMulBEOh+13Y+poAb2JpfNjMVwIIbTNheGCbHDPETVVes7MzMzYFwZ6gaAXCnrBoKZLz6uVlRXnbEMIIeSXLjSkuVRfXqx5U29a6c0rzafqfdQDaXu+ajOGCyGE8iwMF2SLqUbrBYL7lOv+/fsyPDwsg4OD9kWEnl960QAAAAt2/dUbVf39/XGz9csvv9g3rfSlxNqmN7MwXAghtM2F4YJscc8TvRDQGu0+5dILhUePHtlzubym6+7du/aFRW9vLwDAjkZzoeZEzY2aIzVXqtnSm1WaQ9M93cpHbcZwIYRQnqV31TTBBzVcTU1N9hMMU5sJHY+uhUVzuKndBDG2Rwz3PFG8pqu7u1tu3rxpT/xW06X/1bjK0NCQzcDAQBKnT5+Wtra2lO3puHbtmvzwww/y888/G9tNEIMYmSAGMYKw2RhuHtT6q3nRzZW6UIZ6HDVb9fX19tBszatBnm5tJrdjuBBCKM/SRK9JPajh0mKhBs3UZkKTuQ6T0PxtajdBjO0Twz1XvIZL79TqhYWeW1qv9SJCLyb0PNNtGt9PY2OjtLe3G9tM3LlzR1paWqSvr8/YboIYxMgEMYgRhFzF0JyouVHzq9ds6UgBvXGlfYI+3dpMbsdwIYRQnqUXyJqogxouTf6Kqc2EHsctGKZ2E8TYPjH0OC7aR2v19PS0fdGg9dqt2a7x0uLuR4fRuBcg+v+D4Bo3/a+p3QQxiJEJYhAjCNnG0P/vzX2aE913F7rDCDV/al3W/7rzXt0ca8rBLm4OztTPi5vbMVwIIZRnMYcLNot7vrjF233S5V40eM2XmnvXgCl6sQEAsFPw5j83L2qO9JotzaFuPt2KerytDFf0ZrWUV3RI1Pl522i4Vva8/5HsOROWVWcTQig7zQ/2SF2oRwZnnQ3bQBguyAXuOeM1Xa7x0osIRc8xxb24cC82AAB2Em4O1Hzo5kf3JpXJbOW7Hm8rw9V14iN5d0+ldDk/F5YWpa/OMoR1YXnmbHH17OYx63Nbn/2LZplytiGEstPUrWYpO90sLRPOhm0gDBfkCve8UUzGy8W9wAAA2Ml486LmSa3HW222FAxXzjQltZ9Zn++zZhl3tni1+nxRlni8hdCmheGCnY577ijuhYOi55lrvrx4LzgAAIodfw70mizFm0MVU57NNRiunGl9w4UQyo0wXADJpsvFe0EBAADJ+HOmKbfmi+IwXPMRqS0/ILve13aLD/ZJ6YlWub/stPsVuP8rmeqslU/+Whrrp3x4QD6p7pWpNaeLpfGrhxPtcQ5L7aTTYbJZSqxtJVf9Awr1+BeltCRx/F1/PSKnu1Mnp8S/++qENHg/+4eH5aubE8wNQznQmgw2XLXMTIt0PHU2efU6IjWnrfZLA5I4Q61zuLdbzlWHrP10X4szjXKuKSKzr50ujmLH7pDBhTEJXXD6n+9LDLN9/Vwit9rk+BnnOBbfXuqQjgfJf5gJw7UsUe1f4fYPyalQalzV68kRCV1ulG+d42rf45e7pX/a84dsKX7sR1PSUd/o9LU+s9OerTBckC/c8ygTposPAIBiwpT70mHKp/lk+xuuiWYp/cDa/v5++aTCulDqbpWqY0fsRSreLbH6+k2UqX/5Ydml5sXXf/xqWczUfHxEyq92SbvV9/Sh/fa23RWJBTCeDVyT8oqTUvpnq++fy+RghS7ucU365p0ORsP1QroqYsfa9dlJqWrulZartXLws5j5KvWZs9h3PyYHy0tl199i/Rsun5QS/S5W/4MdL5yeCG1Cw522KTl1a8bZkNBKT5ttQCo73RN7TZ7YBsUyJedapO7WsPT3DkmoJmZUjv44KitOT5Vr5iprtH+r1IQ6pe7GqNhHez0lNy9pu7VfTae0dI1Ix402OWWbqZDU3E38YbqmqKbB+q8b93aPnD/v7O+LK4/65JR+xtONUhnqkzu91rGbWuSobjvbIeElp58l99iVNZYhPNMs5/UzhobkkdOerTBcsBW45xQAAKRiyptbxTY3XIvS+KW17f0yqfUNL1p9fM02Oe9+1+t5+pO+/1J3pey2+u+97DSsRKTqwD7Z9UWzjCfdBH8h7cf2WZ/jiDS615221hlSaDJcwxfteLtPDIrnes+6hl10jn9Aqh472yzFvruh/1yHfKLmkgU5UE40Jlf0CZP3yZOtFempV9PSJj3uCbjySK5fCsm3F/rkSdJTpWXpv6JPsFqkw/OwNma4LEPUEEk+hy3NdrbYbadu+c7ihYjU6Oep7ombnpgpsrb541qmrcU2Xd64ryTyU4t8a5mnlkfJT7OW+ttsc5kwkOsce5PCcAEAAOxctrfhetwgey0TsufCmLMhWX1nfMZo3f6Lcr+7V9qHpzIOz4sNITwgF5JM20YM1ytp/06/yzFpSRnGaGmuVUrVXFVFnA3ud/cMU4zrlbSU+34vCG1Cj27oE6pGue59/8LSiJxXI1I/kvz0KI0SQ/OcDZbiwxVTRsxOyvVqq+1ct0QNJmc+MiL9vWMy5QR2TVHN3WQDpZq3jVtIroSdDetpIvbk63hrwuTFjh1w/w0IwwUAALBz2daGa7XjpPXzR1I+4Gzwq7vSbv+qL/Zjxv7ptPJCnj2OSLtlyBouV8onH+vnSBw3po0YrjGpKrX6pn0qNSUX9iUfK/XpXkLrtSG0YUV75LgakRsJd7/S3ZrW5NhatnLIwzHLGMWGAlaeU3Ol/Z12S/E5XM7PcS0Nx8zcj6POhvUVN3OmRTPudqTEjev1iizNTkrE+ow6BLHGGfpY1pC4sbHusTchfReIvow2qOHS/Kt9TG0mdFUmXf52IwaOGMTIBDGIEQRiECMTxJjf3oYr9qTJ9NTHUV+y4crY36elSLMcLPUsmGGxq+SwlOzTJ2ebMVyD8pUe70S6qfipx8Jwoa3TvHTofKr4ML4V6amzfj7TKWHfE6ilB31y3jFXcc42yylnEY1Ahst50mSaN2bShg3XwiNpiS+A4VARkuMXnEU0tsBw3b17VyKRSGDDFQqFJBqNGttM3Lt3T7q7u+38bWo3QQxiZIIYxAgCMYiRCWJEt7fhetZyxPp5nxwfdjb45TNcGft7ZZmkUnvhjWNS1T0mU/Mv4kMN3VUJszdcETmuC2x82ZHykuSYMFzozWq2XYfmNcp1fejkPIH6ttE3FHdiILYYxdlWud47IVOzy+L6sZhxCWi4Zoek0nT8NNqY4ZqRmxc0bkjO3RiR6OS8LL10mhyjtxWGS59uacINargmJibsPGxqM6HH1H00h5vaTRCDGJkgBjGCQAxiZIIYT7b5HC5n4YmkxSg8un9JVwH0PNFat/8rWZpflGfPY9956pquUGiZsyH7xyRt3nC5i3dY38U0QmulSw5a/b1PwDBcaEvlmKyjP00486J8c7oszbapOQnJleHUk3hDhivtQh0xvV6cl/nZ57LiuLkNGa7JmCn8NmQwc1touJjDBQAAsHPZ3oZLJqTqr9Y20/Lvy5Zp0SdUB1o9T5Gc/n+ulHZ//9HYghruQhXxp2F+w7U2FjtGOsO171oAwyWy2hmbT+Zf/l11/9KBlNgYLrS1clYlPNMq55OGFyYUX6DCb7heT8QWwQhsuNyFOkJS0+/7w3SPdaZTXFu0IcPlPj1LMVxr8uinrZvDheECAADYuWxzw2UZl4GLsXdufXxMqtoiEp0ek77mWiktsbaZlosfqLafcr1bUianm8Ny/7H2vxh7n9X7R6RxzunoLrceH1I4K/e7m+WrfaWyu8Q0h8tdefAj2ftNg9Re7ZX4AwGD4VKD1nBA54eVSol1Uds3OivR4S6pPaZmK3X5dwwX2nI55kWpbE96B0JMT2NmJjGkcEaivX1SYxmko2c3MIdLtTQqdWe1PSSVTUMyGJmU6OCQ1Dnv1kpduj2g4dL5aPreL8+QwqnIiLRcscyW9Rm3ag4XhgsAAGDnsu0Nl8q4uEXpSWl4bP78xv6fXZR235z9pUiDfPJhoo9tjqotk2YcUmhpeUyqDrnH3S9V7qJrRsNlaW1W2s8cll1q7NwY78diPPM9NMBwoS3Xa2eony7l/tTZ5tPSgx6ptPskONU0JlHbuGzAcKmMi1s0S12/exckpo0ZLkvWca/ri4y9xz3fLeEHDCkEAACA/LOtDFcmrT5flGc6D2s52OcO1t+Z22WxFOQFRCpdRj7gZ7C1avW3Y7yQ1TSrbiNUuLL+RmZ1ntW8LC3n4ATWJebt4yUW4ciFYnPBLOaD/iHnThguAACAnUtRGS6EECpEYbgAAAB2LhguhBDKszBcAAAAOxcMF0II5VkYLgAAgJ0LhgshhPIsDBcAAMDOBcOFEEJ5FoYLAABg54LhQgihPOvevXsSjUYDG66mpiYZHx83tpkIh8PS399v53BTuwliECMTxCBGEIhBjEwQYxzDhRBC+daDBw8kEokENlwDAwO2QTO1mdBkPjIyYudvU7sJYhAjE8QgRhCIQYxMECOK4UIIoXxrZmbGTtRquDTPZjJcCwsLNqY2E3oc7Z/ueCaIQYxMEIMYQSAGMTJBjAWz4ZqcnLQN1+rqqnO5gBBCKFtpbnXncAUxXAAAAFA8xA2Xui/XcOlFgRquFy9eOJcLCCGEstXY2BiGCwAAYIeyruHSiwKEEELZS0cKuIZramoKwwUAALDDWNdwjY6OMo8LIYQ2Ic2truHS/IrhAgAA2FkkGS69CHANl07w1osEvThACCG0cb18+dK+cfXw4UN7biyGCwAAYOfx3/R/3MKvFwF6MaDDXvRurBouXcp4cXHRuXxACCEURDqUUJeP1eVgdcSA13DpDS4MFwAAwM7AaLj0okAvDvSurF4s6EWDbl9bW3MuJRBCCKWTLjikLzvWG1Z640pHDOiNLF0eHsMFAACws0gyXO48Lr0o0IsDvUhQw6UXDcPDw/bLu9SU6TAZNV//+Mc/AADAQue7Li0t2blTzZb7dOvRo0f2DSwWzAAAANiZpBguvRhwDZdeJOjFgl403L9/3zZdg4OD0t/fL729vXF+/vlnAIAdhzcPal68e/eunSM1X/7yyy927pyYmODpFgAAwA7GNlyK13R5n3LpxYNeOOjE7wcPHkg4HJahoSF7u15cuPT19dl0dnZKR0eHfQHibsvEjRs3pLu729hmghjECAIxiJGJzcTw5j9F86LelPKaLXeUgDI9PW3f0ApiuNzXcpjaTGi+1uNvxMQRgxiZIAYxgkAMYmSCGPNmw6UNarr0oDU1NfZFhvuky2u8FB0646WxsVHq6ursu7/+tnScPn1abt68aWwzQQxiBIEYxMhErmJoLtQhhJobNUfqvC1NsjpKQM1ZW1ub/aQr6NOtUChk51tTmwn9DBpH59+a2k0QgxiZIAYxgkAMYmSCGNGE4VK8pst9yqUXEHohoRcLegGhFxK6o15U6NwuL3pnV+d56Ydxh9UEQfvrBY+pzQQxiBEEYhAjE5uJ4c19mg81L7pGS/OlO29L/7+26Q2soIZL99GVYk1tJmZnZ+19NG+b2k0QgxiZIAYxgkAMYmSCGE/MhstvuvRCQS8eFN1JLygUXcXQRS8oAAB2CmquvDnQzYuaIzVXat7U/Kl5VPNpULMFAAAAxUWS4VK8hstrulzjpS9Fdo2Xi85TAADYaXjzoHtTSvPkemYLwwUAALCzSDFcit90PXv2LMV4uagBAwDYqXjzoZsjNV9itgAAAEAxGi7Fe4HgN15e8wUAAAmT5TVamC0AAABIa7gU74WC4r2IUNSAuXgvNgAAih1v/lP8+dGfP005FgAAAIqfdQ2X4r9ocPFfXAAA7GRMeVIx5VUAAADYOWQ0XC6mCwkAADBjyqMAAACw8whsuPyYLjAAAHYqpjwJAAAAkLXhAgAAAAAAgPXBcAEAAAAAAOSJjIarqanJfsGnqc1EOByW/v5+exUvU7sJYhAjE8QgRhCIQYxMEIMYQSAGMTJBDGIEwY2R0XANDAxINBo1tpnQg46MjMjTp0+N7SaIQYxMEIMYQSAGMTJBDGIEgRjEyAQxiBEEN0ZGw+UueWxqM6GTx90lkk3tJohBjEwQgxhBIAYxMkEMYgSBGMTIBDGIEQQ3BnO4AAAAAAAA8gSGCwAAAAAAIE9guAAAAAAAAPIEhgsAAAAAACBPYLgAAAAAAADyBIYLAAAAAAAgT2C4AAAAAAAA8gSGCwAAAAAAIE9guAAAAAAAAPJERsP1+PFjmZ+fN7aZmJmZkenp6Q29hZkYxMgEMYgRBGIQIxPEIEYQiEGMTBCDGEFwY2Q0XKFQSKLRqLHNxL1796S7u1uePn1qbDdBDGJkghjECAIxiJEJYhAjCMQgRiaIQYwguDEyGq6JiQl58uSJsc3E7Oysvc/c3Jyx3QQxiJEJYhAjCMQgRiaIQYwgEIMYmSAGMYLgxmAOFwAAAAAAQJ7AcAEAAAAAAOQJDBcAAAAAAECewHABAAAAAADkCQwXAAAAAABAnsBwAQAAAAAA5AkMFwAAAAAAQJ7AcAEAAAAAAOQJDBcAAAAAAECewHABAAAAAADkiYyGq6mpScbHx41tJsLhsPT398vc3Jyx3QQxiJEJYhAjCMQgRiaIQYwgEIMYmSAGMYLgxshouAYGBiQajRrbTOhBR0ZG5OnTp8Z2E8QgRiaIQYwgEIMYmSAGMYJADGJkghjECIIbI6PhWlhYsDG1mXj+/LndX/9rajdBDGJkghjECAIxiJEJYhAjCMQgRiaIQYwguDGYwwUAAAAAAJAnMFwAAAAAAAB5AsMFAAAAAACQJzBcAAAAAAAAeQLDBQAAAAAAkCcwXAAAAAAAAHkCwwUAAAAAAJAnMFwAAAAAAAB5AsMFAAAAAACQJzIarsePH8v8/LyxzcTMzIxMT09v6C3MxCBGJohBjCAQgxiZIAYxgkAMYmSCGMQIghsjo+EKhUISjUaNbSbu3bsn3d3d8vTpU2O7CWIQIxPEIEYQiEGMTBCDGEEgBjEyQQxiBMGNkdFwTUxMyJMnT4xtJmZnZ+195ubmjO0miEGMTBCDGEEgBjEyQQxiBIEYxMgEMYgRBDcGc7gAAAAAAADyBIYLAAAAAAAgT2C4AAAAAAAA8gSGCwAAAAAAIE9guAAAAAAAAPIEhgsAAAAAACBPYLgAAAAAAADyBIYLAAAAAAAgT2C4AAAAAAAA8gSGCwAAAAAAIC8sy/8PpRhT/4vTvCMAAAAASUVORK5CYII=;" parent="1" vertex="1">
          <mxGeometry x="148.1" y="310" width="670.8" height="258" as="geometry" />
        </mxCell>
        <mxCell id="E88NwztFnTZuqebjhYmT-5" value="" style="shape=image;imageAspect=0;aspect=fixed;verticalLabelPosition=bottom;verticalAlign=top;image=data:image/png,iVBORw0KGgoAAAANSUhEUgAAA30AAAGfCAYAAADrmbsZAAAAAXNSR0IArs4c6QAAAARnQU1BAACxjwv8YQUAAAAJcEhZcwAAEnQAABJ0Ad5mH3gAAHoESURBVHhe7b3tT1RZvvd9/U/nVb+azIuTyUlOMskkk3Q6mUzfucaTHCd3PJ60ngl9dzgd7bbt8fLhku5GPeqo4APjA6ItWoKIKCBSw4MIFFJNoYJMIY8K0ijzu/faD1W7dq2qvQuqgCo/3+TTyl6r9ndX9XaxvrX2Wut/LS4uCgAAAAAAAJQmhD4AAAAAAIAShtAHAAAAAABQwhD6AAAAAAAAShhCHwAAAAAAQAlD6AMAAAAAAChhsoa+xsZGGRsb05bpiEQi0tvbKzMzM9pyHXjg4QceeAQBDzz8wAOPIOCBhx944BGEzeaRNfT19fVJLBbTlulQpkNDQ/Lq1SttuQ488PADDzyCgAcefuCBRxDwwMMPPPAIwmbzyBr65ufnTXRlOt68eWPWV3/qynXggYcfeOARBDzw8AMPPIKABx5+4IFHEDabB3P6AAAAAAAAShhCHwAAAAAAQAlD6AMAAAAAAChhCH0AAAAAAAAlDKEPAAAAAACghCH0AQAAAAAAlDCEPgAAAAAAgBKG0AcAAAAAAFDCEPoAAAAAAABKmKyh78WLFzI3N6ct0zE1NSXxeDynneTxwMMPPPAIAh54+IEHHkHAAw8/8MAjCJvNI2voC4VCEovFtGU6BgYGJBwOy6tXr7TlOvDAww888AgCHnj4gQceQcADDz/wwCMIm80ja+gbHx+Xly9fast0TE9Pm6+ZmZnRluvAAw8/8MAjCHjg4QceeAQBDzz8wAOPIGw2D+b0AQAAAAAAlDCEPgAAAAAAgBKG0AcAAAAAAFDCEPoAAAAAAABKGEIfAAAAAABACUPoAwAAAAAAKGEIfQAAAAAAACUMoQ8AAAAAAKCEIfQBAAAAAACUMIQ+AAAAAACAEiZr6GtsbJSxsTFtmY5IJCK9vb0yMzOjLdeBBx5+4IFHEPDAww888AgCHnj4gQceQdhsHllDX19fn8RiMW2ZDmU6NDQkr1690pbrwAMPP/DAIwh44OEHHngEAQ88/MADjyBsNo+soW9+ft5EV6bjzZs3Zn31p65cBx54+IEHHkHAAw8/8MAjCHjg4QceeARhs3kwpw8AAAAAAKCEIfQBAAAAAACUMIQ+AAAAAACAEobQBwAAAAAAUMIQ+gAAAAAAAEoYQh8AAAAAAEAJQ+gDAAAAAAAoYQh9AAAAAAAAJQyhDwAAAAAAoITJGvpevHghc3Nz2jIdU1NTEo/Hc9pJHg88/MADjyDggYcfeOARBDzw8AMPPIKw2Tyyhr5QKCSxWExbpmNgYEDC4bC8evVKW64DDzz8wAOPIOCBhx944BEEPPDwAw88grDZPLKGvvHxcXn58qW2TMf09LT5mpmZGW25Djzw8AMPPIKABx5+4IFHEPDAww888AjCZvNgTh8AAAAAAEAJQ+gDAAAAAAAoYQh9AAAAAAAAJQyhDwAAAAAAoIQh9AEAAAAAAJQwhD4AAAAAAIAShtAHAAAAAABQwqw59C0sLAAAfHDo2kMAAACAzUjg0Kc6Oa9fvwYAgAwQBgEAAGAz4hv6vJ2at2/fyvLyMgAA2Pz888/y5s2blLZS154CAAAAbARZQ9/t27fl2bNnMj8/b3Zs3j8ckp+rmmXp8I+ydOg6AAAY/Hzklixf75R3I383204n+PX390tvb6/MzMykta+ZaGxslLGxMW2ZjkgkgoemTAceeAQBDzz8wAOPIGw2D23oc76xVsbDw8Oy3B6Rt/9ftSz+v8cAACALP5+6Iz/PzJtflqkvzQYGBuTVq1dp7Wwm+vr6JBaLact0qMZ+aGgIjwDggUcQ8MDDDzzwCMJm80gLfe5HlJTpcn1Y27EBAAA9b7/6q/w8MS2zs7PmN3Zzc3Mp7Ww2VFhU6Mp0qDZb1Vd/6sp14IGHH3jgEQQ88PADj83jkRL6lIkT+FRn5eeOIW2HBgAAsrP0f6+bDbFqS5121d3eAgAAAKwXKaHPHfjUt9Nvd/9V25kBAAB/lu71me2pGulTbWsu394BAAAA5ItE6HNG+VTnxAx83VFtJwYAAIKxdKBOpqamEqN9qp0l+AEAAMB6Y4Y+pyPijPKpTsrS1YfaTgwAAARnftpqUxntAwAAgI0iEfqcUb7p6WmJx+OydOautgMDAADBef18gtE+AAAA2FD+l9MBcUKf6pxYoa9J24EBAIDgvB59abap6gs11cYS+gAAAGC9SYQ+Z5RvcnJSJiYmZOHeE3nzlzsAALAGXr/4e0ro4xFPAAAAWG+0oW98fFze9D83ji0CAMBqWfhZ5l9MmF+kqX1PVTvLaB8AAACsN2mh7+9//3sy9BkdFgAAWD1O6FNfqDkbtRP6AAAAYD0h9AEAFJDJ6KiMjY0FDn0vXrww6+jKdDjzsHMJkXjg4QceeAQBDzz8wGPzeJihb35+3nyBevxIhT51gjeDY9oODAAABCfS9Vii0Wjg0BcKhSQWi2nLdAwMDEg4HDbbb125Djzw8AMPPIKABx5+4LF5PBKhT3VGlIl6DMkMfaOT2g4MAAAE5+XLCbNBDhr61JMWL1++1JbpUE9oqNeoc+vKdeCBhx944BEEPPDwA4/N45E59M0uaDswAAAQnFkj5KkGWT1FodpZv9AHAAAAkG/M0Kc6Id7Qt/B2WduBAQCA4BD6AAAAYKNJC32qc0LoAwDID4Q+AAAA2GgIfQAABcQd+tTz+oQ+AAAAWG8IfQAABYTQBwAAABsNoQ8AoIAQ+gAAAGCjIfQBABQQQh8AAABsNIQ+AIACQugDAACAjYbQBwBQQAh9AAAAsNEQ+gAACgihDwAAADYaQh8AQAEZevpUYrFY4NDX2NgoY2Nj2jIdkUhEent7zTZcV64DDzz8wAOPIOCBhx94bB4PQh8AQAEZGYlJNBoNHPr6+vrMkKgr06Ea+6GhIbP91pXrwAMPP/DAIwh44OEHHpvHg9AHAFBApqdnzIY8aOibn5830ZXpUOdR9TOdTwceePiBBx5BwAMPP/DYPB6EPoACMBk3OvpT+jL4sGBOHwAAAGw0hL4SZjL+QnrbHsrdJou2xy9kcl5fd1Mx/0bGXhqhyaGowtOMtO3fKh/98rfyT7/8RP7jry80dVbBlOvzMCiK/49gQugDAACAjYbQV4KMNFXJzt99YoQOFTy8fCK/++/r0vlS/9pNwU/XZav7mv/cpa+3GRn1XPuvT0qnrl6OtP3Zdc5flsm5n/T1YPNB6AMAAICNhtBXSsy/kOtlf3CFgyz8aod892hGf56NZhOHvtTwdVTa0upE5Nhvk3U+KmuSsbQ6uUPoK14IfQAAALDREPpKhhkjGAQMfA6/MsLDsO5cG0xRhz6DlxG5/P1ROfCXhzKSp8cwCX3FC6EPAAAANhpCX4kwdu0rex6Zwyfyh0MPZdA1H27scZMc+N+exz7//bqMuM6zKSj20FcACH3FC6EPAAAANhpCXykw3yffuR4pVIFv6/kMC4jMR+TYp+66v5fvwsnywWtH5cB+hyYZNI5NRprk2H/tkI8/2Soff9/nOV9cem/UyF6n/JMdsvObGrkc9l/AZHL4oZz65iv5g/m6ctnljIwFDX25er/sklOJ93ZUTrVZj7eOdd+SA845/u0rOXC+K22Ezvlcdv7OdV2/3CY7nfNdG7Hrjsh155jidJf+8c6f+uTyX76Tnf+mrtt+//trJPQ4nl7XgNBXvBD6AAAAYKMh9JUC4ZPyr4lAYOAzeqdGBZMB4rfyh+pkSPKOZN01zv0bV113AJvsviL/8S+uMg8f/e+T0qZdMGZGOit2eEYmbX57VNq6/UPfqrw9YXLr+Uj264gnX5v6uWhIXGOX7HUf9/6/mJ+RtkyeNr/4tyrpdHkrCH3FC6EPAAAANhpCXwkwWL3DFQh+Kzuv+SzQkmVLhNRwUS7/8Z/unw2ccDNsBKhfecp0eMKTYuSvZVlDz7/+e5l87D7mDX2r9faEvj/s+Co10Hr4aEdyEZZ8hb7OimDzLj/6Y+rrCH3FC6EPAAAANhpCXwmQGgi2yql+fb0g6MLNL36nHnlskrs3rssx8zHGETnlfkT0VzvkQJO9B6ARKAdvHEgJU7877jz6aDBlhKJfu15r8JuyK9IWMcLnTxEJ7deMgqWEvjV4ex8bNfjo42/l1A21j2GTnPvK6+0KV/Y+eaFd7vIDEkoLzllC38sm2ekq++iPNcmtM2ZG5Nwf3fMtUx+7JfQVLxNG2BsbGwsc+lT7q+roynRMTU1JPB7PKUTigYcfeOARBDzw8AOPzeNB6CsB8hkIvKHvX796KGPeFShTHif9RHbdSh9Z7D2+LXke915194+mBqu0R1Fn5O5Xv0+WK9yhby3e3tD36+/kbsooZLr33vvucu/no1vIJUvoM0LpyOMue7P8Jun0/n9q/s517lRvQl/xMjAwKNFoNHDoC4VCEovFtGU6BgYGJBwOm+23rlwHHnj4gQceQcADDz/w2DwehL4SoHChTz9q2Ht8q6vOV3J52B7tctN0VP45UWdHYmsI76Oou24Z95/n/GlzFF2hby3eaaHPCLQJT5vJWweS5QZ5DX0ZmIzPGGHwoZzakTlwEvqKl5cvJ8wGOWjoGx8fN9thXZkOdU71GtWG68p14IGHH3jgEQQ88PADj83jQegrAVIDQepjgbkSJFyk1gmGE2BSX+sKZG5GPeHMFfrW4p0W+lIeG7W5f1T/WptU/9WFvpH7163VQn/t2T7DA6GvNGBOHwAAAGw0hL4SQC2M4g4LGbdrcAi8kEuhQ1+G8DJ1X3a5XlsyoW/+hVz+z0xB7xP5Z08IJPSVBoQ+AAAA2GgIfaVAf03qapef1kivdx6ei7Gr5a4AYYTEvyb3hgsSLtr2u8PJAbn+whUgM2AutGK8trPC/QjjJ3KgLf38c8NX5A+JOgbu0LcG740Ofd7P/Rf/9p2cu9Eng841ZvEm9BUvhD4AAADYaAh9JYFnRUuD3x3qk0ld3fhDz+qZ2+RUJFkeJFyk7vOXYbXQ+TfJsOXCu0fgvxrXmVbHE47c4Wwt3hsb+t5I6L9dxz+pSg/mLORSkhD6AAAAYKMh9JUIk21H0/ac+8W/nZTL4RF7xGtEOq+elD94NjT/6L/vp4TDQOHixS35D/c5/nhFBlMCzIxxHvd+dF/JdWdrAm/w+uUfZG+zawXOyJX0Pfjc4Syf3msOfeVyeTS1PHPoi8vlP7qOf1Ijve7Xzb/wbNlA6CsVCH0AAACw0RD6SgYj7OzfmnXT8zQ0G6cHDRdpm4z/yzbZ+c1RObD/O9n5u9Twkhos3xgeni0Z1Hy2j7fKxx//3rr+X32S+j484WzV3nkIfamPpxr86vfmde9tdupkfrzT+2jrx19ckZDavuHGddn7b6nXrSD0lQaEPgAAANhoCH0lxYz0ni6XX7iCQyY++vio3HVGwFwEDhfzL+R6mSd8aVA+3mA5FzeC0W/19c2Rv/NV2cPZar3zEPrmho1zeEciDT5ObAKfOfSZ/prXWnwiW//8XcpcRkJfaUDoAwAAgI2G0FeK/PRQjv3XNvlnTcD4xW/K5bsbI+kbrtvkGi5Gmk7KVt3WA2r07chDGcngMxePyLn/3pYaUP9lh3zXHA8Wzgxy9s5H6DOY7L4uuzwjiv9U1iRjZnmW0Jfptcb17jofkUnP9RH6SgNCH0CShYUFAIAPDl17uN4Q+kqcSdcqlmMz+jp5YcrlEzfuKV0dHYntI3J4jZfVeq8Vx9e15UVgXNesXXQGSgZCH3yIqE7O69evAQAgA+sdBgl9AAAFhNAHHxLeTs3bt29leXkZAABsfv75Z7MP4G4rde1pviH0AQAUkKGnTyUWiwUOfY2NjTI2NqYt0xGJRKS3t9dsw3XlOvDAw4/VeNy+fVuePXsm8/PzZsdm8P4baTw+JVe/jcuVb/4OAAAGPx6alIeXZ+Vl9K3ZdjrBr7+/v6BtO6EPAKCAjIzEJBqNBg59fX19ZkjUlelQjf3Q0JDZfuvKdeCBhx+5eKh7WXVYVGdleHhY+ltey1+2j8l3/88zAADIwu0jr2R++q35ZZn60mxgYKBgbTuhDwCggExPz5gd6KChTzX8Cl2ZDnUeVT/T+XTggYcfQT1UufMttepDdFyd1XZsAABAz9nPX8rUy0WZnZ0185jqJ+jaWx25tO2EPgCAAsKcPihV3IFPdVYGW+e1HRoAAMhO7d6/m+FNtaVOu6prd9cCoQ8AoIAQ+qBUcQc+1YeoLnup7cwAAIA/vY1zZnuq+gmqbc13P4HQBwBQQAh9UIqo+1d1Spz+w9NORvkAANbC5a//LlNTU4nRvnz3FQh9AAAFhNAHpYZz/zqjfKqT0vrXaW0nBgAAgjM7PW+2qaqvkO/RPkIfAEABIfRBqeEEPnUvq3s6Ho9Lw/+80nZgAAAgOBOjcwUb7SP0AQAUEEIflBLOveuEPtU5MUPfMUIfAMBaGY/Nmm1qIfoLhD4AgAJC6INSwrl31X2s7ufJyUmZmJiQ7sY5qT8yCQAAa+Dl87mU0JfPRzwJfQAABYTQB6WEc++6Q9/4+LhEH7+R6dklAABYJarP8PLZrPlFmspkqp3NZ5+B0AcAUEAIfVBKOPeuE/rUfe2EPt39DwAAwXFCn/pCTWUzQh8AQJEwYXSKx8bGAoc+1f6qOroyHc6cqlx+IeCBhx+ZPNTPCnUuQh8AQH6JPbX6DEFDXy5tO6EPAKCADAwMSjQaDRz6QqGQxGIxbZmOgYEBCYfDZvutK9eBBx5+6Dyc+3Z+ft68j1WZuq9Vn+GnJ4Q+AIC10tsVMfsMQUNfLm17xtA3OfNGXvx9DgAA1sDLlxNmgxw09KlRE9UO68p0qHOq16g2XFeuAw88/NB5OPetCn3quOozqMeQVJ9hbGRR24EBAIDgOH2GoKEvl7Y9a+gbGZ8CAIBVMvpymjl9UDI4960u9M3O6jswAAAQHHefIUjoy4WMoe/du3eCEEJobVIbrBL6oBRw7lt3n8EJfUwJAQBYO4Q+hBAqUhH6oFRw7ltdn4HQBwCwdgh9CCFUpCL0Qang3LeEPgCAwlDIKSGEPoQQKqAIfVAqOPctoQ8AoDAQ+hBCqEhF6INSwblvCX0AAIWB0IcQQkUqQh+UCs59S+gDACgMhD6EECpSEfqgVHDuW0IfAEBhIPQhhFCRitAHpYJz3xL6AAAKA6EPIYSKVIQ+KBWc+5bQBwBQGAh9CCFUpBoYGJBYLBa4AW9sbJSxsTFtmY5IJCK9vb1mG64r14EHHn7oPJz7ltAHAFAYhp4+LVifgdCHEEIF1PDwsESj0cANeF9fn9ng68p0qMZ+aGjIbL915TrwwMMPnYdz3xL6AAAKw8hIrGB9BkIfQggVUFNTU2YHOmgDPj8/b6Ir06HOo+pnOp8OPPDwQ+eh/q4g9AEAFIbp6ZmC9RkIfRut5WnpD0dlbMn+GSFUUmJOH5QKzn1L6INCMRk3OrxT+jKADwHm9JWsRuVM2efy6TaDshrpCRL85iJyqapGKhXXIjJrH0YIZVAkLMfO3JRjoREJ9t3KhDwKdci1jgn757WJ0AelgnPfEvoggXEfjL10MaOp48IMdYn6xr2UKJuRtv1b5aNf/lb+6ZefyH/89YWrDODDoaRC39ulJfnb40F58KhH+iJRef1mwS75EBWRyu126NtWIXWT9uFsmmiSMrO+wddNMmYfRgjpNdfZIhVG6Ku41CfT9rHsikqtql8ftX9emwh9UCo49y2hDxxGzpcZIU0FNYut57OFtRdy7t+Tdf/pl0elzSkbvS5bXef5p1+flM6U1wJ8GJRM6AvdeyjffH9a9nx3KsH/OVot3U+G7BofnhaiLXKmqkbOh4N1Rwl9COWqFVky2jijLQ0oQh+ADue+JfSBQ95C30JEjv02WfZRmdG/SXntaumSvQk/gz93aeoAbB5KIvTV320zQ15Ta1hm5ubl/cqKvHgZl+uN983jg8MxuybKKkIfQgUWoQ9Ah3PfEvrAIX+hz+BlRC5/f1QO/OWhjMy7jq8JQh8UF0Uf+l5Nz5rBrqO73z4i8mz87xJ/ZY1u/dj4wBzxU49+6vVEDjtBZ1u1dNpHLWUpm4tK/ckK2fqZU26wc5/srumW+LJdx6XlyW45c2ifbHEeudxeLjsO1UnbpOez6KlOnu/kE1nor5My2+Nwj10nkLJc+8pr6b95SnbstMs/2yP7b47KAqEPlaDiD5qk4kyTNI/bB1x6Um8EsDPtxr+WpHTHLE1J80Wj7GKPxO0jMt4jp40Qd/rBlH3A1vs3En3QKifOqnMpQnI6FJXp94Q+AB3OfUvoA4e8hr6CQOiD4qLoQ9+dB51mqHv3/r19ROT+ox4zCI6+eGmO/Km/D408s0u9WkXoWzSOO4uk6PiiTvpX7LqGFvovy47E/Dovu4ww99auacgd+ipPyX7X6/IT+t5K58ldiXO62X3+MqEPlZzWP/QtGucImWHvh0utcufhkDx60CHVF9SCLx1ykdAHkIZz3xL6wCF/oW9Eru8/KgccTnelP945/0YGw7fk1DdfyR8+2Sofm5TLru+vS9uwcV+m1HfO95X8znV9//S7rxIe1/vd9W1eRCT0l6Oya5vr/PtrJPQ4nl5X8bJLTjnXbHCqbca4zri0nf9O/sN8/bdyffRnGWu7kqiTqJd2PuN1hney3hVpi3vrQKlT9KHvys27cvRsrf1TUg86e2XkudXLU3P9WsO95t/TlXvoi13dZx/7XLYe7ZTYm7ey8GZcmo8mw9Tu5tdW5SXjHH+yz7F9j+y9GZX43GuJ9dRJuTNKuP2UtDkDke7QZ79m93G1oma15NZPzPC+Bi/LVtf5d1S1SFu4W+rPHpQtruOEPlQqWu/Qt/S4XX4wjh0z/sGmLCX1Pm69ntAHkIZz3xL6wGHkr/kKfZ4RuX+/LiPu147el70ff+J6rZdP5OOv7rseC/WcT8Pe+67zL8xI7+ly+YWmnsMv/vOK9HpD2E+pC9BsPd8n13e4r7NMzv1k1ItcSQ2f/31fJt3nUbxskp3uOv95K0/zGqGYKPrQd73hvjnS949//MM+kqrZ+dd5H+nrPOkc+1z2trpG6Zbi0hOOSswIdbOL1nucbT6SqFt2M9FVNLXccSpRlgiJ7tC3vULqNB3VYNJfe0+Vc8wIrMe7UzqlPWddI4CEPlQiWt/QtyRd19TrW6VLt3iwEQjzGfp6e3vlzp070tzcLA8ePJC2tjZ5+PChyaNHj8BDT0+PDA4OSiwWM38fqd9Nul9esP4Q+iCN+0eTIcWgIKFvfkROfeoqU/zq9/LxJ39IC2m/qejTn0+DO/QNni+zt4vIzkd/vC6D7vmGntD3h/8sl391/ZwIfd73/ivjvXvmLU7eOuB63W/lP65mGF2EkqaoQ58avVOB7lZzu30kXWpxF1Vn8W3+5vTN3j9uH7PY8uUROVxjdCr7RiVuhz1H7oC445C9B57D0YrkqFtVxHqBO/Qdal/DXnm6a49L3dfOMc3jou5RQEIfKhGtb+gblRtqHl+mLRwWBvP6eOf169fl+++/l8rKSjl27JgcP35cTp48afKXv/wFAtLY2GiGQXcIVL+r1O8v9y+1bExNTcnk5GROvzzxSHqovyt0fQZC3weKJ/T96x+/cz2e6OU72frrZN3Aoa/taEog+82fH8qYE5iMQHjuj66RtV8dkLv25u6T5l6ATbLL9dp/2mX0m+x9Aiedc3hH4X5VJt/dHzHLJ3/qk1Pu8xv87vSI9TqFJ/SZGIF063/XyOWmh3L5L1ek7aVVd+xquave7+W7sH0Om7Y/u33K5fKL1HL4MPh7PC5jY2OBQ18ubXtBQ19H9xMzzN1oarWPpOrdu/eJuX1q3l9m5R76ZGVamo/vsY+ns+37FonZi7m4Q19WTtpdTM9CLquXX+g7KHXe/aFZyAWVoNY39Pkt1JLfhVwIffknFApJf3+/+acaEdT9ctMxMDAg4XDY/F2nK9eBR9KD0AdpeEJfbgQMfR6PL2545sO9iMhdI2ApOiOuMGfiOa9mIZfOQ793nf8T2XXLc/74fdn1K9c51B6Cjkda6CuTUxHXa928uCX/4ar78XFXeFzok+/cgXiH0b9zvxY+GAYGBiUajQYOfbm07QULfWoDdl3gU6N6h05ckFMXb8i3lVVmnbrbLXZpJqWGozbXAiwZQ5+t5ZlR6WmqNzpcFbKtrNyuZ7H1rDVy5w59uy91m/PntIxoHu8saOj7XCr7zINJMdKHSlAbMtJX2y9z9pEU5XmkT31jpxrkoA34+Pi42Q7rynSoc6rXuEfA/NjMHuo1z549M0NHZ2en+Vjsjz/+qA1/avTvQ/6s1tvDuW8JfZBgPUJf+GTqI5O/2io7D12XUHhExuxRvcz4hb4ROfWJq1zz2KUidRRuq5xyFoHxhj7dXL0Ecbn8n6667vfYXyMfu86z65bx7yzltfCh8PLlRMH6DAUJfY8Hh80wp/bgU5qcnjVX6XQe46y6clPOXQ3JzbttEjOO+ysilYkVMvfIGXdfbKRedjghKBGc3smCmrOnmJyWWVdInO2oTgtNYzcP2q//XMqb7GDnaPG1uaiLeS7nsdCChj7j9O45fXYwdfT0SnKBGkIfKhVZoa9B7ozYBxJy5t/pQl+LZk7euNy54Bf65qS91j5nckHhpAY7zEVe8hX6WMglP6jfT11dXXL16tWU4FdXV6etD/nHuW8JfZDAE/o+/uZWYtQtnVuy1x2wAi/k8kIuex6xTOFf/iB/+K8qCfXrVsT0C33ZfJN4VylNzAf0hj6fLSHGrn3lOo8z3897/gMS8g2zUKoU1Zw+tVjLviPVolbsdBZuqb3VbIY9xePB1XSkXkvDoWQQ+rSsQs40dUvzzerE/ngWTnBKrV9+Y1yWzeD3TmI3KpL1KzvFfMJzpl12J/bmq5Dzg9Nm/eXFUamv0Kz2WeDQt+xaPEZtF7H36hOJzY1L59XjKat6EvpQyajfWjzFu5rmQqRDTqgA5gl9060qJKogl4h2hlZk+mGzeTx76DNe32HVO93ifr2h9zN2ICT0bWbUt6BqlM8d/nT1IL849y2hDxJ4Ql/BVu+cfyF3D+3IurqmuYLn/i7PSNvmCn3eFTp3XlNBNfVz+WhXttFCKHWKKvSpeXoq3KnHO51VORV/+euPdo3VabmvJjXwOBy6LCcSj0O6glOm+g6eVTfHblekbofg5VsjYDkjhgUOfeYjnt86x1MpO16dHNkk9KFS0ftRuXHOClvHalvlzoMeCV1Xwa5Zqq+khz551S/VKpip4HY9LM0PuqS2tkEqzhn1fR/vNKS2Zrhkvz7UL0+iExJ70i+hKyGpqDXOoc5N6Nv0uIOf+ruuDuQP574l9EGC9Qp9DuZefQ8ldL5K9v7XDvnNv7heY+JdIMU/9B1wz9f7pEZ6U8oteo9vTdYxwuWBNrss19C38EZC/+2qrx4HTQmCn8iuBuPfmPa18CFQVKFvZWVF9v5wWmquN8jtlg4z8KlRv64nQ3aN1SveXi3bXCN7Ww7Uy9NF9xw4d3ASWYg2yf4vU+fxma/75rK0Taa/v9m+etld7qm/vVzKznZL3F70xVTBQ5+hlWlpS9mXz76OcRZyQSWqyahcU4HNDnMVF1qkeVhtoq5+Tp+/tzDcIxfUo5xO/Ysd0jtp77PnF/qUfp6QdqOdSrxecaVLYvP5XciF0FdY3MFPPf6pqwP5wblvCX2QYJ1D32TcE4jmZ6StYpvrnN5r8At9M3J9h6v8l9s0C7F4t4z4Sq7bK3LmHvo8WzP86qiEbrh/Tq4+Ch8mRbdlQ2tnr/zZXqRFMTAcs0vyo+U3r2XBHcL8tPTWmpNnEOR1y4v2HL65t9bjnznIPT8wM56Al00r1vzEnN4vQsWsRaNNeh28/Xn/ek4WFlNWd8pNym96zmgHM20ZszYR+gqPO/ipbR10dWDtOPctoQ8SrEPoS11ExQhlziIqNpM3vnWVO49MOuWe8/6ncV7PQi1jxuvdW0J49+Lz7uH3UVlTcmXNVYS+uSn3aqC/l9/8Nvn+Pgryeihpinqfvg9NeQ99CKGiFqGv8Pz000+J0Hfr1i1tHVg7zn1L6IME6zHSFz4pv3GXOat3Nt2SU998JR+7H8/81Vdy/YVzToVnKwSDj369VT7+9VG56wS7ee91qTrbZOc338nOT3/v2bTdEzpXE/oW3sjdXbqFaX4v3z3S1YcPCUJfMck1qpiZ3EcQEULFKULf+nDlypVE8FMbi+vqwNpw7ltCHyRYl8c7Z6SzYocnfOn4g+y9n76Cp3ekzsK17YJi9L7s+q23jpc/yK5b8ZRzry70GRifW9o1uff/gw8WQh9CCBWpCH3rw8OHDxOhr6+vT1sH1oZz3xL6IME6zukbaaqSnb/TjZB9Ir/7ryq5a29/kM6M9J4/IL/zLPqStsm7uUJomfyze+TQ5BP55z+e1J9/taFv3ni/Hp9/PdSnrwsfFIQ+hBAqUhH61od4PJ4IfaFQSFsH1oZz3xL6YEMx7r2xl0kmcxgdmwz4GqderucPzoyEytyhz7vqKHyoEPoQQqhIRehbP3788cdE8NOVw9pw7ltCH8AaiVxJHSHMsFUEfHgQ+hBCqEg1MDBgbiYetAFXK1GOjY1py3REIhHp7e0123BduY5S9Whubk6EPt15+KzW5uHct4Q+gNWgtn74RP75N97FYT6Rndc8cwXhg2Xo6dOC9RkIfQghVEANDw9LNBoN3ICr+WiqwdeV6VCN/dDQkNl+68p1lKpHZ2dnIvSp32Xuugo+q7V5OPctoQ9gFXjn/9l4t4iAD5uRkVjB+gyEPoQQKqDUSpKqAx20AZ+fnzfRlelQ51H1M51PR6l6qFFVJ/TpfgkWy/vwY6M81N8VhD6A3BlrOCC/cIe9X2+TXecjMkbgAxfT0zMF6zMQ+hBCqIBiTt/68ezZs0ToY5P2/OPct4Q+gDUw86ZAi8NAKcCcPoQQKlIR+tYP9fk6oa+np0dbB1aPc98S+gAACgOhDyGEilSEvvXFCX2PHj3SlsPqce5bQh8AQGEg9CGEUJGK0Le+EPoKh3PfEvoAAAoDoQ8hhIpUhL71hdBXOJz7ltAHAFAYCH0IIVSkIvStL4S+wuHct4Q+AIDCQOhDCKEiFaFvfSH0FQ7nviX0AQAUBkIfQggVqQh96wuhr3A49y2hDwCgMBD6EEKoSEXoW18IfYXDuW8JfQAAhYHQhxBCRSrVpo6NjQVuwFX7q+roynRMTU3J5ORkTr8QStkjW+jjs1qbh/q7Qp2H0AcAkH/+Ho8XrM9A6EMIoQLq8ePHEo1GAzfgoVBIYrGYtkzHwMCAhMNhs/3WlesoZY9soY/Pam0ezn1L6AMAKAwDA4MF6zMQ+hBCqIBS39ipBjloAz4+Pm62w7oyHeqc6jWqDdeV6yhlj2yhj89qbR7OfavrM0zOvJEXf58DAIA18PLlRMH6DIQ+hBAqoJjTt75kC32wNpz7NlPoGxmfAgCAVTL6crq05vQNDMfsvyGEUG6ae9Il10Jd8mTaPlAEIvStL4S+wuHct+vZZ0AIoQ9JhewzrEvoG33xUnoHhqWlo1v2fHdKJqdmzL8jhFAuij9okoozTdI8bh8oAhH61hdCX+Fw7ltCH0IIFUZFH/qqr9w0w54T+o6du2r+qcIgQggFFaEP/CD0FQ7nviX0IYRQYVSUoU8FOhX21Kiewgl6Ds5In/rzeuN98+8IIZRNhD7wg9BXOJz7ltCHEEKFUdGFPhXk/j45ZYa79r/1mcfcwc8JfCsrK3L4LzVy8cYdc65ftvl+nSc/l0+3VUun/XNScan72ij7uknG7COmVqalreaI7NipXqcol637LkvblF3u1spr6b95Kr3upPczeCKHVfnJJ7LQXydldv2ym3GzdOzmQePng1I3/lp6aipk62f2+T7bI7uvRmR2xazm0juJd9TJ7i/LbV+Dnftkd023xD11k+c23tfZg7Jlu1V/S/kpaTA7wG/lqfEetrk89zeNy7L56lQtT3bLiX27ZIvLc//NqOb60IejFXlSf9MIVM3S/so+5Nb7qNSeMcqv9ElyOp1x/3aH5UJNyHideq3B2Qa50BiV6fd2FVvWudvlyfyohC7Z9S/2GP96bb1/I9EHrXLirH0egx+utEv78KJdwVIy9C1KTNWvcuqH5HQo3Vfp/cSQhK42yA/2eVXdE1fD0juZesMnzv08Lu3XG+y6xjXb5asVoW99IfQVDue+JfQhhFBhVFShr+tJxAx2/+dotRz4n3Py1x8b7RIrDKoyR7HnL82fL1xrMP88WXPdLklXbqHvtTQcUvXLpeyk0YkLd0tb02UpU4Fo+xFpmLGrmYpLQ8UuM/xsO1Ajda3dUn/1lF13j1T2vLXrKdmhb98R2b29XLYdqpbKqhq51PfaLLWCmRGgKvcZYeyIVN7slOabNbL7C3Utn8uOK6NmPUdjNyvM459+YdVtC7fImQN7zGNbqyIpgS3l3F9XG9fZKXVVR2SbCn9l1XL+7D7zPGeaulM893ek/n9cHqyTHeo1nx2U/VdbpK21SSptzy37jM+Q4PfharDDDEanH6R/M7LU1WqGoOqOOfvIirw0Q5IRjC40y7UHg9Lb3S+hWissHbs1Ikt2TSUnUFbXqvotUhvqkGv3RsQ82/u43L+iyo3X1XZIc+eQtN9rldNmoAtJ7eNk8HOCWW298afj+7BLLl60X+/xlec9clpd45kGqQ71yKNu49yNzXJMHTvXLpEFu54h59zVtUYoPdskF9U1hvrluV2+WhH61hdCX+Fw7ltCH0IIFUZFN9L3t76I7DNCnwpy+4+dS8zd84Y+52fFJaMTNzM3b5ekK6fQN35bdmhCljpeXlYhleHkWMVs8xHjvLtkf6tnOcBFI+CVGef9sl6S44926DPqH04Jg5asYGaUf+sJTytROaHOtb1GeuxDshSV82q0zVtX3krbcRVCjXDq9K8NJc5d2SmufqostJ+yjhvX+dR9nsVO2WvXT4RH5zq+rpOnqQMoiQDqDYnoQ9Ko3FAjbe4ROFNL0nVdBadW6XJuvqXncudKSH641CMvU0bXFqX3hhrJa5Z21z8pK/QZoaw+mnL/Kk13NJtlpx+kusp8VGrV9dR0JYKXFcyMY15fIzg2m8HP7ftOoneb5QcjwDU/T/02Y6G31Qy4yRCb5dxrFKFvfSH0FQ7nviX0IYRQYVRUoc8d5NSjm87f1fw+p8xdx1nkxSGTcgp9g5dlqxFgnMcuM8t+7b4WmbWPuLVsBqpdcmLQPuCEvkPt2vpOMDucSHZJPb2iRtMOSt2EfSCLnFG9S655S9Yx97XYmmiSMsNzmzfg6j6XnmrrHP32zykalfPlmd8b+jD0/J4aqWuQO+4nrReG5KIKQ9eHUkfRMij5mKR9wFDi0VHPdyvGDSx3aoyyC2GJaYLWXHRIertHJW4bO8Gs9nH6kPScGR5DciNiH8imcWsE8ERLso2wzh3w9TmI0Le+EPoKh3PfEvoQQqgwKqrQp0b1VKh7GbcmBr1d+lluNLWmBDtFxV/+KoNRK6j8vLwsT4Z+Ml+XSTmFPmdEy3m8c3BcFnS91aVO2W8Epi3f35Y29Qiol2vHzXlvu5utxzcToe+kfpaPFcz0wS5bmSy9ldkXUdOz/mp14tFMd3jM+Ho79KUH3PTPxQmelfc17zXcLpWq/p8uizYTog9DsS45ocLQveSNthRuyRi0TC0abcizUSOcWY9lVl9QAU/Vt8sNJeb02T8ntDBoBcpbI/aB7EoESt1CLo/b03wTer8kC9MTEjWuUT0OWms/hlpRH7Ur+Jx7DSL0rS+EvsLh3LeEPoQQKoyKKvTppBZ1UYu1OIHvz0eq5FFPbtEi54Vc5qJSV7knuViJgZpnd8b1aKcTmJzyTCQDVX5D30K0SfaXuxZxMdhSdlDKdllzDPMd+qzP0A/dZ4w+HM1Ju5pfl3ikckm6rhk/n+2QiGckbmG4Ry7aAS/BuSY5bS/sEij02SNuunmEOuUc+uafS3NiURabqpCcuGQv7LIOoW9gYEBisVjgBryxsVHGxsa0ZToikYj09vaabbiuXEcpe2QLfXxWa/Nw7ltCH0IIFUaF7DMU7PFOtYCLWtSlqTWcCHveRzn/53ydOTLY+OCRHKm+Yh7LpJxDn6PltxIfiViLs9irbe5vt+fjzbXLbuPnrecjMjv3OiPJUcI8hj4jrJWbi7Acl/PhUYnPvU3MvbPq5j/09Z+35grWT+jfp0XyOtCHqek29Zhkg9xRg2/2SNwPDd75sX3WAinnWuRO97jEpxfFyYRWeAoY+qb7pVp3/gzKLfRNyf1LyjckF+4NSWxiThZ+tovssLkeoW94eFii0WjgBryvr89s8HVlOlRjPzQ0ZLbfunIdpeyRLfTxWa3Nw7lvCX0IIVQYFbLPUJDHO2/caRX3vnwq7DmPfTrBzj2vb/+xs3K+7naAxztPSXPaY5r2XLRMoc8tZ3GTxLy1qJz4k/Fzhjl96cpf6IvfVgun6OfXFSr0OYvW6Of0IWTLDnrH7o7b8+Q8c/wMTbeqgBSSG4Ppj3zmFPoyLh5j6f3rOZmbfiNLdqLMKfRNWMH0h5AmUK5j6JuamjI70EEb8Pn5eRNdmQ51HlU/0/l0lLJHttBXTO8jGxvlof6uIPQhhFBhVMg+Q95Dn9qP7/SlG2aY+78na+T4+Tq7JH31zp6Bp4ngp8gW+qyQ9LmUe8JNvEkFmdRwE286Ltt2VqQHJHsOn3tFy9jVfWYQ0q3G+fTKQdm6r0baJu0DeQx9GQPYihFivzQ8DJ98hz5Z6pb9anQxbcVQQ0Yg3l+2T3bfiDLS98HLXq3zbItcTHnUM6nEoine0Pd+3FqYJXDocxaPCUltr2dJWedcZzvEiWY5hT5nFDEt9K3I87vM6StVsoU+WBvOfVuqoW/2WUR6Rl5/2L8Dl6elPxyVsSCrdiGE8q6imtMXiY6aAe5u29/MP2/da7dLkqFPBUOl6dl58+fbLR1SdbneHB3MqJl22W1uSF4uZZV1UnezXg6r/eXKjsjuXZ5wk/bo5LQ87WuRSlXPCFqVfa73thSRSnM7hT2yu6bFaPCnJTbYKXXHVRg0jqesZpnHxzud9+O+xnCTHN5VLlvLCjOnT2nMDs/WXn9RiU2OSk9TnZSbC99oVgdFH6bsAKWobnPtHeLolRWoko93Tkmsu0dqjZB27FwOc/qUFkbk2jlVHpLqxn55Ep2Q2JN+uWbvvZe+rULA0KfmJ6p9AV2Pd8ajQ9J8wwh8xjWu15w+Qt/6QugrHM59u/lD37g0VNWY++hWVrW7tl3KrNn7x83fjYry27rnDj4EjcoZsy+g+iY10hMk+M1F5JLzWV+LsPo3WpWed+SyL+6cPLpq/P6uapb2Vf++zsc5CqOiXMhFPc6pAl3/U2tVPvfjnCrcOcHv1MUb5uOfQaQWPtlrr2xpBZfL0jalDzfeuiY7D8oJ90IujhZH0xZ9+XS7ES7Pdks8ZSAj3wu51Mtue56hheFZE5GnZt3ChD6lePhyYn6jw5byU1IXTR/tRB+o3tuPXaptFqyFeNO0MNwl1WadJKcbRyVmhqccQp+SdsGVJrnWa7UTjnILfYaM895Rm627z3sxLJHh9Xu8k9C3vhD6Codz365n6Hu7tCR/ezwoDx71SF8kKq/feHf61Mn+XW0SbHEy52kik6rV7tuSe9jcXIpIpfnluqJC6hJPOWWR3QcxX6PpbyAURL59hBQ9l5D5RfFNubbq6Ur5OIehWL8RVjvkUR7/sRdl6FNSwU/JCXzueX7q74tvl8zwNzvvbIkQTMuL7sVVsmv5jb1AyZsA72f5bXIxkwyr0+df72TBXkQl6HvKlxKfzeJm+oYWFZeM+3dazbubk4XFPPyjUds/mOdLLgyTD1lzAw3m1v+ZJULf+kLoKxzOfbteoS9076F88/3pRL9B8X+OVkv3kyG7RiblHvpkZVrarhphraZFnnqeNA+uVfhuMi1EW+SMEVrP674g14nQh/Kg3EKfoZ8X1/77PB/n0H3ZvEYVbehz1HD/kZysuZ4If86f86+DfGOHEELFK0Lf+kLoKxzOfbseoa/+bpvZT1ArgM/Mzcv7lRV58TIu1xvvm8cHh7N9tb5R4av4Q1/OIvShPCjn0LdZROjLLLWFg2qsEULoQxGhb30h9BUO574tdJ/h1fSs2Vfo6E4+d/Vs/O8Sf2WNPv3Y+MAc8VOPfurlCV9qFO/sQdniPLq486Acvj+esmCLNYXCKk+dLvFO4h11svtL95665bJ1X7XUDyWfUnK/PpXU8Lc82S1nDu1LXovmXJY872ExIme+tq9BTTF5US87nPI/XRbvE2rWFk1W+bYrwbbEyRpaV15L/81TssOZGvLZHtl/c1QWCH0oD0qEvvdxaXdP9TjbJLVtz8U7RJQpJL6fGJJrV1xTOi60SvPwonb6Rvo5olKrXlMflffP+uSiveew4odL7fLombuNs+t6cU0ZWa1KJvQhhNCHJkLf+kLoKxzOfVvoPsOdB51mqHv3PvmQ9/1HPWYQVNNG1Mif+vvQyDO71Ct3eDkllVXJAOTGvWBLptA3dtM11y+Nctl73wprQULfQk+NbEuEvXRSVydPfQ/7j7rqmusK2PP2zWN75Ly1fIIteysrs2yfnH9hH/ZVptD3VjpP6j/D3ecvE/rQmmUFsBaprTeC1oVmufZgUHofdslFe0G3Y7eiKcFPG/qe23P1qxrkQqhHHnX3y53rVtirvZFD6LvWIherQnL6epe0J86h6rZI17xdVSbkUahDrl21AuqJq2ohGoMOzaIeOYrQhxBCRSpC3/pC6Csczn1b6D7DlZt35ejZWvunpB509srIc6vXpub6tYZ7zb+nyx1eDNTq3FVNUn+zRna7F3hzjZBpQ5+zzZF5jgo5PzgtC4tvJT5Yb60Q7jrH8nhE2sJ1sts+x6fbjsiZcLdxbNRa0XLJuCa1L7BdvqOqU55OTsvT1hrZkQiC7hW0Pe/BYNuBanORmMON1sjdbFMykO646urNukffvqzPYUGZDKFv8LJsTRxX195ivK9uqVejp67jhD60WlkBzOBSj7xMmdC/aJSpEbeQ3Igk1w1ID2wT9nZRRrB7nrq+wMLjdjlmhraAoU9tIfU4dWLvtLlN1U053TplH7HF450IIYQcEfrWF0Jf4XDu20L3Ga433DdH+v7xj3/YR1KlFn8LPtK3Sw6HXStTz7RIeaIsuUKlNvS5w1N5nTx19SVnR7rNLZ5SF37LEJoMWXvz2mX7WlK2NkgZJTzabT92mhr6vHsUm3K/F1fgcnulhEFf6a+/p8o59rlsPd6dMuLSc9Y1AkjoQ6uUFcAa5E7KiLWtV33WnrsNyceU0wLbSJcZ7E7c0420zUm72nM4aOi72CNp/9oWBuWiKvM+vknoQwgh5Ei1qWNjY4EbcNX+qjq6Mh1TU1MyOTmZ0y+EUvbIFvr4rNbmof6uUOcpVJ9Bjd6pQHerObnHr1dqcRdVR60Arpc7vJyS5pRqcblk7tmrSG6DpH+807VvneKzXVJeWSPnm7ql/4Vule/Moa/zZPI8u5s98/fGb2vm57nPdUQaNNuliryW+n3eOu+kudI5pt9CKrN01+9+jDR1KylT7lFAQh9apdIDmFtxaVaPebrCmLf+nDkSp0YD7QMePb+rHsMMPqcvXRnKChD6JiYmCtZnIPQhhFAB9fjxY4lGo4Eb8FAoJLFYTFumY2BgQMLhsNl+68p1lLJHttDHZ7U2D+e+LVSfoaP7iRnmbjS12kdS9e7d+8TcPjXvL7Myh6/UEOMX+tQWBvVS/plT38NnB+VMnzvABQt9acFJ+7ps7yEp96je/nbj/8FSp+x3XucZUfSXX+jLvFewWU7oQ6uUGcCMUGdt9ObVlG/o89tnN9eFXNK1fqGvkH0GQh9CCBVQ6hs71SAHbcDHx8fNdlhXpkOdU71GteG6ch2l7JEt9PFZrc3DuW8L0WdQG7DrAp8a1Tt04oKcunhDvq2sMuvU3W6xSzMpf6HP1Mo7GRvslLqaatn99R7XypuKCqmfsetl8XWHPjOcueUOTttrxMqEwUKfzLUn5xGefCLLPdX2az6X8ibviqB+8gt9n0tln3kwKUb6UB6UHsDcCjrSl3mj9WIa6Stkn4HQhxBCBRRz+taXbKEP1oZz3+a7z/B4cNgMc2oPPqXJ6VlzlU7nMc6qKzfl3NWQ3LzbJjHjuL/yFPqW3srs3GuT+IxrXuDyuFxyBaHkyF1mX/28PUvuBVk+PdRuj84FDH3uxzn/dFnOJ7ZqcIfRoNJ7pszpO5v6/NzTK/sSZYQ+tFpZAaxB7uhWHZruN+f0uQNXWmCz5/Qda3puH3DLtchLEYQ+5vQhhFCRitC3vhD6Codz3+azz6AWa9l3pFrUip3Owi21t5rNsKd4PKjrgPkpT6HPPYpVVi1tM/Z7nOuWw4m5fu7tEty++6QyPC6xZ3Er4M20y27XKp17b0YlrsKkeyVQg/0dzucYNPQZGbT9VOL1CRLhMRfpPZc73Oc3rv3qE4nNjUvn1eMpq3oS+tBqZQWwm/LDjdStGURW7FE6taJmcnJuemCbk/ZadaxJ7gy7V958J89bnC0XChj6etMm+K5ahD6EECpSEfrWF0Jf4XDu23z2GdQ8PRXu1OOdzqqcir/89Ue7xmqUp9Cn6n7r1NWz9eQTVyf1tTQc8tRxbwtx3xOSPKSeK3joS9lawibtEdJAyuSZ+XMoO16dXISG0IdWKTOAXWiRi5duyrFrXfIoMiEvI4PSfMPeqL22X6btukrpgc3Q8365cE4dN8JjTYvU3miRE+rnc+3S3FSgOX2xLjmhjp9Tewv2SPsT7YpLOYnQhxBCRSpC3/pC6Csczn2bzz7DysqK7P3htNRcb5DbLR1m4FOjfl1Phuwaq1G+Qp+hlWlpO1shW72LuXy2R/bfjMqs9wv+uYic+abcVbdC6l1be80ONcn+cnd5pnPlEPrknbS5N29PW7E0qLJ4mp+De1++cik72y3xcRZyQWuXGcDUnL35UQnZG7I7nA5FZTpl7z5dYLP185T03muV6gsNcsygur5PojMrhVvIRVZkOtwuJ6qsa624Niir+qfnEqEPIYSKVIS+9YXQVzic+zbffYbWzl75s71Ii2JgOPh24uund7Jgz++bfRPgvZrzAXXbOlhaXrTPperYx9aisRuuuXWuOYMpcwkz4hcqXVqxPoeFfFw0QlqtyJLRxsxNz8nCz/ahNcpvdc+1y/h3Mf1GljzhdDUi9CGEUJGK0Le+EPoKh3Pf0mfYLHorsb6I9ITrZa9rP8HkvMAChD6ENqneP+uTUIdrlD4hZ3P2dnmSh1BWaBH6EEKoSEXoW18IfYXDuW/pM2wSubdrcPjW84ilawXSzORntBGhjZOzkMtNOXFrUGIT1kjh3LMRuXPNmhd4rGHUrru5RehDCKEiFaFvfSH0FQ7nvqXPsDm0HE7uyffp9nIpO9kuMdIb+lD1fkZ6Q85KnW4a5MKD555VQTevCH0IIVSkIvStL4S+wuHct/QZEEKbVj8vytz0hESfjEs8T/Ps1lOEPoQQKlIR+tYXQl/hcO5b+gwIIVQYEfoQQqhINTAwILFYLHAD3tjYKGNjY9oyHZFIRHp7e802XFeuo5Q9soU+Pqu1eTj3LX0GhBAqjArZZyD0IYRQATU8PCzRaDRwA97X12c2+LoyHaqxHxoaMttvXbmOUvbIFvr4rNbm4dy39BkQQqgwKmSfgdCHEEIF1NTUlNmBDtqAz8/Pm+jKdKjzqPqZzqejlD2yhb5ieh/Z2CgP9XcFfQaEECqMCtlnIPQhhFABxZy+9SVb6IO14dy39BkQQqgwYk4fKqDGpaGqRirvj9s/I7R5NfekS66FuuTJtH2gCEToW18IfYXDuW/pMyCEUGFE6EMF1BM5rPb4OfnE/hmhzav4A7UHT5M0F9F3FIS+9YXQVzic+5Y+A0IIFUaEPlRAEfpQ8YjQB34Q+gqHc9/SZ0AIocKI0IcKKEIfKh4R+sAPQl/hcO5b+gwIIVQYEfoMdZ40gsm2aulcmZa2swdly3b1s8HOfbL/ZlRmV6x6KZqLSv3JCtn6mV13W7ls3Vct9dG3dgWX1HlrjsiOne66l6Vtyi53aSHaIof37ZItZj0D8xpGZcEuN7qmUve1cby8Xp7aRxw9vbLHfE3Zzbh9xFFUTvzJeM2hdpm1j4i8k3jHZSkvK7ev6XPZ8uURORNOn9A0dvOgUX5Q6sbj0lC5x7424/Oyy2XltfTfPJV8f9vLpexst8RXCH1IaUWe1N80AlWztL+yD7n1Piq1Z4zyK32SvPuM+7M7LBdqQsbr1GsNzjbIhcaoTL+3q9iyzt0uT+ZHJXTJrn+xx/iXYuv9G4k+aJUTZ+3zGPxwpV3ahxftCpaSoW9RYqp+lVM/JKdD6b5K7yeGJHS1QX6wz6vqnrgalt7J1EYjce7ncWm/3mDXNa7ZLl+tCH3ry9mzZ83Q19LSoi2H1ePct4Q+hBAqjAh9hqzQd8roFO6ST784IpU3O6WtqV72f2MFoq1GaEmGLkOLRpgpU68xwk1lvdSHu6X5ZrWUqQC4vULqJux6pl5LwyG77kmj02fUbWu6bNc9Ig0zdjWlwcuyVYUk4xrONBn1wp1y/nsryG09H7UrOeHOCGEpPnYYVK9PCXeG7POWN722D7yVzirrvFu+PiXnDa/mm3Wy/2vr/ZZ7QqMV+vbJ7kPG57PzoOxXi7NUtUvMLDXOddI4rs71jXOuGtn9hXHNZy/LfnU9hD402GEGo9MP0r/pWOpqNUNQdcecfWRFXpohyQhGF5rl2oNB6e3ul1CtFZaO3RqRJbumkhMoq2tV/RapDXXItXsjYp7tfVzuX1HlxutqO6S5c0ja77XKaTPQhaT2cTL4OcGstt740/F92CUXL9qv9/jK8x45ra7xTINUh3rkUbdx7sZmOaaOnWuXiKvRcM5dXWuE0rNNclFdY6hfntvlqxWhb325dOmSGfrq6+u15bB6nPuW0IcQQoURoc+QFfoMvr4tsWX7oKm30n92n1m2vyN5zfFWNaq1Rw73eEb1xm9LmVHXHdDUsR3GsR1XRu0Dtozj5WUVUukaWWs7blzD9lPSnDIA8VbaTu6RHYduS7/T4xypl23GOXc3OyHO0Fy77FbeZSqAGedw9U7TQqIdAtPC7Mpr4xrU6/fJ+Rf2MUNW6DOu7dsmGfOMei73VGc4V1wuOSGU0IdkVG6okTb3CJypJem6roJTq3Q5N9DSc7lzJSQ/XOqRlymja4vSe0ON5DVLu2tA2gp9Riirj6beg4amO5rNstMPPKPf81GpVddT05UIXlYwM455fY3g2GwGP7fvO4nebZYfjADX/Dz1H8VCb6sZcJMhNsu51yhC3/ry448/mqHv4sWL2nJYPc59S+hDCKHCiNBnyAl9h3vsA24tdct+9bhnZaek5EGt7McZj3fbPxuyA1b6I5de2SOC29VjpvahjLIf13Rd03L7KeM9HJGGHhUId8mJQbvAGQH8st4emXsnbUeNn7cd94RLWzMtUq5CnCu4WqHPfU5H76S5Ul3zKWlLGQKxZQRCQh9y9PyeGqlrkDvWjWhpYUguqjB0fSh1FC2Dko9J2gcMJR4dTXsyeULu1BhlF8IS0wStueiQ9HaPStw2doJZ7eP0f4BzZngMyY2IfSCbxq0RwBMtyX/z1rkDvj4HEfrWl4aGBjP0nTp1SlsOq8e5bwl9CCFUGBH6DFmhzwhMyS/mXbLD2J8uS799JKl3sjA3LU/7uqWttUnOVB605rt93SRjdg1ZMQKa8yioerxzcFwWMvRuZ5uPWCHJfLwzIk8n32YMmj3qUVRXQDTfg+lrBcJtzsiiPQKY+FlG5Xy5UffbJs+Ii6O4XNqV+h4Sc/pSHidVssNnpnMtdfJ4J0oq1iUnVBi6l7yRlsItGYOWqUWjDXk2aoQz67HM6gsq4Kn6drmhxJw+++eEFgatQHlrxD6QXYlAqVvI5XF7mm9C75dkYXpCosY1qsdBa+3HUCvqk1+cZD33GqTa1LGxscANuGp/VR1dmY6pqSmZnJzM6RdCKXvcv3/fDH0K9TvNXcZntTYP9XeFOg+hDyGE8q+JiYmC9RmKLPS5FibxKK3cu+CLYnu5bNt30HyUMyX0Kc1FpS6xAIrFlnLdoinW4ipliQVfDNSiKCdb5Kl3VM4cRXNG31KDXjIAOiOA7lE6v8VV7JHBQKHP71ws5ILcmpN2Nb8u8UjlknRdM34+2yERz0jcwnCPXLQDXoJzTXLaXtglUOizR9x08wh1yjn0zT+X5sSiLDZVITlxyV7YZR1C3+PHjyUajQZuwEOhkMRiMW2ZjoGBAQmHw2kBJxul7KFW7XRC3+joaEoZn9XaPJz7ltCHEEKFUSH7DEUW+lLnwSXlPMJYI9bTn++kp8pauGRHVYv0v3jtGrmzQ4439DlafivxkYjUXz2VCHb72zWrfRpafjMu/a1NUnnIDotf1stT92CI/dipGfTMOX6uYGcGQmvk0nxvKaOU9uicd7GXhHIJfT7nYqQPeTTdph6TbJA7avDNHon7ocE737XPWiDlXIvc6R6X+PSiOJnQCk8BQ990v1Trzp9BuYW+Kbl/SfmG5MK9IYlNzMnCz3aRHTbXI/Spb+xUgxy0AR8fHzfbYV2ZDnVO9RrVhuvKdZSyh/rZCX337t1LKeOzWpuHc98S+hBCqDAqZJ+hyEKfEZrSn98UUdsOqBG9RLCJSKX6eV+LJuj4hD63Fjtlr6qbMXwl9fSSWojFO6fODqPl9dKsQpl7LqAdtva3P7FCWUro8pk7qAlqmUOfz7n67dVICX3IkR30jt0dt+fJeeb4GZpuVQEpJDcG02+qnEJfxsVjLL1/PSdz029kyU6UOYW+CSuY/hDSBMp1DH3M6Vt/Ll++bIa+qqoqPuc84ty3hD6EECqMmNNnyAp9BprVKcduVphlyZUy7dEtTehbMB+lNMpcoS/edFy27fRu42DICVfOYixLETnz9S7ZZgQk7zw+a/XNPXLeMzXJmgO4S7aqOYMpC83YYazMKDM8vAvULHdY1+ndmkHp6RW1WmlqAM4c+pLzEMtueM61Mi316hrUeyT0oYTs1TrPtsjFlEc9k0osmuINfe/HrYVZAoc+Z/GYkNT2ep6Pds51tsP4F20pp9DnjCKmhb4VeX53/eb0EfrWn4cPHyZG+wYHB7V1IHec+5bQt54y+goV5fLpZxVSr/n9rtNs322prLotPdo1EBBCWRUJm9s6HQt5toDKqAl5pLZ46gj4D9RHhD5DVug7Ivsrd8mWry9Lfd+oxNRjmGrengotnjDYfz718c7ZF1Gpr6kwt0swR7bcI30TTVKuRgbLjsv58KjEzYVfWqRSLZZihKvKPuezSH9sVJ23+epx65zqGuyaCdmLtKjXpGzfYMgKaqpM99hqXOr3qT351CbqLdIzMi2xwU6pO25tT+HdfiFb6FNbM9R9q3ycc42b7+/MPuO9HDpiXR+hD7llByhFdZum5/DKClTJxzunJNbdI7VGSDt2Loc5fUoLI3LtnCoPSXVjvzyJTkjsSb9cs/feS99WIWDoU/MT1b6Arsc749Ehab5hBD7jGtdrTh+hb/1Rj8Y4oU+t5qmrA7nj3LeEvvXUqJwxF5r73OiL2Id8lLU/gBDKqrlOa/G6ikt9krbguFZRqfX0J9YiQp8hK/RVS+fiqJw3w5DVCCq2fd+UvojKyrQ0n0xdmOXTL45Lw3i39vHOhWiT7P3CVVex86Cc8C7k4iwQ465nhKltlZprMOVsyK5ZedTeyy/jVhMZFqMpq4nIbNpop08jvzwu9d6FavbVG9fMQi5Io/f2Y5dqm4VX9jGPFoa7pNqsk+R046jEzPCUQ+hT0i640iTXemfsCpZyC32GjPPeUZutu897MSyRYR7vLHXU5uxO8ItEIto6kBvOfUvoW2ctv5XZN8E/X0IfQmvRiiwZbVxiDQBfEfryrkTos39efvNaZufcC7Rk0JLRWBr1Zucyb63glnNe3wZWNcLmeY1rCHLitSjhZbyH9ClUucn5PHL4BYJQZr2ThWk1785oIBfXenMaUts/mOdLLgyTD1lzAw3mgj2skU8R+jYG9XlXV1cT/PKIc98S+ja3CH0IracIfXmXN/QhhFAxiNC3cQwPDydCH8Fv7Tj3bXH3GdJXvzalnqypOSI7EtsxlcvWfZelTbebzMpr6b95Kr3upPczSD5Js9Bfl1gRvEwzVz+bMr2X5cluObFvV+IJni3lp6Qu+pbQh0pe2Z7M0T1ZlPlpoylpVlNJ3IvJZdpK6v0biT5olROJJ5xCcjoUlen3hL68i9CHECpGEfo2lr/97W8pwa+np8f8XaerC9lx7tvSC332wmpq3vtJoyMZ7pa2pstS9plxbPsRaUh5yjwuDRXW3P5tB2qkrrXb2uLJrLtHKnvcWzzZoW/fEdmt9gk+VC2VVTVyqS91fr+ftO9l3F6L4LM9srtKXXOLnK9U00GOyIkqNfef0IdKV+sf+haNc1hTRX641Cp3Hg7JowcdUn1BLfjSYa54TujLowh9CKFiFKFv41GbtLuD3+nTp+X27duM/OWIc9+WXOgbvy07jHC2Q+2p65ZxvLysQipdc/udFbn3t3rm+6v58WrBlS/rJbnDjR36jPqHU8Jgbkp/L/Z72F4hdZ5O70K42lpYjtCHSljrHfqWHrebi78dM4KdexFFeR+3Xk/oQwghROjbHKjP/8cff0wJfwo1708FwNbWVunt7ZVoNCoTExPy+vVr7Xk+ZJz7tuRC36C1X63/Y5f2a7V7AIssm1tCuffrtUNfgL1+syntvdiLwO24qlt1yr5GQh8qYa1v6FuSrmvq9a3SlZL4bDmrnRP6EELowxahb/MwPz8vDx48kIsXL6aFP/Dn5MmTJsePH5f/+Z//kaNHj8r3338vFRUV5n2+mZRT6FuJyglzWwT78c7Bcf0icfbevVu+vy1t6hFQL9eOm/PrktszJef0rUXe9+LsvZtpCwdr32BCHypdrW/os1czz7SFw8Igj3cihBASGRgYMPeNC9qANzY2ytjYmLZMh3pEUY1QqTZcV64Djxnzkc+2tja5dOmSNuBAOiUb+pTmolLn3dao/IiccW/bNNEkZa7yTCRHDAsT+vwWamEhF1TqWt/Q57dQS34Xcilkn4HQhxBCBZRaQVI9Mhi0Ae/r6zMbfF2ZDtXYDw0Nme23rlwHHqkeagRwcnJSnj9/bv7/UucNh8Py6NEjCYVCcvfuXfPvQWhpaTF/CavHRXXlOorF4+HDhyYqLKsRU1Xnzp075gb4Cwu65542TjmHPkfLbyU+ErEWZ7FX29zfbs/Hm2uX3cbPW89HEls26UiOEhZypM/9GGmqGOlDpa4NGemr7Rfvdtum8jzSV8g+A6EPIYQKqKmpKTNsqAZctbN+DbgKIApdmQ51HlU/0/l04IGHHzoP9XdFMfQZrKB0SprTHtMclfPlWUKfW4udsleFtsScvKic+JPxc4Y5fekqTOjLPgfxtdTvU/UJfah0ZYW+BrkzYh9IyJl/pwt9LZo5eeNy54Jf6JuT9lr7nLoNhAc7zEVe8hX63H2GIKEvl7Y9LfSpCeyqAV9eLvSO4wghVPpSbavzfH6Q0AewWXHu22IIffHbFUbw+VzKPcEo3mTNh3OHvnjTcdm2syI9JNlz+D6t7BSnRxS7qrZD0K/G+fTKQdm6r0baJu0DhQp9zhzEP1VL26J9zNZyvxUICX2opNVvLZ7iXU1zIdIhJ1QA84S+6VYVElWQc7cHKzL9sNk8nj30Ga/vsOqdbvF80fJ+xg6E+Qt9BZ/TpxKi04ArE9WAv327+uWFEUIIWVJzxwh9UAo4920xhD6ZaZfdah87tThLZZ3U3ayXwwf2yKdlR2T3LuO4e6Rvwt7zruy4nA+PSnxuWp72tUilqmcEvMo+13tbikilClzb98jumhbpGZmW2GCn1B1XYdA4nrJSZ4FCn6GFHntrhi+Ma26NSuxFVJpvVsuO7ftk9yEe70QlrvejcuOcFbaO1bbKnQc9Erqugl2zVF9JD33yql+qVTBTwe16WJofdEltbYNUnDPq+z7eaUhtzXDJfn2oX55EJyT2pF9CV0JSUWucQ527mEOfMkEIIbR6qScmnNAXj8cJfVDUOPdtUYQ+QwvRJtn7hQpMFlu+vixtU/o5fd66JjsPygn3Qi6OFkfTFn35dLsRLs92S3zFrmOqcKFPabavLjHv0LqGPXK4fZqFXNCHocmoXFOBzQ5zFRdapHlYbaKufk6fv7cw3CMX1KOcTv2LHdI7ae+z5xf6lH6ekPbrRlB0Xq+40iWx+fwu5LIhoW9kZIR5fQghtAapttUJfap9JfRBMePct8US+hwtL7oXV8mu5Tf2gixvAryf5bf24i1vZTkl7PnJDoNZSQ95er2TBWcBGWbloA9Ri0ab9Dp4+/P+9ZwsLOb0DzZVym96zmgHAzYqOWpdQp86qRP61ARC1VFRjTpCCKHc9fPPP5tfnj179sycK03og2LHuW+LLfRtPo1LQ1WNVGalXWJ2bYTQh6OChz53I64eQVJmKvSpJUNfv3Y2GUUIIRRE6rFOtTWAWkZZdYjdoU99yZavBhxgPfH2Fwh9CCGUX61r6FONuOqgqG+nVYdFdVzU8ZWVNQyFIoTQByK1CJbaXFV9aaa+PFNPTqgv09QyzIQ+KGZ0/QVCH0II5U/rEvqceX2qY6I6KKqjokKf6rgMDg6am/8pY/XIkgqA//jHPwAAwEB1eNXm1KrtVIHPGeVTm32rL9FYxAVKAefeJfQhhFBhtG6hT53YCX2qo6I6LKrj8vTpUzP4PXnyRHp7e6W7uzvB3/72NwCADw53O6jaxcePH5ttpGovf/rpJ7PtHB8fZ5QPSgbn3iX0IYRQYVTQ0Kf+45zMO9qnOjCq86IWIxgeHpZIJCL9/f3mcdXBcejp6THp6OiQtrY2sxPkHPPj3r17Eg6HtWU68MAjCHjg4cdaPNztn0K1i+qLMXfgc56WUO3n5OSk2XAHCX2qA63q6sp0qPZanT+XXwh44OGHzkP9XaHOQ+hDCKH8Sw26qf5D0NCXS9ueFvqcxlw19rW1tWZHxxnxc4c/hXqMyU1DQ4Ncu3bN/BbcW5aJM2fOyP3797VlOvDAIwh44OFHvjxUW6ge51Rto2oj1Tw+1QirhlsFxNbWVnPEL+goXygUMttbXZkOdQ3KR3XAdeU68MDDD52Hc/8S+hBCqDBSXySrqXVBQ18ubbsZ+hTOCd2jfaoTozozqsOiGnXVmVEnVh0bdUFu1Dfcat6f+iXhPOIUBFVfdbp0ZTrwwCMIeODhx1o83G2fag9Vu+iEPdVeOvP41N9VmfoSLWjoU69RHWldmQ71S0G9RrXbunIdeODhh87DuX8JfQghVBg5TwkFDX25tO1poU/hDn6qs6I6MAqncVeo1T0d1MUBAHwoqIDnbgOddlG1kaqtVO2maj9VO6ra06CBD2Az49zDhD6EECqMCj6nz8E5qdNJcYKfE/7UBTjhz0ElUgCADw13O+h8MabayWyBLx+NNsBG4dzDhD6EECqM1i30KZwTO50VZe4Nfw7qggAAPlTc7aHTRqr2ksAHpYhzHxP6EEKoMFrX0KdwTq7whj93AAQAgGTQUzhtJoEPSg3nXib0IYRQYbTuoU/hGDi4OzIKdVEO7g4PAECp427/FN720dt+6tpYgGLDuZ8JfQghVBipPsW6hz6FY+LF28EBAPiQ0bWTCl27ClCsOPc1oQ8hhAqjDQt9Do4ZAAD4o2tHAYod5/4m9CGEUGG04aHPi2MOAACEPPgwcO53Qh9CCBVGmy70AQAAwIcFoQ8hhAorQh8AAABsKIQ+hBAqrDYs9DU2NpqbEOvKdEQiEent7TV/GejKdeCBhx944BEEPPDwA4+1eRD6EEKosBoYGJBYLBY49OXStmcNfX19faaxrkyHMh0aGjJ/EejKdeCBhx944BEEPPDwA4+1eRD6EEKosBoeHpZoNBo49OXStmcNfc5y5LoyHeqCnOXLdeU68MDDDzzwCAIeePiBx9o81N8VhD6EECqMpqamzC/dgoa+XNp25vQBAACAL4Q+hBAqrFjIBQAAADaUkgl9cxG5VFUjl/pe2wdQMSl2v0Yqq9olZv+MUCbNPemSa6EueTJtHygCEfoAAABgQymZ0DfRJGXbPpeym3H7wCpEcEzXOn0mnSc/l0+3VUun/TNCmRR/0CQVZ5qkedw+UAQi9AEAAMCGQuhzKR/nKDWt02dC6ENBRehLhdAHAAAAvhD6XCL0pYvQhzaZCH2pEPoAAADAl6ILfcvT0na2QrZ+pkKCwWd7ZP/NUVnIFE5WXkt/U7WUl5Vb9Q22lFXI4SbjNXYVoxspdV/b53PzdZOM2TVMzUWlrnKfbNlul3+2S8rPdkt82S5fhZYnu+XEvl2yxfHcuU921xjnXLErmHoih1XZySey0F8nZTutuinvNZdry+dnos5185TssK/p023lsnXfZWmb1N87s0NNsv9Ll+83Rt0pQt/m0Io8qb9pBKpmaX9lH3LrfVRqzxjlV/okOZ3uncS7w3KhJmS8Tr3W4GyDXGiMyvR7u4ot69zt8mR+VEKX7PoXe4w7zdb7NxJ90ConztrnMfjhSru0Dy/aFSwlQ9+ixFT9Kqd+SE6H0n2V3k8MSehqg/xgn1fVPXE1LL2TKf/Qkud+Hpf26w12XeOa7fLVitAHAAAAG0pRhb4VI4h8awWLbYdqpK61W+qvnpIyIwDuPlsjO4wQkRr63hphYpcVLr4+JeebuqWttUkOf22FjvLbTt3X0nOtRiqPGmHSOL7121NSWWX8fC0is3YNmWiXvWWG9/Y9srvK6BSGW+R85UErrH1RI52p/dJAWuipkW0qpH12UPZfbTGvrfLAHvPaPv3WCFeJ/qgd+vYdkd3b1XuvNq8vMc8up2vL42didNcbKqxzbTuQ+v9DXUtlz1u7nqWFnmrzXJ/u9Lzfssty4qhxnNC38RrsMIPR6QdGEvdoqavVDEHVHXP2kRV5aYYkIxhdaJZrDwalt7tfQrVWWDp2a0SW7JpKTqCsrlX1W6Q21CHX7o2Iebb3cbl/RZUbr6vtkObOIWm/1yqnzUAXktrHyZvYCWa19cafju/DLrl40X69x1ee98hpdY1nGqQ61COPuo1zNzbLMXXsXLtEkt90JM5dXWuE0rNNclFdY6hfntvlqxWhDwAAADaUYgp9YzcPWsHEO5q32C2H/6RCgyf0TXaao0rb1AiZfciUER4vqVGsP12WfvuQqYyPMr6WhkOq/ilp9vSFnSCz42qOz5qtROWECmplRtDxBMaxG9b73N/hfP526Nu2Sw57glTO15a3z8ToyDYfMa9pf6tnGcVF43rVe/uyPrka55JxTP0/yvJ+CX2bQaNyQ420uUfgTC1J13UVnFqly7lxlp7LnSsh+eFSj7xMGV1blN4baiSvWdpdt4YV+oxQVh9NvfcMTXc0m2WnH3jus/mo1KrrqelKBC8rmBnHvL5GcGw2g5/b951E7zbLD0aAa36eOqq30NtqBtxkiM1y7jWK0AcAAAAbSvGEvlE5X+4JEi45gVAXTnRyHidsc/cDMwUc+3h5k24Fy3fSXGmcyxuWfLTcccq83r2t3hBnaCkuPeFu6Xzm+Nmh71C7a5TNVh6vLafPxHn8c19L+jUZWm5X72+XnBh0/+wOsi6tGO/PfCyV0LcZ9PyeGqlrkDvuf2gLQ3JRhaHrQ6mjaBmUfEzSPmAo8eho2lYLE3Knxii7EJaYJmjNRYekt3tU4raxE8xqH6eGOKU5MzyG5EbEPpBN49YI4ImW5L1tnTvg63PQhoU+1ZArM12ZDrWL/OTkZE4XhgcefuCBRxDwwMMPPNbmof6uUOfZ1KFvrl12q+BTlaE3NlIv27ThxNLy4muJj0SkLdwpdTX2I4jbDkrdhF1BKUPAsQJLuey91m28Pp1L36tHI49IQ3LAwFdPr6jHOCukbtI+kFV26DuZPrNoLde2ls9Eljplv3F8y/e30zxNrh03Hy/d3WyF0f7z6jHQTO/XDqeEvs2hWJecUGHoXvJGWAq3ZAxaphaNNuTZqBHOrMcyqy+ogKfq2+WGEnP67J8TWhi0AuWtEftAdiUCpW5w/XF7mm9C75dkYXpCosY1qsdBa+3HUCvqo3YFn3OvQRMTEzI2NhY49OXStmcNfaFQSGKxmLZMx8DAgITDYfMXga5cBx54+IEHHkHAAw8/8FibR9GEvowjTrYylMfDlxMLnzhs+aJCyr4MHnCcUcTseM7lo9wWLskc+lZzbfn4TJzj7nPocF7n935ZyGUzaU7a1fy6xCOVS9J1zfj5bIdEPCNxC8M9ctEOeAnONclpe2GXQKHPHnHTzSPUKefQN/9cmhOLsthUheTEJXthl3UIfY8fP5ZoNBo49OXStmcNfePj42aDrivToS5OvUb9MtCV68ADDz/wwCMIeODhBx5r8yia0GeP9G09n+ygpUgz0rfcV2MtHLKrRuoHx2X2TfL9WCEjWMBx5q6d6Hsts3OZeCvLGQZBdLJGvoKODmYOfbleW74+k+T/j4jGL8mC/Uhe9vfLSN9m03SbekyyQe6owTd7JO6HhlGr0NF4n7VAyrkWudM9LvHpRXEyoRWeAoa+6X6p1p0/g3ILfVNy/5LyDcmFe0MSm5iThZ/tIjtsrkfoU6N8KsQFDX25tO3M6QMAAABfiib0SVROqIVAvFsG2JptqjBCQ2o46alSQaJC6mfsAy7lFHAGL5tBST9vbnWywtrncrjHPuDWyjtZUKFp0fn8M4e+XK8tb5+J8/8jw5w+r7K/34h1LkLf5pEd9I7dHbfnyXnm+BmablUBKSQ3BtO/7cgp9GVcPMbS+9dzMjf9RpbsRJlT6JuwgukPIU2gXMfQx0IuAAAAsKEUT+hzRot2yeGwZ/GTZSM0qNUiPeHEmUeWFnAWO2W/uXCIPuDsuOHteo7LefXoo2blSVkZlfNf75LyU93aDmtGLXVb1/D1bdfWDJYW7EVPnPlwWUNfjteWv89EJHZ1n1Fft6KomrN4ULbuq5E2Zw7fTLvszvB+401WICT0bSbZq3WebZGLKY96JpVYNMUb+t6PWwuzBA59zuIxIant9dzEzrnOdogTzXIKfc4oYlroW5Hnd9dvTh+hDwAAADaUYgp9ia0Atu+RvVc7pf/FuPSrPeZ2GaHk0JH0hVzsUbDEo4xzRv2mOikv2yVbzZDoCThOENu+zzh/k9R1JHt+iccivzgiZ5oi8nQy6Z0a0IJr7LY1Ovnprmqpa41K7EVUmq8et/buK7ss/Ym+dLbQl+O15fEzkaWIVNr/P3bXtEjPyLTEBjul7rgKg8Zxz2qjYzet97vl68tS3zcqsZGI1NdUyNbtR2T3AeVN6NtUsgOUorpN81zuKytQJR/vnJJYd4/UGiHt2Lkc5vQpLYzItXOqPCTVjf3yJDohsSf9cs3eey99W4WAoU/NT1T7Aroe74xHh6T5hhH4jGtcrzl9hD4AAADYUIoq9CnNReTMN9ZG4g7bjndKfFz/GGK8vVq2matS2qjA2ByXNt2jjIYWovWy21nkpLxentrHlRaiTbK/PNVbbTR+Ipy2Bn1g6RZV2fZ9kzxNGfDIHvqUcrm2fH4msjgqdZV7rI3gE+crl7Kz3RJPe+rvncSaTqV6f1Yh56Nqw3j1M6FvU+m9/dil2mbhlX3Mo4XhLqk26yQ53WgEejM85RD6lLQLrjTJtd7UYencQp8h47x31Gbr7vNeDEtkmMc7AQAA4AOh6EKfLbXdgLlYSGLeWxY5c+TUwiLL9jEfLb/JXDfh7VoExZEVXrKTPq/NdX1BNkHLomzXlqI8fyay/NbyDbKgTcI7t8Vv0GaV8f9zWs27m5OFxTz8D1XbP5jnSy4Mkw9ZcwMN5tb4j2wVIvQBAADAhlKsoW+zKna/RiqrstPwzK6MEPogROgDAACADYXQhxBChRWhDwAAADYUQh9CCBVWhD4AAADYUAh9CCFUWBH6AAAAYEMh9CGEUGG1YaGvsbFRxsbGtGU6IpGI9Pb2mr8MdOU68MDDDzzwCAIeePiBx9o8CH0IIVRYDQwMSCwWCxz6cmnbs4a+vr4+01hXpkOZDg0Nmb8IdOU68MDDDzzwCAIeePiBx9o8CH0IIVRYDQ8PSzQaDRz6cmnbs4a++fl5E12ZDnVBqn6mC9OBBx5+4IFHEPDAww881uah/q4g9CGEUGE0NTVlfukWNPTl0rYzpw8AAAB8IfQhhFBhxUIuAAAAsKEQ+hBCqLAi9AEAAMCGQuhDCKHCitAHAAAAGwqhDyGECitCHwAAAGwohD6EECqsCH0AAACwoRD6EEKosCL0AQAAwIZC6EMIocKK0AcAAAAbCqEPIYQKK0IfAAAAbCiEPoQQKqw2LPSphlyZ6cp0qF3kJycnc7owPPDwAw88goAHHn7gsTYP9XeFOg+hDyGE8q+JiQkZGxsLHPpyaduzhr5QKCSxWExbpmNgYEDC4bD5i0BXrgMPPPzAA48g4IGHH3iszYPQhxBChdXjx48lGo0GDn25tO1ZQ9/4+LjZoOvKdKiLU69Rvwx05TrwwMMPPPAIAh54+IHH2jwIfQghVFipUT4V4oKGvlzadub0AQAAgC+EPoQQKqxYyAUAAAA2lGIKfbH7NVJZ1S4x++fNq3FpqDKu9f64/fM6aKZd9n72uWzZ1yJj9iGESlFzT7rkWqhLnkzbB4pAhD4AAADYUIop9HWe/Fw+3VYtnfbPBdWzdiNg1kjDM/vnnPREDm8zrvXkE/vndVC0TrYqz+010mMfQqgUFX/QJBVnmqR5Hb9TWasIfQAAALChEPoyqKfa8PpcDq8qQW1A6DO0vPhaFpbsHxAqURH6UiH0AQAAgC+EvgwqwtCH0IcgQl8qhD4AAADwpfhD3zuJd9TJ7i/LzZBmsnOf7K7plviKXcWlhWiLHN63S7a46u6/OSoLdnkisHnJKcBlDn3Lk91ywuOf6VqVZoeaZL/rvW355rK0Tek+C43nRJOUGcfKbsZltq9Oysuc85TLtkP10jNn10PI1Io8qb9pBKpmaX9lH3LrfVRqzxjlV/okOZ3O+PfXHZYLNSHjdeq1Bmcb5EJjVKbf21VsWedulyfzoxK6ZNe/2CNxu1zev5Hog1Y5cdY+j8EPV9qlfXjRrmApGfoWJabqVzn1Q3I6lO6r9H5iSEJXG+QH+7yq7omrYemdTP2Hlzj387i0X2+w6xrXbJevVoQ+AAAA2FCKPfSN3aywgswXR6TyZqe0hVvkzIE95rGtVRFZtuuZGrxszXsz6p5p6jbqdsr57+2656N2JXsRlkP7zOM7DqnFY3JdlEUf+hZ6amTbduP4Zwdl/9UWaWttkjOVB60A+G2TjHmC30JPtXW9O5P1K9V7K6uWwxXG8YChb0flKdnx2R7ZXWV0Zp1zqLpf1svTDGETfaAa7DCD0ekHU/aBpJa6Ws0QVN3hfFuwIi/NkGQEowvNcu3BoPR290uo1gpLx26NiPtpYydQVteq+i1SG+qQa/dGxDzb+7jcv6LKjdfVdkhz55C032uV02agC0nt42Twc4JZbb3xp+P7sEsuXrRf7/GV5z1yWl3jmQapDvXIo27j3I3NckwdO9cukeQ3PolzV9caofRsk1xU1xjql+d2+WpF6AMAAIANpahD31JUzqtRs7TA9Fbaju8y6h6RBtdoVttx4/XbT0lzysCBUffkHiPc3ZZ+d08x3493rkTlRJlxzAhsnakDFzLbYYW7HVddwXKpW/argKipnwi6AUPfp9srpM6TWfvPq8/nc6nssw8gZGpUbqiRNvcInKkl6bquglOrdDkhaem53LkSkh8u9cjLlNG1Rem9oUbymqXdtcKmFfqMUFYfdY2sW5ruaDbLTj9IdZX5qNSq66npSgQvK5gZx7y+RnBsNoOf2/edRO82yw9GgGt+nvoNx0JvqxlwkyE2y7nXKEIfAAAAbChFHfqyaOzmQaPuPrmUCDuvpeGQCkDG64OMbuU59C13nDLPt7f1rX3ErddSv8+o/6fL0m8fWW636u/v0Pw/WInIiT95P4ssoc99zNFIvWwzytSjnwi59fyeGqlrkDvuvVEWhuSiCkPXh1JH0TIo+ZikfcBQ4tHRtK0WJuROjVF2ISwxTdCaiw5Jb/eoxG1jJ5jVPk7/hzxnhseQ3IjYB7Jp3BoBPNGS/DdgnTvg63MQoQ8AAAA2lJIJfUtvZfZFVNrC3VJ/tVp2f6Hqpoa22eYj5jHr8c6IPJ18m/r4p1t5Dn1Pr6hHKiukbtI+4NHYDfU46UGpm7B+tkbiUkcqk3onzZXezyJz6NMGu2xl6MNWrEtOqDB0z74ZDS2FWzIGLVOLRhvybNQIZ9ZjmdUXVMBT9e1yQ4k5ffbPCS0MWoHy1oh9ILsSgVL3xPXj9jTfhN4vycL0hESNa1SPg9baj6FW1DuPdvucew3asNDX2NgoY2Nj2jIdkUhEent7zV8GunIdeODhBx54BAEPPPzAY20exR76FqJNsr/ctYiLwZayg1K2y3p8MTW0qUVfLkvZzmTdT7eXS9nJFnnqeYQy36HPb5TSGplMhj6/+unlhD6UL81Ju5pfl3ikckm6rhk/n+2QiGckbmG4Ry7aAS/BuSY5bS/sEij02SNuunmEOuUc+uafS3NiURabqpCcuGQv7LIOoW9gYEBisVjg0JdL25419PX19ZnGujIdynRoaMj8RaAr14EHHn7ggUcQ8MDDDzzW5lHUoc8ILuXmvLfjcj48KvG55MidFaIyh7blN+PSrxY1ObTHWkjFu6hJnkNf9pG79NBn1c80MshIHyqsptvUY5INckcNvtkjcT80jFqFjsb7rAVSzrXIne5xiU8vipMJrfAUMPRN90u17vwZlFvom5L7l5RvSC7cG5LYxJws/GwX2WFzPULf8PCwRKPRwKEvl7Y9a+ibn5830ZXpUBek6me6MB144OEHHngEAQ88/MBjbR7q74piDH3x22pBk11ywpkI55Jf6HPr6SX16KVxnkH7gFKeQ5/zaKn+fHaIc803dOb0aecAOou8EPpQoWQHvWN3x+15cp45foamW1VACsmNwfRHPnMKfRkXj7H0/vWczE2/kSU7UeYU+iasYPpDSBMo1zH0TU1NmV+6BQ19ubTtzOkDAAAAX4o59FlBShP6Vkbl/JeqritkLUXkzNe7ZJsRirzz+Kz5dnvkvHtKkRP6wvbPOUkTwJygptmaQS2qssOov/Wsa/WIxGqfp6TZ/dTbymtpO2k9ukroQ4WTvVrn2Ra5mPKoZ1KJRVO8oe/9uLUwS+DQ5yweE5LaXs9z1s65znaIE81yCn3OKGJa6FuR53c/gDl9AAAAAIpiDn0y0y67Ux7vnJan4SY5vKtctpZ55/S9k54q69iOqhbpf/HaXPil+epxay88FcbsmqZeWEHs07IKqbzZJA19r+2CINIEMENjjRXmo6Rbvr4s9X3G9Sr/m9WyI8PWDAv9l62ybcb72XdKKisrZJuaj2hc6yW1/QShDxVSdoBSVLdpnkt+ZQWq5OOdUxLr7pFaI6QdO5fDnD6lhRG5dk6Vh6S6sV+eRCck9qRfrtl776VvqxAw9Kn5iWpfQNfjnfHokDTfMAKfcY3rNaeP0AcAAAAbSlGHPkML0XrZ7V6YxQhIZTUReap7vHNlWtrO2puhu+pvq2xKX8jFULy9WrZ9Zter7My80mea9KFPKR72LCRjsOWbOunJMNdP5qJSX3VEysr3yLbyg7K7plvixoWkfxaEPpRnvbcfu1TbLLyyj3m0MNwl1WadJKcbRyVmhqccQp+SdsGVJrnWO2NXsJRb6DNknPeO2mzdfd6LYYkMr9/jnYQ+AAAA2FCKKfRl1jtZmHstswYLQTYRW35r1jXr+yY5de63srySnCeYjWAhKsfr1UgXgBHaGBn387SadzcnC4vp8/tyltr+wTxfcmGYfMiaG2gwt8p/dGsQoQ8AAAA2lNIIfeuj2b7bUllVk5VLOT0Gml2zffVyvkezkIuzOfvXnkdSEUKbUoQ+AAAA2FAIfZtUzkIu23bJ3qtPJGaPDMZHOuXE19a+hLub8xcwEUKFE6EPAAAANhRC3ybW4qjUfa9WFk0+Pmry2UE5EZ62KyGENrsIfQAAALChEPqKQEtvZXZyVHoGx2XWtQE9Qqg4ROgDAACADYXQhxBChdWGhT7VkCszXZkOtYv85ORkTheGBx5+4IFHEPDAww881uah/q5Q5yH0IYRQ/jUxMSFjY2OBQ18ubXvW0BcKhSQWi2nLdAwMDEg4HDZ/EejKdeCBhx944BEEPPDwA4+1eRD6EEKosHr8+LFEo9HAoS+Xtj1r6BsfHzcbdF2ZDnVx6jXql4GuXAceePiBBx5BwAMPP/BYmwehDyGECis1yqdCXNDQl0vbzpw+AAAA8IXQhxBChZV7Tp9qZ/1CXy4Q+gAAAMAXp+MxPz+fCH2qY6JC388//2x3WRBCCK1WzpdphD4AAADYELKFPnUcIYTQ6rWysiKjo6Nm6IvH44Q+AAAAWH+yhb6RkRH5xz/+YXddEEII5aq3b98mQp9qXwl9AAAAsO64Q5/qiLhDn7N6HEIIodylvjRTbemzZ88IfQAAALCxOJ0P1RFRHRIV+lQHRX07PTw8LMvLy3YXBiGEUFCpL9PUExMq+Km9+pzQp44T+gAAAGBd8YY+Ne9EdVDUt9Nqb6lIJMKiLgghFFBqhE8Fu6GhIfOJCWdjdkIfAAAAbBhO50N1RFSHRHVMVOhz9pZSHRe1sbsqV4sSIIQQ0mtpackMeKrdVF+aqS/PVHuqvkybmpoyv1wj9AEAAMC64w19qmOiOihqg2DVYfnpp58Swa+3t9csU/tOqfoAADBvbrqu2sknT57I4OCgPH36NDHK5360M5/z+RSEPgAAAAiE0wFxBz9ntE8FP9VxUcFPdWJUZ0Z1ah4/fmwGwO7ubgCADxrVFqo20R341Fy+58+fm22oM8qX70c7FVlDX2Njo5k6dWU61LP86s2oC9WV68ADDz/wwCMIeODhBx758fCGPme079q1a9LX12cu6qI6MWphF3UeNerX399vosodbt++LT/++KP87W9/SzmejTNnzkhra6u2TAceeAQBDzz8yIeH0w6qdlGh2kh34AuHw/Lo0SPzSzR34MsW+nJp27OGPnWBzjLMQVCmarhSfeunK9eBBx5+4IFHEPDAww888uPh7oi4g19HR4fpo1afU8FP+akOjZqros7lRXVumpubpaenR1uuo6GhQdra2rRlOvDAIwh44OFHvjxU0FNtomobVTup2ksV+FTQU6N+6ss29XPQUb5c2vasoU8ZKnRlOpxfAH4X6AYPPPzAA48g4IGHH3jkz0Mdd+ooVPBTCxKojovzqKez55QTAN2oR0BV58fpBKmfg+B0nHRlOvDAIwh44OHHaj1UfW/754Q9hdryRrWZk5OTCdQ8aKeNzdQGO+TStjOnDwAAAHJGF/zUiJ/qtDjhT3VoFE4HxwmCAAAfCu72Tz1F4bSLTthT7aZ7Hp8iSODLFUIfAAAA5IzTKdEFPyf8KdwjgE5nBwDgQ8JpA1V7qHDaRyfsFTrwKQh9AAAAsCp0wU89muQOf+4ACADwIeNuFzOFPYWuvV0rhD4AAABYNe6OisLpwLgDoBt3pwcAoNTxtoEK7/6l7jZU187mA0IfAAAArBl3p0Xh7tAAAEAq3jZToWtb8wWhDwAAAPKCrhOTCV0nCACglNC1fTp07Wm+IfQBAABA3tF1bAAAwELXbhYSQh8AAAAAAEAJQ+gDAAAAAAAoYbKGPrWJ4NzcnLZMh1qhRi1HmsuQJR54+IEHHkHAAw8/8MAjCHjg4QceeARhs3lkDX2hUEhisZi2TMfAwICEw2F59eqVtlwHHnj4gQceQcADDz/wwCMIeODhBx54BGGzeWQNfePj4+Yu8royHdPT0+Zr1P4TunIdeODhBx54BAEPPPzAA48g4IGHH3jgEYTN5sGcPgAAAAAAgBKG0AcAAAAAAFDCEPoAAAAAAABKGEIfAAAAAABACUPoAwAAAAAAKGEIfQAAAAAAACUMoQ8AAAAAAKCEIfQBAAAAAACUMIQ+AAAAAACAEobQBwAAAAAAUMJkDX2NjY0yNjamLdMRiUSkt7dXZmZmtOU68MDDDzzwCAIeePiBBx5BwAMPP/DAIwibzSNr6Ovr65NYLKYt06FMh4aG5NWrV9pyHXjg4QceeAQBDzz8wAOPIOCBhx944BGEzeaRNfTNz8+b6Mp0vHnzxqyv/tSV68ADDz/wwCMIeODhBx54BAEPPPzAA48gbDYP5vQBAAAAAACUMIQ+AAAAAACAEobQBwAAAAAAUMIQ+gAAAAAAAEoYQh8AAAAAAEAJQ+gDAAAAAAAoYQh9AAAAAAAAJQyhDwAAAAAAoIQh9AEAAAAAAJQwWUPfixcvZG5uTlumY2pqSiYnJ3PaSR4PPPzAA48g4IGHH3jgEQQ88PADDzyCsNk8soa+UCgksVhMW6ZjYGBAwuGwvHr1SluuAw88/MADjyDggYcfeOARBDzw8AMPPIKw2Tyyhr7x8XF5+fKltkzH9PS0+ZqZmRltuQ488PADDzyCgAcefuCBRxDwwMMPPPAIwmbzYE4fAAAAAABACUPoAwAAAAAAKGEIfQAAAAAAACUMoQ8AAAAAAKCEIfQBAAAAAACUMIQ+AAAAAACAEobQBwAAAAAAUMIQ+gAAAAAAAEoYQh8AAAAAAEAJQ+gDAAAAAAAoYbKGvsbGRhkbG9OW6YhEItLb2yszMzPach144OEHHngEAQ88/MADjyDggYcfeOARhM3mkTX09fX1SSwW05bpUKZDQ0Py6tUrbbkOPPDwAw88goAHHn7ggUcQ8MDDDzzwCMJm88ga+ubn5010ZTrevHlj1ld/6sp14IGHH3jgEQQ88PADDzyCgAcefuCBRxA2mwdz+gAAAAAAAEoYQh8AAAAAAEAJQ+gDAAAAAAAoYQh9AAAAAAAAJQyhDwAAAAAAoIQh9AEAAAAAAJQwhD4AAAAAAIAShtAHAAAAAABQwhD6AAAAAAAASpisoe/FixcyNzenLdMxNTUlk5OTOe0kjwcefuCBRxDwwMMPPPAIAh54+IEHHkHYbB5ZQ18oFJJYLKYt0zEwMCDhcFhevXqlLdeBBx5+4IFHEPDAww888AgCHnj4gQceQdhsHllD3/j4uLx8+VJbpmN6etp8zczMjLZcBx54+IEHHkHAAw8/8MAjCHjg4QceeARhs3kwpw8AAAAAAKCEIfQBAAAAAACUMIQ+AAAAAACAEobQBwAAAAAAUMIQ+gAAAAAAAEoYQh8AAAAAAEAJQ+gDAAAAAAAoYQh9AAAAAAAAJQyhDwAAAAAAoIQh9AEAAAAAAJQwWUNfY2OjjI2Nact0RCIR6e3tlZmZGW25Djzw8AMPPIKABx5+4IFHEPDAww888AjCZvPIGvr6+vokFotpy3Qo06GhIXn16pW2XAceePiBBx5BwAMPP/DAIwh44OEHHngEYbN5ZA198/PzJroyHW/evDHrqz915TrwwMMPPPAIAh54+IEHHkHAAw8/8MAjCJvNgzl9AAAAAAAAJQyhDwAAAAAAoIQh9AEAAAAAAJQwhD4AAAAAAIAShtAHAAAAAABQwhD6AAAAAAAASpZF+f8B2peLdANv2v8AAAAASUVORK5CYII=;" parent="1" vertex="1">
          <mxGeometry x="-773.55" y="-261.5" width="507.11" height="236" as="geometry" />
        </mxCell>
        <mxCell id="uFFMmfKACldLguCO9u6B-1" value="Make field for partners" style="text;html=1;align=center;verticalAlign=middle;resizable=0;points=[];autosize=1;strokeColor=none;fillColor=none;" vertex="1" parent="1">
          <mxGeometry x="-940" y="523" width="137" height="26" as="geometry" />
        </mxCell>
        <mxCell id="uFFMmfKACldLguCO9u6B-3" value="Search will call UPAM for results.&amp;nbsp;&lt;div&gt;This service will handle all requests&lt;/div&gt;" style="text;html=1;align=center;verticalAlign=middle;resizable=0;points=[];autosize=1;strokeColor=none;fillColor=none;" vertex="1" parent="1">
          <mxGeometry x="-135" y="-74" width="206" height="41" as="geometry" />
        </mxCell>
        <mxCell id="uFFMmfKACldLguCO9u6B-4" value="" style="shape=image;imageAspect=0;aspect=fixed;verticalLabelPosition=bottom;verticalAlign=top;image=data:image/png,iVBORw0KGgoAAAANSUhEUgAAAdUAAADRCAYAAACaXyhVAAAAAXNSR0IArs4c6QAAAARnQU1BAACxjwv8YQUAAAAJcEhZcwAAEnQAABJ0Ad5mH3gAAEDQSURBVHhe7X3pcxRXlr3+p/nkTx39YaKjIybCEY7oCIdnPO0ZL2MLd8vuMdgtDyN7hMG4GaAHsMH8wGYRBmw2QbMI2UKAJQGSkQTIpbW0CyTQLiGz9P3lyaUqq/RuSkplFZLq3IgDqvdyufXevXkqX56XL+/evXsyMjIi09PTs9Df3y8TExPGuu7ubmP5+Pi4vZ+pbnh4WAYHB411Q0NDdr2pbmBgwD6uqa6np8dYDr/7+vqMdaOjo4Lvbaq7f/++PHjwwFh39+5dGRsbM9b19vbK1NTUrHKUoS69HMCxcExTHXyAL6Y6+I7vYKrDd56cnDTWaW2FtkUbm+rQJ+gbUx36MsrYwfZa7OA8mYgdU5+h/cLGjtZn6GetzxAfpj5bTOxofRaU7/jO2cp3lGt9huNpfRYUO1qf4ftqfYZ20vIdsaPle1DsaH2G/tf6LBOxo+U7vpOW7ys5dsJwRZjYyUNnaU7Ace0CrQUAtte+MM6jBUfUfiCotGRBI2rBgYDTEgn7aIGDc5mSbKn4ASz1PmPspJYzdmbXMXZSwT5LxVLos7z0AoIgCIIgwoGkShAEQRARgaRKEARBEBGBpEoQBEEQEYGkShAEQRARIQ8SZE351NXVpaqs2trajOVQQ2E/Ux3UV5qEGhJvTcoNSbamjGtvbzeWQ7XV2dlprINCTJNQQz6tSbkhydaUYB0dHUbVGcri8fiscgDH0uT38EGTcsN3TTWH72xSCkLhprUV1HSa7B19osnv0Zeaoi5M7GB7LXYQo1rsYMpBUOxoKkK0h0k5ifbT+ixs7KCftdjBubTYQVyllwM4ljZFAD5oUzfgu5bvWuwAWuwgL7XYQWxosYPyoNjR8j0odrR8Dxs7aF8tdtAvptgJynfEjpbviB0t37GPlu84l5bvWuzgO2mxg7bQYieIK9D22eQKLXai5gp8Xy3f0U6mfM/DAU3BAQTVaQ2I7bXERMCZLh5z1YX1I2ofw/gBrGQ/ovQxyI+V0FZL3Y8wPob1I6yPYfwI62MYP4Bs9tlS8SOMj2H9COtjGD/C+MjhX4IgCIKICCRVgiAIgogIJFWCIAiCiAgkVYIgCIKICCRVgiAIgogIeZBWa5JySJA1eXIsFjOWY3tNyo3zaJJyyJa16QiQjWvS9ubmZmM5lF6alBtybG0aAGTcmqQcsmtN2t7a2mpUgqEMdenlAI6lScrhgzYdAb5r0nZ8Z5PKDSo2ra0wPUObBoA+0STl6EstdhADUceONg0A/mnTEfC9tKksaA+TUhBqPy120O5a7KC/tNhBP4eJnZaWllnlAI6lTQOAD9p0BPiuTUdAvmsKSS12kJdBsaPlO8q1fEcMaPmuxQ781qZM4PtqsYN20mIH7avFDvpFix0t3xE7Wr4jdrR8xz5B+W5Sp8I3LXbwnbTYQVtosYM2DBM7Wp+hj5cKVwTFzkK5gneqBEEQBBERSKoEQRAEERFIqgRBEAQREUiqBEEQBBERSKoEQRAEERHyoHwyKQ8BqDFNCjdAU1hhe031ifNoCjGUa+9YzKYf8EHzI6itND8ArS4TfkTdVvBB8zGbfoRtq6XiR1BbwY+F+pgJP7LZVkvFj6C2Wip+ZLOtloofQW21VPzQ2ioPMm5Nrg0psXZATQqN7TX5Os6jTTlAuSbXhrRa+9KanB9fVpNCYzqCJhuHVFubJgIpt9YxkKibOhplmnwd0nZtugp80GTj8F2bngH5vZYUWluhbTX5OvpE67Og2EEMhIkdrc9wHm3KAaYBhI0dUwKi/bSpD+izsLGjTc/QYge+abGDOAyKHW2aSFDsoO3DxI6W70Gxg/Kg2NH6LEzs4PuGjZ2gfDfFDvoxKHa0PkPsBOW7Fjs4V5jYCcp3LXbQhkGxsxS4Iih2ouYKtJMp3zn8SxAEQRARgaRKEARBEBGBpEoQBEEQEYGkShAEQRARgaRKEARBEBEhD+omTbUFhZVJWQZoSjVsrymzoMrSVGwo11RbUIJpqsQwfuD7aio2KOM0xV+QH1CBmdSAKNMUoTiWpoAM8iOozzQ/AK2tgvwI22dRx05Qn0UdO0F9tpJjZ6nk+3KInTB9FjZ2gvos6tgJ6rPlEDth8j1s7Gh9loeG1zoTEmrNQU2Sje01KTQaQ+tofCmtEXE8rTM1iToaSpPR4/tqDYxO0RoREmqtMyG71oJbk2TjWJp8HT5ogQ/fg/pMC26trdC2QX2mBRz6MqjPwsROUJ8FxY7WZ2FjR+uzuWJH67OwsaP5mO3Y0fpsJccO2jcodkx9FhQ76LMwsYN9gmLH1GdBsYPvFBQ7QX0WFDth+iwodoL6LCh2wuR7UOwE9Zkpdjj8SxAEQRARgaRKEARBEBGBpEoQBEEQEYGkShAEQRARgaRKEARBEBEhI+pfTUkVpOhCeRhFl+ZHWAXnXGpATYWnqQHDKjjnUgNqfaapAYEwCs651IBan2UzdoL6bC414EIVnHOpAbU+C4qdMArOoNgJ6rOg2EHbRxk7i8n3KGMnbL5HHTth8z3q2Amb73PFTrbyfa7Y0fpM8wPtF2Xs5ME5zQnspCWZdiJsrwUHzqM1Bsq1wMHxND+0hkdQacEBP7REQiMG+aEFDvwwJRnKNB9xrCA/tADGPkF9ZvIDCPJD6zO0RVCfRR07QX0WNnaC+sxUvpjYCeqzqGMnqM/Cxk6U+T5X7AT1WdSxE9RnYWMnTJ+FjZ2gPmPsJLEUYofDvwRBEAQREUiqBEEQBBERSKoEQRAEERFIqgRBEAQREeYkVTzU1h7WE8RyA+OZIIhMIg9SYk2BFY/H5f6DcTlxrk/+8nmzbNgWI4hli0+3x+TAd13S3jluE2tbW5tROYm6rq6uWeUAlIfalAmoCzWFIaY3aGrGzs5Oo2IRvqEuvRyA8lCbIgDVpzZ1A75rakZ8Z+0HR0dHh7Ec6seenh5jHRSV2tQNlGvXHRxPU3dqfkCl2d3dbazD99WmTKCdNJUs2ldTwuLaaIod9KPWZ+h/bZpL2NhBn2mxAx/Ty4GwsYM21GIHba8pg8PEDmJD6zPEjqbWDRM7QfmO76vluxY7eWiI9E7BZ5wo3jUsf15/W15/r44gVhSqa4dU+T0uSFpiYnvt4oGc0UjJlGcetHMBWh18zIQfJqIANHKZq600P1CeTT/CtpXmR1C/ZMKPMG0V5GM2/ci12DEO/2JDOLBtT5vxgkQQyx3vrK23fv07SaElKEEQxEIxi1RxgQFr3xscM16MCGKloLrWeUOM6dcmQRBEGBhJFRcaDP2aLkQEsVJQftnRE/BulSCIqJBCqriw4AKDh7M9faPS2DxCECsWTW3O+0UxMkNSJQgiCswiVVxgoKzqtki1b3BKxqZ+IYgVCZCq97JykipBEFEgDxJkTxbsJ9W+AZIqsbLR1Dpsy/MxXcFPqhitwXQb77MfGC7Wpm5gCoA2hQSSfW06Qmtrq/G5LnxqaWmZVQ7gWNrUDfigTQOA79p0BHxnTekYi8WM5XhUpE1VwBQRbeoGyrUpJDieptTU/MB1q7293ViH65s2dQPTVbQpJJiSok1lQb+YVKboR/RnejmA2NGmbiB2tCkk2Af7muq02IFvWuzgO2nTbdAW2rQfP1ekA22PPjDVLfXYQcxr+W7fYCr5jhwz5bt6pzo+MSkD961gNVyMCGIl4O7QlJFUCYIgwiKQVB+MzxgvRgSxEjA5PUNSJQgiUgSS6ti0+WJEECsBIFUMuZFUCYKICiRVImdBUg3GxUtDsmlHt7z9QZv8y1sxeek/CGJpA3GKeEXcIn5NcZ1pkFSJnAVJ1QxcjN5+v9V40SKI5YS3P2jNOrnmQTnmXVBIqkQuYWL6oZFUoZzUVLCoM6ktARxDI2fsY1KLAtq5gEz4odWhHXbv70lckD4sjsupU0PS1DAh97qm5X7vjBFDPQ+N5WERdLywdVGDfqQirB9R+4g4RbwibhG/XiwjroNySatDriw0z/IgC/bk2tiApErkDCambFl8OqkiibTpKpjKok05wHQETeqPaQA4j6kO0xtMyYkybcoBjqVNE4EP2jQR+G6a2oPv/NddLYmL0NpXO2THv3UTxLLGR28miXXrzuZZce/FfpT5zuHfAAwN9kpj9TWpbR6RoXHzNlnD+KT0DYxI36DVL6Z6YsHg8K8DfPcLP9xNXHw+eTVuvEARxHIE4tmL7bIfzD82owRJ1YSuq7Lx5ZfkH379uyR+WyAbLwyat88GOs5IPvx464zETfXEgkFSdXIev9S9Z6i8QyVWIhDXiG/EeaZznaQ6C3HZ94pDpL96Y4vsO3VB9n20Wn5lk2uhfNNh2icLIKlGDpKqk/Pnvx+wLzj/8UaL8YJEECsBaz50iDXTd6sk1XR45PXrHXLJN+RbvT1fXnwpX4pPu3er4yPSePaobHx/tbxYsEV2n2qWPv8QsVVfe+pgon7L19ck7tU3VciWzV/KltPNEq88KGveWC376p26+NUzsvujInnxjU9k49cV0jjg7uMj1dhAsxz/6yfymrXNFuu8Q945gYG4lH29wzpmvrzz0UE5Xj+SrLPrrX0/d+pfe3+H7DsbT/U7h0BSdZ4nfbbNGR5b/6dOOVjYTxArE187Px7/sr0zo/lOUk3Hg6tSbJPqS/Ly5msSe2DYZmpEqv/ymjss/Jq8+LwzVPzcKovwbILqleOr3LLnLTJ+wR1K/t1XUov6q186n/9UJO/gfwsbr/4iscOF8pz7OYHfFMpx3B17pPrqFil276Q95B/udfwavCkbf+eU/eqFfPnH3+Dvl5L1vRWyxi37xxctv1y/X9h8M5WYcwS5Tqpevq9yh34bb43LQP80QaxI1FaP2HGe6SHgPFxQPDkxSdVB7Nsid7jXhUWc73x6QWq9u8YbX8k/WeVJEvVI9iUpLrfareOa7Mad6OdXEyT7zasOmW2ptj57pPrr12RjRa8MPZiUoa4LDsFaJPpNs3Oexl0F9nb/tP227w7697Kx3Llbju0vdI7jDgnX/vX31mcfiXok+5stcsn6cRD/1t2++JpTP94sZ+Dn5gqJ4XOOYWJKn1KjvcAcd3bY3lSH3AFMddgH+5rqkG+m6TYoQ116OYBjaS/ohw/aS8VN+e692GHgLt/1TaxctN+esOMc8T7ffEeuaPmOHDPlex4kwd5OJFUfepvl0uGDUlzwWpJgf/uZnOm1yGs7yMsiu1U7nGFc4H2HAJ+z7vrs/ccnJVZ3TcqsY2z59BN50b5DdO5IE6Tqez7ad/oTp+yjq8m7Rk/xi7vlBKl+KdVefUrZbdnxPP7+veR/4vpkYc3LKHPJvP6gvGBv/5K8YA9JX5DqW89QfPWsoUypwd+ajB6JpE1XQd5oyYl3DGuEi+k2/vN7QLJrK3XgWKYVMgD4oJExfPcI18t3XGiAe4MPze1EECsA3W3jiVj35xt+oEaZ7xz+TYd1gU0QmVc2Hpdv3OHcF/fErbtSEJM7tPtSGj637ip7r0qxbxj2tfc/k3yb8HRSjR927yL/4pJyOuYkVeuu1P7bHdpN82v3DWefeOVR64eCNzTs4Fd/upCT4icO/6aS6v0HXECDWLlAvptINWqQVNNRucMhm7dOuEO3wIhc+sS9O91+OzGM+uKu5uR+A4MSd8l4dr03/KuT6lidM6T8D89/5Tx3tcqGKr5MEvWcpDoox1fhb4tAXdET0Gfd6eBHgj3P9oHlX0ez1LZZfYvjt51xn+k+Q1XzMwRJNZVUxybN7UQQKwEk1WeFBzdli3uX+dzzBbLm0x2y5pXfuwKi12RHnbXNoHUnat/pvSbv7Logl04dlHfsfZxnqt5Q7nOrDkpZxTUp25V8RquSqnU37J/Ks2XzFnntt8ljzk2qFkle2OL4+bsi2X3qmhy3zmsP97rPVOGXU/+Z7Dtr+bX/s5T6lHbIAZBU00g1lx/3ECseJNVnia5rsmOVR6QOnnu+UHZU+p4/Nl+QYv8LIn5bIMWn4k7deK8cX53c/1d/OiPffOL8rZIqMHBTdvvP+5t8WXvYnTIzD1JFWezUFnnZJmMHv3p5ixx3hU+4467dVZg69GvVf5M+7SZHQFIlqRK5A5LqUoAnFBox1HnAkOqA1VamOjyfDdpXA/bTjjlPDKU/F07DXPW5AJIqSZXIHWSNVEGg6WpAkiqRCxifnDaSKv5GuffZD+TH0JB5KSlMcdGmuUBlj31NdTiXNqVG8wNSf+3l/fBBUyHDd039y3wnVjQmpoykir81JT1yRct35Jgp3/NQ6CW7l2QkVSIXMD5lJlWQmUZYIDONsHAcj7DSgX28+aHpwLk0UtX8wDQA5KmpDj7AF1Od3w+SKpFLwI9ojVQ14gyT7xz+JXIWHP4lqSYe8fiR449FVir4TJUgMgySKkk1IRpMw3MvfuYT+C0DPOiV6oprcqmiWfpM9QRJlSAyDZIqSTVBqs8XSrH9FrIdssZT9T//pVQvl7tW0+wAIgUkVYLIMEiqJFXznHHvlZ/u6z1RNtfqT+O9cunrLfLOS0VSfPim9PXelH0g6f3W33g3+H7ntaFnmrx94u57t09ItfdO8TlXvsI5vrTfiGbXW+exV74asM71SaHz8phfF8ga/3m4KlUCJFWCyDBIqiRV85zxtDegzbX6k0V23mtMPbywqlBexN/2ca36t5xy+3j2ObzXinpvM5tj5SsQvc8Hb+Ur1McTd6lJ2OfhqlQpyBqpQkrsyYJJqkROQXmhPpS13d3dic9+YFsQsakOCkJNRYjzaMpgnMuU5FD/dnV1zSoHcCztJeDIX001DN/T852kahHPSzvkuP1M8poc37zafQFLkRzHAhpzrP40VO6+yez5HXIJd53WHaf3WtN5k+pcK19Vf+mc45UT7opSg1Jt3bUm7nQNw79clSoVo+OTRlJFvvf09CQ++4Fc0fIdOYZcSy/PQ1LhoPjgJ9WR0XHpGRyVnnsjBLEicX90wninCjLTCNDLEVMd5PfatBns4z+HHzi/aUqNV2cqD/ID+TwfP7xjkFQdwksB3mZ2GiQ69+pPjXvy7X3sJRq943okOE9SnXPlq4EKWevddb7yiWz8/IyU1fU67/TG8UzPVLkqVQqw1KOJVBeT7x53+qEO/46Ojcujx0/k8ZOnBLEiMWnFPId/Sao2ibp3qmXb3bu7xHCwR3766k/Vm51hVaxglThu09EFDf/OufKVtc9Q/QWLaFfLC77XkD734leOmEoRKnFVqiSe/TNVi4X//ve/C422Uu3hQ/Mi5bkCkqqF9GeqPpFS8QWIkeZe/SkxzGqRlTedJbGUYxqprj3rCpwGrTtP1LukOtfKV86rS+NS691p9l6TLS85x7SJ2kSqXJUqBSRVGi3DRlIlqZqESsnVnL6yl2Gca/UnvyDoxdU7ZMunn8iL3p2he1xvePcffvN7yX//E3n5t7+Xf7LJ2yW4OVa+wtKQzjlXyxbLh0unvpSX7e0LZB/m0w5YPqAe+3/qqH+5KlUqSKo0WoaNpEpSNZGqfxnG/BJHnBS8+pNFvDcOuks1WvhtkRwv8dZldo87eFt2v+EqhO3ntdfcu1ffXWPQylcWYqdTfUhdOWtSGkuSS0zmf4tyrkrlB0mVRsuwkVRJqgvFnKs/PbDaFH+byHq+CFr5ysLQoFU/qNSPT8qQYWUsrkqVRVLt7e21SRQfSKq0XDIo/rQpNe3t7YnPfuDl2pr8HtPTtNUuMG3GtKIF0NbWZkxylKEuvRyAz9p0m3v37tk/Fkx18N17QbiX7yTVDGAxpEpkBCNjE0ZSBdd1dHQkPvsRlO/IMeRaenmeX8rvJVkuk+pUb7M09D50P9GWqj2ZmJSZJ+6HkBZ0p6pNcQG0OpQH1ZnKgajrUB5U5/1NUs0gbhx0lLtrc1NpuxQRdKcaZZ5FOvw7Zl3ohsfG3U9LwBpK5JWCD2Vbg/t5ThuW0s8+lFc+q5BBtyRpg1K63qpbXyF9bgntWdmY3Dh1Xo7UTbqfU+3OuQqp7Hc/BBiHf0mqRO5gWT1THR2fkMqan+TM9z/KmfKrcvVGgz3R9pnbgknVspmHMjXj/p1iJNXlYiTV+YGkSuQSlhWpVv90S360iPTxkyfS2TNgf667FXNrHZtqKpXC9yxSskjulXc3yMZK717woTQc3Sqvo9zC65+WSsO0U5Oyz3sbZLO9j0tuxSWyDXeVNsm5x3jXPUZRiVQ+sDZ1SXXzweNSYNcVSeHRZpmyj26yNOLsr5GNa51jFhyskAMk1cxYf4Ps/64hOTpwq0b2/4gOfCCV3/kJsl1OutvdOXdeTt5ySqWnSY4cKZPdR8pl96nbUnmWpDofkFSJXMKyItVzFVUy/XBGZn55ZN2l1ktHd6+UX73h1sLaZe8HFiEVn5PW6YfSeX6XFID4Jq273MpdFmkVy+aqfhkdqpdthdZ2X9bLI2ufAx9vkMJD9TI4NizlO63yd48KLqk28Vn7bDxVK9VNg3LfPsaHUnSiXQZ7a2QzzrW9RkZdUn3ls1Kpjd2RAyDhgu1SOuS6Ncv8pDoh5zZZf7+7XQ7HhqWzap/k41gk1ehtUaQ6JjUnrG16nuKDyHhMvjtAUp0PSKpELiFrpIqDew9bw5Dq3aEH8u3fymViMnn/V9/UIpev3XQ/wSakfDsIrUgK/loiB87XS+vIY7um9iur/L2t1t3kUdlpYfP6Ipc8LRvrl4aKc1Z5iRSBbAu2Suld7071YoLc7GMUlEit+/nR9ISMTlrHTxv+7Tu/1T2G83m2+Un1jmwDie6pT9QdK/bqaJHaYkh1yiJRq2zArofNyM3T8yNVxLxGqqZ3egLIFS0hNeEC4M+zdGjnAsL6odX5/cDfJFUiVzBh3dBppLrYXPIjDytdgES9jRZCqiDUkhPnrTvTPpmcmpZYe5dcuV4vpRevSM/APXcr1x5NSGtdhRzYY92lYkj33V1SPuISYuE+Ka2rl+oEumR0rEY2vvuhvL6+REqrmqXy6KZUUvWRG0l1mdszItWgKTWaxB7TYjANzVSH6TQmiT0AWb42pQbnMiUuyrSpPfBZW0kHq2doU3vguzalZmh0SoZGCGKFYjgZ6/58A9fF4/HEZz+QK0H5bloNKvTw7/DIqHx7ptwm1Jqbd+Tg8XNyvrJGaht/lqEHFlv67VGz7HWHckdnHkvrCRBkseyNJYd/t10ftoi0S0r/usG6m70ifbHj9nDrxsoJa/9+OQayU0jVOYY+/BuOVDn8mzUbbpKSQ9el2Z4iMy2NZ8tcUh2TmpNlcjbmDO1ONVbJF+mkKnflh6MWiXL4d8FIJ9W7D8YJYsVieMy89FvUCE2qXb0DcuzsJfnpdot8WXJSbsXa3Rqz9VXuccVCgE8w9HRYKr/akBAqvbJmlxxuf2iVWwS3qcgpe2+77Nyj36nOOsbaPVKOi+qiSNWy/gpZt8Y5Zv72UtmWfl5aRDYj7RUV8sWhMtn9TaVcvVLlkqpV01wn++3yMimpalCESrctUnaFSicbKFSaJ9JJdb4aChptORryfUmT6ohVf66iWr7+9m8S757HFcy1R5MP5ZF7U5FiTx/L1LTznDXFrDvbR+6fc5p2jFnmDu2mYUFTb2hLzKy+HzPOhVKNpEpSpeWOLXlSXd6GC/CEjKZhat7sTVsJRlIlqdJyx0iqNFqGjaRKUqXljmWNVKGA9GT7JFVaLhnk8CZSRbmm1EWuIGdMdcgd5I2pzp9n6cC5TNL8ID/gr+YHfIAvpjpTvpNUablgiHcTqUad73mYAuAd0EsykiotFwwxbppSg781GT221aarDA0N2bljqgN5a8mJ6Tb+83tAsmvTZpCnOKapDj7AF1MdfMd3wN9evpNUablgyD8TqYI4o8x3Dv/SctY4/Js5UuVqTzTVfrF+ME6b1Ko+ezIjUxPzEZ3O3/hMlUbLsJFUJ6WrezhxoXnnw3b5cH2n1N8yr/7jt3tDD6ShqVVu3mmRe/eH3VLPuNoTLfmilnQbq70i20/HAt7Bbllbnew+Uied7kezzchAU1wGAg7U3Tcj67d2y7v/1S4FH7aRVGm0TFquk2pz64j88c+tiQuNh/w1bXL8zH23lWZbvKdfznx/1X57WvmPN+w3qHX3pU3+5mpPOW46qUZn6W9cS7XGpkn5wwdJIvWj4srsNyFFBZIqLWct10l1zcftxgsO8Pb7bdJ/9xe3pVLt4pVr0tbZI788eizXb96R2saY/HjDe50nLP0lKlztKfcMpFonlWUV9ktZvvimQspi7vJjt2pk+zn3ZUHaClO+V5diKceyH6/LXmxzCC+Bcai6+fsy+eLAeevY5XLkmvOyGL/9aW2HMbYBkO3oqPld3IsFSZWWs5bLpBrvGpe3Vs++S/Xj4Lez7zOePn0qR8+Uy+PHzvOulniPDNy7n7YqlZ9U+brP3DSLVA+Uyw9x7/Wh1uej7qtIE6QasMJUCqmel/3WnaVtT7rk7KEqabRfaarfqd5qmpJX32kxxjXwz2/GpLzSLOZbLPLwwmAQKT6QVGm5ZFD9mUgVf2svxvfyw1QHFT2OZaqDUhA5ZarDubQpNZryEMfSFL7wQZsiAN/xHX5qHJZ/+2Oz8YLj4S87et2WShrWST598ap1l5p8U8qPtY1yrf6O+wnmJ1UuTJGbZpHokZvS436yfo5J41mQrPWnR6pBi2GkkWrilaQpRKqT6veXR4wx7ce+w/12TkSd7yRVWs7aUiFVEGe2SbWjc0zeei/4TnX/0dSVpkCof/vhR5tQm9u75NylKjnz/Y9SUVUnE5Pu0J5tJFVaGFLFAhrRkGrjnUl5tSD4TrWswnmuGjmp+j+QVGm5ZLn+THX1R8HPVHv7k89Um9vicuLcZRm6PyInyyqltPyKtHX2yvDouLuF3zj8SzMM/35TJTeh1PUP/54sl5ONjtr8SXeDlBxcCKm6JJxk7hR797+Cnqm2yvBIZnKepEpboqb/Co3Kcp1Um5pH7ItL+gXnrdVtcvTUkNtKjmGJx4MnzsnRM99L6cXL8vix/VBLsXShEld7yj2zSBRCpQvljlDpULmcvmUQKo13SdkJCJnKpOT7LrlxbiGkKjJ8s0r2WvuerBtzCnx289ak/eMwPb6BsgrznWkUIKnSlqiRVDMNfOf2eHKe6h8L2+XP6+JSWz/htlDSHj99KtdvNsnlazdl+uHCVgOi5bY9mZiUGe03mHW3mJxm6gqXIsz5eNdD+Z9NXVLwYbv88c8rbJ5q7Vf+pdXwS7ZEau2/H0rtoU1SsHaDFBQWS9HZLmept+kuObzFKitC+QbZWOmqv+5WSOHOo/ai5wWf18ggPu+56CxuXlQsr689KrXuD6KpplIptI5pH2PtLil1O6v2q62y91SJFFrl+Ws2yeGqGtn8qeVDYZH1S7om8Qt6sKZEVsMv67j560ulwf/YiObY/dtSctT37AQLjmPStpVEU7E62W/9irTl8lgn1Vb5gSyvyOky/IK9IjWY3jgUk5NHne2S0nuHVE9euJL4pXuk1pXNPxmUmtPYFsctk71l7U5iWr+A95+7LiU4p/Wrdy4jqTr57l1o+COall2bkfbvrRw+USc19TGptO5Svzhx2747zYQh33ODVG2SrHXXTJ2Qhqo70md9aLCIdlud+5qzpxbBfrxLynGHj+0/KJFqj+DSPo9WbJfVZ9EtE9J08UqSCJuOS/7BZvtP+FJU4f4aby+1SLNUWu2hfzz/cRcxH7kiResvSp/7SGCqZp/kH3aHLGg+g2LPFSBYNna9UvZeRgNad0FVt6XZe+QWuy67L2AjkGWZnGz0Oga/TsulrM19Jdl4i5w8eVsG0rcbj8mRQ9cFPfCkv0Uq67zUc37dXsUpMawE4UPQyKTPSKokVdqztqcyM9Qvd+pbpL17WuaZuqEsa6QK1RMuKvjwTEh1pll2WneD6/CAOjboLmBukWjRLjlQVy/VLg5scfcHifqfx6R/biiRV75y5f2PHkpnrF4qz5fKzs83JcpTfEnbH3exINVHFokW7LmSOH/19yVSwOdARpvBc41LGAZIG775ZVoGmlvkxo91ctoiXuc5Stqw7iwFoGdp29nChxpxetBLxCb5oazKujN1t/M/q5mHIcYX+kJ9vJR7oS/YBkDeYV6oj7r0cgB5imOa6uCDpgyG7+n5TlKl5YJl7YX6OBEOig9ekmWVVGFPH0tfrFZKD26XgrWl0oQ70zRSBVpHrG3nTarWMSyy3niqVhriwzLVfVEKF0OqQJNF+u52NJ89gbLPuovEUPCJ2+K8CbZHyo6Uy5HLMbnT/kCm4g2yPyJSHau7Il8crZGa+i4ZGJ6WRk/csEBSBWmZ7lRRrk1JQa5o5IjcQd6Y6vx5lg6cS5tSo/kBfz1yTAd8gC+mOlO+k1RpuWCIdxOpRp3vWRv+bTpcnBxy7bcIrsAh1UfdNXL4ujeUhzlsDqmlDP/KQ2moqJAmb/h3PqQ6ViPrii8myqeq9izoTjV9+Ff6LdK3/CSpmuypNJeVy3enK6XkuqvCw7NVH1lO4SXaJlL17m4Tb1VpkZPHbkpnAKm2l2NY2N3+Ccg7HKly+JekSssdW3HPVOUu3v9ZJPlFG2S1/f5Pb/i3XQ6vL5b8Tbtk3cdW3aE7juhkutnaxiq3hUrFUuCVz5dUIYA6uEHyP7aOuwnDyyWyeiGkallf5R5bJAWhU35hUuhEM1jzdfnigDsPzbZpuXOh3LqjvCJHTlh3rBeqZK+RVC3zv/8zTahkIlXpse6IIcE/dUX2fnddTnpvYSGpLggkVVou2coj1bkMq1qYbgO18vmaulrGfO2xTE1Gu65fTtn05NxrJ9r2VGbGFiJUsPpleHHCBpIqSZWWO5Z7pEqjZdlIqiRVWu4YSZVGy7CRVEmqtNyxrJFqX1+fTaL4QFKl5ZJB1WeaUgPFX0dHR+KzH1AJavJ7SO+1F3NjaoymMMS5TEmOsvb29lnlAHzu7u421g0ODqrTAOA7FtHA316+k1RpuWDIGROpguvi8Xjisx/IlaB8R66ll+fh4J6c30sykiotFwwxr92patNfkCvp23rw59JC6rRzAWH8mK+P+JukSssVQ8ybSBWIMt85/EvLWePwbyqpHjo2KPW3nRVDVpZNSGtdl4y6n2hL0QyzAiKy1o5p+bZ0SEq+G1BJNUqQVGk5ayTVSfnfHZ2JCw3w2jstsubjuNwbWkkzsrGmq+9lM7QlaJkh1eL/7Za3Vs9eienBA310aLEgqdJy1nKdVHd+3SP/mt8864IDrP6ow22lcIb53tsO7bIXyjjQZBVoC2TgxS5Ht0q+PR98q+w9X2p+81nKW9geSusp59gFa4vthTWcl7SYFucYlvLPi+X1AmeOvO2Luj/OsU924hhFe6Q8dfU7GmwZLaDx6V97jLEN/HmdWTMRBUiqtJy1XCbV0bEpefv92b/gPfzrqmaprAo/YApCLLQXtnBMXSCj6bis3lOfWP6r9YTyjm4/qRr2WVc54bzIxbA4x6w7VSyuYW3n7d93dqusPoVbJJyj2PcmN9psWx4LaPTf/UVWrTGvpQq88acWqb9lfs3nYpHnf9BKUqXlkgWRqkmA4EGrQ3lQnakciLoO5UF1+L/xzoi8+k6L8YLjYevOxHvKFmyphKgvkNF6YoNFYu5msPg5KZiDVLHPumO+d3If2+UQsXFxDlgqqc46J8j4swrrDDhH8o1qNLMthwU0LlcnX56v4dCx5IIUUeZZHuTCIFF8IKnScsmCptRoU1kgsddWjgFBa1NZMP1Fm1LT1tZmvFNGWWtr66xyAD53dXUZ6zCtB76Y6uA78vtW04i8/m4wqf7f7syRKoAFMiIhVSDuvld81uIcKCSpRmrLYAGNH6+Pyz+/aY5rD0dOODkCrtOm0CFXgvLdNIWOw7+0nLVcf6b6hw/04d9//2OLXKvzxvIWbqmEqC+Q8ej6PslXhn+1RTjSh3+nmq5IacuEujgHLtB7seayd+eatn/q8C9JdW5b+gtoDD14JKve14d/33yvVe7EzKvPLBYrl1T966rSlqGlJ1n0luukWvJtv7xaYL5b/XOx+9AspKWTqrpABsRFBzfI6xAqrd0kO31CJXURDpByQtyEYx6XWjyK0xbnsKz1NLbfKofta7B/fwtbKnxCJZLqvGwZLKCx/f/1y8tvmYV4/7PJ/LKHKEBSpS1RI6lmGvjOe0tSFZJvrW6T//60U6Yferd1EdtcC2dgKHa+efv0sUxNGxa7mO8iHI8Wu9gGbZYtsQU0tu/pl7etO9b0oeBM5nv2SLW/QtZBwm79MswvKpFqLDgOe1Ar26xflc7yalvlQJM7RNRv/Uq1foXavyStX7B7G9xyiywLvzruHOtosy7VB6luL5G967F/kby+/pw0MYGit2UksU83kqqT796FBmrfrp5nnCQLIVUabR52f/ixVNeOy6Wr91cWqdZ+tUEOeyNK8Xop78azkgk5t2mrHPPuRqZrZXPhcWmyfpX0XffdpWDBcFtIYBnI0rd4eMOhYtlc5YkUuuTYpqNSi1+padu1HtvgyO5pEdvykNibjKSaSqpLYmRKu/uk0RZpyPeskCqSynvvYSZJte/idutucZ8crmiW1hE3aWYsErXuWs8lVHxXZFuR+0zDSq7BeLNUV5yTnXu2S763kHjKsC5UhT4Bgt9StrPOf36rFJ73LsS0KG05SOxNBjm8iVRRDmWw99kPL0dMdcgZwFSHfbRExvk12T7qTOVBfiCf5+OHd4wlRao0WoYMOWYi1cXku+mdwXmYAuBJ/b0DZOqZ6qORLmmwSHJjcZFsvGrdNc4iVaBZ+mYmpPLzIll98IpUx/pldLpetpFUl64tA4m9yRDr2pQabQUYbAsiNtUNDQ3ZMNXhPFri4lz+83tAsmvTZnAsrDBlqkP+mlbPAOB7er6TVGm5YMgZE6ki37VpM8gVLd+RY8i19PIsDf9OSMPpiuQzzTqP8NKGf58OSuX5eul7lCaBby+VAiOpWh/T3tRybFOJVOKd4CTVLNrSl9ibjMO/JFVa7ljWhn/9HzJHqhapXd0jBYWbZN1fMSl7l5R6F0u/IKmwWNZddIgPw8X5hdut7S0yPFQiGxVSTZHqr92UKlQiqWbPloHEPt1IqiRVWu7YiiNVxx7L1KRZhPBo+qHvtWKuPXooo/MULRj3pz17W2ISe7+RVEmqtNyxFUqqNNrSMZIqSZWWO0ZSpdEybCRVkiotdyxrpAp1ExILH0iqtFwyxLuJVKG61dSzyAu8VN9Uh+NoCl/sg31NdTiXaUpNkB9QLCJPTXXwAb6Y6vx+kFRpuWTIGROp4m9NtR8m3/OQmF6Fl2QkVVouGJLMRKr4G+XeZz+QH1oC4geqN10lHSBH78drOnAujVQ1P5CfGuHCB+1CAN/T852kSssFQ85opKqtLoVc0fIdOWbKdw7/0nLWOPybSqozM1T60VamPXnydxmfmDaSatQgqdJy1kiqk1J/K/k+VLx4/D//u0POlrvvWF4xNiGtdV0y6n6iLUUzTLWLwG7empT3/ycub3/QJqvWJJc6JKnSaBmwXCfV2psPJN93ofHw2jstsmv/7HdcLV9LXaScthQtelK9XDWqrql65GS/MSeiAEmVlrOW66T6p7X6Is6r1rRJe9xbVHzhVvvVVtl2aJcUrN0gB5qsAm01qZS1TbfKXt96qqlrsmKt0+R6qq2nnGMXrC2Wgs9r3IUzHkrtoU1OeWGxFJ3tkkcyLOWfF8vrBc66rLYv6v7WWWpKZDXKsU7r+lJp8NZ9oDm2TFalAnUVFLYbYxvAXevAvdnv7Y0CJFVazlouk2pr+5i8+Z55gXIPe0pwBQxnIMTCs8k3mKW/TvTwx7ukHG+0bDouq/fUJxcTP7Ep8SY0lVQN+9grUGHZuJ21FpHCJqSh6o702R/S7lS1/bEalm9lq6mafZLvrGpOS9jyWJXqp8YJ+bc/BMf338rMQr/FIg8KQlxU8IGkSsslQ4ybXqiPv7WX1UMNeO/ePWMd8kZT3UJdiNwy1fX29hpJHepf1KWXAziWpliED/DFVAff8R1uNg7Lv/+x2Xix8bBpR6/bUgu3VELEwhe75IBv4YwDW5z61hMbLLJ1N4PFz0nBHKSKfdYd8y3CcWyXQ8QzzbLTustcd7BCKmODvjespZKqtv8ji0QL9lxJln9fknznOC1hy2FVqu8vJ1+er2H/EWcIGLMAosz3PFxQcHHBh2ySKl8ruHTtycSkzCzm/X/LxLwpK+mkinKNHJGA3o/QdCB3NOLEPtjXVId806bUaOSIY2nTd+CDN20mHV6+9/SNG5+n+nH01JDbUgu3uUgVaB2JiFSBuLem8mPpi9VK6UG8Y7xUmuxrzByk6u4/i1SBJouc3f1ori2DVal+bpmWN97V4/tfVzXL5Sont4LyHbmi5TtyzJTv2Rv+HelKBr5MSPn2ItlYFf6ZDS1KG5PO+n7rX+fvG6fOy5E6LPWTKfOf79lZrj9TLVzXYbzgAH/4oE2GvXWPQ1gqIaYN/+I5akWFNFkB8Oj6PslXhn+bDhdLUYV7zei/KIUeMaYN3041XZHSFosUu2vk8HVvmHBQjhW7azNbF+iUVa+U/dOHf6XfImfreCTVdFseq1Kt/kiP74LCNmNORIHskWr66jK0JWT+oZZsWLbPZ7ZcJ9XevjF5979mi5UwtaayanETUNJJNWU1qcJiKTh0xyW1h1J7cIO8DqHS2k2y0ydUkrs1snGtIzBafbDC2t+72/SLm3DM41KLR3Ez7XIY59i0S9Z9bO2TOIdF1qex/VZxHpEq+1vWV4nVtFC+war3raZFS7VlsCpVR9dDeedDs1jp+k/mEaAokB1SHbKSo7BIXnkPS7yVCnItkXQQF+w5J8c2IamKpGBnjVSe2iWrraB+/b1NciDm/lpW1YO0xdkDqTldJtsPnJcvrCAvi4ncOXdeTt5y6iq/q5Kyy5VWApRZ9VVSU3dTSo5ayXDovOz9vkucJXKnpRPbeOq8002ueMBKNKj+3PKSK/3W9rPPF6juK7spJ79zyy/HpOZshey1fNn+zRW5YSeg42NllaMatM9TNb/YyHVSxXceGUm+/AG/7PEctbPbW/g4AzbzUKZMt35eOa4H8/3x/fSxTJlWsdLOkW7a/gGradHmsCW2KtX4xBPZfWBA1nwcl/eKkgSbyXx/ZneqKaT6wXFpsPvhoVRu/zA5LNx0XPLdfVT1IC0CS71zTCXVMjkbc5LEHtI5HXMI70mXnD3k7hO7LnvPukRoJUvPpXJnWKi/QfZb2zuX6DFpro3LoP0h9XyB6j7vmY097APVoOPLcHWl7P8Rknv4eF5KqkfschB0pUXCP3Q6H4OMpOrk+7+85VxoHj+ez8Uww7YQUqXRFmCTU84blRDvK59UfQq7lGGjRILp6kFaFBZEqr4hmZThFtQ5+9gkWtEijfUuKiqd7abictoiwpKyBrnRPOgTP6UP/85H3TfblySp+oeNRAZ/rJD9VXO/FYik6uT7qvedqQf9dzN4hzpfU+8eabTFWWe38+7ft99vzSypYkqBp3xaTqQKQD1Ii8IiJlWg3R1GeDIjA80xqSzDEHKdtNvEmnq++an7oidVxLppSg2UtZ2dnYnPfkBxq8nvIb3XXnKPqTE4j6kuHo8bkxxlHR0ds8oBHKunp8dYBx+0aQDw3VMNe/m+8f8cQcfFSiYUbeXa6fP9dpx/ti0136LO9zwc0DuBl2QZIdXYcVvl59nCSDVt+NenHqRFYRjKrZJG905yoaSaOvxr3aDGbsvV1kl50mnded70yA3Dst6xUs83P3VfEKli+Ncj8fkP/yLmTXeqkNgj/r3PfqBOmxqDY/iP4wf2MU2bAbRzAZnww6vD/8j3v13otS82RRvn0Wg02jK1tRvidpyfK+9PyY+gfMd2C82z7A3/Pu2SY1DmrT8nrdbHhZKqrh6kLd6eSuflCvuVYT+0hSBVmZbm77F/uStoui538GaVqS4p+876fOKKHDnqEyClnW9+6r4gUk2+3iwpiJrbOPybzHcMieGCU867VdoKNIzCIL5XrWnJeL5nj1Sjsvkq+2jZtyczMjVheB4GReAv7t+qhVP3pZDtvM6TNJJqMt9P/s35FQ803MnkHGUaLbuGePZi+/T5HpIqjRZsaXewCzCSajLf8dxo19ddiYsP71hpK8EQx15Mb9/dZj8DRcyTVGk01TDfLdxrFUmqk3ae4/vjPcIQa+z8qjNxEcIzVgybQRWM6Ta4HhDEUgbiFPGKuEX8erH8f7ta7B+OHreRVGm0DFiukyqA743vj1/wUBO3t7fL4WM/y5vv/Zy4IBHEcsWb78Xk2xMt0t3dbcc4Yj3jpIpEGhoasj+QVGm5ZN4dWjqpQu3X2tqa+OwHpp91dXUZ60DQgKkO+2gv7ca5TApD+NTS0jKrHIDUX5sGgO+EqUKmOlxckN/eZ5wDuQ7f6uvr7ek9QFtbmxw53izFm2LylnVh+uc3zRctglhKQJyCSBG3355stWMZHIecQHybhn4R/4h3f5kH5ApyxlSHHDOtFKXeqeJ/kiptJRvuVE2kmkvA9/byHsSKX/O4WGBeLS4mBLFcgRj2iA+x7eV5pnNdJVWApEpbqYbYxt0hJnDnMqkC3oUGv9jRFrgAYfQKbUMQyxWIYcAj1EwP+3pQSRUs//gxXxdGW5n29OlTe0gWyZfrpAr4idUjV4JY7vDi2YtvU+xHjVmkCgdAqlBKAbj40GgryXCXioTDEFE2JPbLCd7FJx3exYkgljJMsevBFO+ZgJFUccHBODSEED///LP9GqcnT57YBEsQyxkzMzM2kULlmi2J/XKF/4JEEMsNppjOBvLSLyj4G6SKCw9IFRefWCwmt27dstHQ0GCrqG7cuGH/b0Jtba2x/ObNm/LTTz8Z61COelNdXV2dsRzQzgUE+aEdE35oPmIfzcfl7Aeg+YHzaH6gPIwfYWMnqK00P7x9ELeIX8QyYhqKQP/L9P05gB+RuHv1PvuB7ZAzpjo8o9XeExpE3Nq5AK0u6H2li/EDxzXVjY6OGsvDvjcV5VH7EbbPND+wj+ZHUL+E9SPqPgvyMUyfhfUjbJ9pfoTts0zEjsnHPEwBwINcr8A7CC42uEsFsQKQHEPe39zcbOPq1auJv/1oamqS6upqYx0ubLhomuq8i5+prqamRu7cuWOsC+NHY2OjfWE31XkXaFPdtWvX5Pbt28a6qqoqu73Sy1GGuvRyABf569evG+s8MjPVwXd8B1MdvjO+u6lOayu0LdrYVOcRk6kOfYk+NdUF+XHlyhVjeSZiB33mxQ5i2C+xR98gmdITFImiTZvBVBZtugp+iAKmOtwVI6dMdcgv00UCyQ5/08sBXCCgezDVeSIjUx1891apSQe+s3Yh01bLQfuhPU11GAUwTTkA0q87fuB42kVO8wPXLAznm+qC+swTtJjq0L7ahRj9Yrp4ox/Rn+nlAPofcWCqW+6xg7bXyCdM7CA2tOlpiCnElqkuTOyEzXctdlKGfz14xIovho7Gl0MneFJlgliOQAwjlhHTiG2PUE0XJYIgiDBQSdUjVvxCwgUIjOz9iiGI5QYvfhHLiGnENgmVIIioYSRVwLvg+MmVIJY7EMskVIIgMgWVVD34yZUgVgpMsU4QBLFYzEmq6TBdoAhiqcMUywRBEFEjzxsSM1VCYaVdkDSlGrbHcytTnTeMbKpDuabawvE0P0zqKwDqN00hBj80FRuUcZof2EdTR8IPkxoQZZqPOFaQH5ryEPsE9ZnJDyDID63P0BZBfab5EdRnQbET1GdhYyeoz0zli4mdoD6LOnaC+ixs7Cw0z4Lyfa7YCeqzbMUO2ils7Gh9pvmBY0UdOzhXtmIHbRgmdpY6V8wVO0F9ZvIjD19Ycx5KSa0zNUk2ttek0DiP9sVQrvkBCbXWmZofaChNCo3G0Doajas1IgQvWmdC9q4Ftyajx7FwTFMdgkMLOPiuBT6+sxZUWluhbbWpD2gLLeCC+iybsRPUZ0Gxo/VZ2NgJ6rO5YsfUZ2FjJ6jPshk7YfM96tgJm+9Rx07YfA+KHa3PgmInbL4HxU428z0odoL6TPMjbL5rsbPg4V+CIAiCIMwgqRIEQRBERCCpEgRBEEREIKkSBEEQREQgqRIEQRBERMiDkipqRVcYNSCUVGEUXZrCDYquMGpAKPA0NeBcKjyTGhBlYdSA8EFTA86lwtMUnGHUgOgTTQ04lwovSjUgvm9Q7AT1WZSxgz4LEzvYh7GTxEqIHVOfBSlJ54qdoD4Lih1Tn8G3oD4Lip2gPguKnTB9FhQ7QX0WFDtR5ju+70LzPQ+FmhNwXksy7UTYXusUBIbWGCjXAgfOax0W5IfWKfi+WiKhEbXACfID59IujJofOJaWSEF+BPWZ5gegtVWQH0F9Bj+0Pos6doL6LOrYCeqz5RI7QX221PN9ucTOQvsMfgT1WZT5jjKtrRaT78shdhaa74uJHVOfcfiXIAiCICICSZUgCIIgIgJJlSAIgiAiAkmVIAiCICICSZUgCIIgIkIepMSauqm7u1tVe3V0dBjLsX1PT4+xDoozTUKNck2BBUm2pvaKx+PGcijA4L+pDt9Xk71DIaap9yDJ1hR6nZ2dRvUbylCXXg7gWJrMGz5oajX4HtRnmvpNayu0rSZ7R59ofYbY0VSEiIGoY0eTvWN6QNjYMSkn0X5dXV2zygEo/sLGjqZmxLlMsQPfwsaONmUiE7ETNt+DYkfrs6DYCcr3sLETlO+m2EE/ho2doHyPOnaC8l2LneXAFUGxEzVXoJ1M+Z6HL2bqFADOmQIH0IIN22tfCufRGh7lWkJn0w/4EOSH1laaH4BWF9aPbPYZfAjqs2z5EdRWKA/qs2z5EbbP4MdCfcSxgvosjB9RtxV8COqzbPkRts9wvKA+M5XDj6A+C+NHUFvhXAttKxwrqM/C+JHNPkN5UJ9lyw+trTj8SxAEQRARgaRKEARBEBGBpEoQBEEQEYGkShAEQRARgaRKEARBEBEhDxJkbRpAe3u7qoqKxWLGcmyvSahxHk3KjekBmqQcUmhNudXc3Gwsh2Krra3NWAc5tiahhnxak3JDvq5JyltbW43KOJShLr0cwLE0+T180KYBwHdtOgK+s0mtBoWb1lZoW01ujj7Rpm6gL7XYQQxkM3a0aQD4Xtp0hJaWFqNSEIo+LXbQ7lrsoL+ijh34mF4O4FjalAn4oE0DQL5r0xGQ75rSMROxo+U7YkDLdy124Df8N9Xh+2pTN9BOWuygfcPEjpbviB0t3xE7Wr5jn6B8NylQ4ZsWO/hOWuygLaKOHa3P0MdLhSvCxo4p33mnShAEQRARgaRKEARBEBGBpEoQBEEQEYGkShAEQRARgaRKEARBEBEhD8oxk4oNCKrTlF7Y3qRGA6BmNKkc56oL60fUPobxA1jJfkTpY5AfK6GtlrofYXwM60dYH8P4EdbHMH4A2eyzpeJHGB/D+hHWxzB+hPExD7JgTa4NKbfmiDblANMiNNk45MmaXBtycm16BqYwaNMzNCk0GkKTjWM6gib1h0Rak2tDWq1J7CENNzUwyjTZOI6lycbhgyb1h+/a9Ax8Z1MQIDi0toIEXZsmgj7RpP7oS01ijxjQ+kyLHcSaFjuI0bCxo0ns0R6mBET7adNE0O5an6G/tNjBPlrs4FxhYkeT+sMHbWoPYkfLdy12AC120Mda7CA2tNhBedSxo+U7vm9Qvmuxg/bVYgf9Yood9FnY2NHyHfto+Y5zafmuxQ6+kxY7aIuwsZNNrtBiJ2qumCt2TPnO4V+CIAiCiAgkVYIgCIKICCRVgiAIgogIJFWCIAiCiAgkVYIgCIKICHlQgmmqLSjOTKpEQFNfYXtNqYbzaGq6qP2A+k1TqkHtpSkxoRzT1GPYR1NH4lwmNeBS8QNY6n3G2EktZ+zMrmPspIJ9loql0Gd5kHFrO0HSrHWmJqPHl9Wk0PjC2pQDSLm1BoaEWmtETRoOvzUpNDpFk6+j4bUGhoRaC3zI3k3BjTJNRo9jafJ1+KAFAXzXAg7fWQsqra3QttrUB/SJNuUAfRll7GB7LXZwnkzEjqnP0H5hY0frM/Sz1meID1OfLSZ2tD4Lynd852zlO8q1PsPxtD4Lih2tz/B9tT5DO2n5jtjR8j0odrQ+Q/9rfZaJ2NHyHd9Jy/eVHDthuCJM7HD4lyAIgiAiAkmVIAiCICICSZUgCIIgIsG0/H9lM6nbNpvT/QAAAABJRU5ErkJggg==;" vertex="1" parent="1">
          <mxGeometry x="177" y="-210" width="469" height="209" as="geometry" />
        </mxCell>
        <mxCell id="uFFMmfKACldLguCO9u6B-6" value="" style="shape=image;imageAspect=0;aspect=fixed;verticalLabelPosition=bottom;verticalAlign=top;image=data:image/png,iVBORw0KGgoAAAANSUhEUgAAAt0AAAHJCAYAAABZmIXiAAAAAXNSR0IArs4c6QAAAARnQU1BAACxjwv8YQUAAAAJcEhZcwAAEnQAABJ0Ad5mH3gAAIvaSURBVHhe7f3rTxtpvv0NP//TPG/61Wi/2GqNtKWRRhqp1VJr+tb0/KSd0aPs2ffO/LboO8q0kkkmPfmR5Em6J4cdMiEhARrCcYAQEschAYeYBifgxhDHnGzcdjgYAnGAzLqvb7nKVJXLNCefYC3pI1zfq6pWAXVYvnxV+f+zsrICQgghhBBCSO5g6CaEEEIIISTHpEP3wsJCRqOQSCSwvLycUV9aWtKw12VeWcZeF+hhrdODHmboYa3Tgx5m6GGt04MeZuhhrRerRzp0T01NZTQKkUgEb9++zai/efMGc3NzGXXZgGg0mlEX6GGt04MeZuhhrdODHmboYa3Tgx5m6GGtF6sHh5cQQgghhBCSYxi6CSGEEEIIyTEM3YQQQgghhOQYhm5CCCGEEEJyDEM3IYQQQgghOSYdukdHRzMahVAo5PiolJmZGcTj8Yy6PCYl212b9LDW6UEPM/Sw1ulBDzP0sNbpQQ8z9LDWi9WDPd2EEEIIIYTkGIZuQgghhBBCcgxDNyGEEEIIITmGoZsQQgghhJAcw9BNCCGEEEJIjkmHbrlr09xgIHdmOn0XfSwWw+zsbEZdvotevr/eXhfoYa3Tgx5m6GGt04MeZuhhrdODHmboYa0Xq0c6dDs9JkVw2gCjvry8nFGXWrZl6GGt08O5Tg8r9LDWBXpY6/RwrtPDCj2sdYEe1jo9nOt75cHhJYQQQgghhOQYhm5CCCGEEEJyDEM3IYQQQgghOYahmxBCCCGEkByTDt3y3fLmBgO5a9NpoPjc3Jz2vfP2ugwef/PmTUZdoIe1Tg96mKGHtU4Pepihh7VOD3qYoYe1Xqwe6dAdj8czGgV5TIrTXZuyAYuLixl12QjZQHtdoIe1Tg96mKGHtU4Pepihh7VOD3qYoYe1XqweHF5CCCGEEEJIjmHoJoQQQgghJMcwdBNCCCGEEJJjGLoJIYQQQgjJMenQLQPFzQ0G8t3yTgPLZQC5YK/LvLKMvS7Qw1qnBz3M0MNapwc9zNDDWqcHPczQw1ovVo906J6amspoFCKRiOMjVOQxKU53bcoGRKPRjLpAD2udHvQwQw9rnR70MEMPa50e9DBDD2u9WD04vIQQQgghhJAcw9BNCCGEEEJIjmHoJoQQQgghJMcwdBNCCCGEEJJjGLoJIYQQQgjJMenQPTo6mtEohEIhx0elzMzMOH63vDwmJdtdm/Sw1ulBDzP0sNbpQQ8z9LDW6UEPM/Sw1ovVgz3dhBBCCCGE5BiGbkIIIYQQQnIMQzchhBBCCCE5hqGbEEIIIYSQHMPQTQghhBBCSI5Jh265a9PcYCB3Zjp9F30sFsPs7GxGXb6LXr6/3l4X6GGt04MeZuhhrdODHmboYa3Tgx5m6GGtF6tHOnQ7PSZFcNoAo768vJxRl1q2ZehhrdPDuU4PK/Sw1gV6WOv0cK7Twwo9rHWBHtY6PZzre+XB4SWEEEIIIYTkGIZuQgghhBBCcgxDNyGEEEIIITmGoZsQQvYQGctHSDHhNB6VEJJ/0qFbvlve3GAgd206DRSfm5vTvnfeXpcD/M2bNxl1gR7WOj3oYYYe1nqpecTjce0O9/6pZVT0zeFy7ywhBef29/MIxVP7ejQa5XFugx7WOj1y65EO3XLBMDcYyEXE6V2ybMDi4mJGXTZCNtBeF+hhrdODHmboYa2XkoesR06+X7ti+P+ee0VI0VHnW9BCheyr5n1X4HGeWaeHtS7Qw1rfiQeHlxBCyC6QnhE5Kdf75h3DDiHFgj+yqAUFp948QkjuYegmhJBdICFGekgO3Q07Bh1CioWrvW+0N4iyzzrty4SQ3MLQTQghO0R6DOVbyeRj+0+rJh2DDiHFwhlX6pv1ZJ9lbzch+YehmxBCdogRuuUGtVD8HcZ+XCGkaBmcWtbeIDJ0E1IY0qFbPnIyNxjIwek0sFw+nnL6iErmlWXsdYEe1jo96GGGHtZ6KXhIcJmfn0ckEtFCd2L5PSFFi4RueYMo+6w5dJfyMWiGHpl1eljrQiE90qF7amoqo1GQi4nTO2K5U9/prk3ZADmo7XWBHtY6Pehhhh7Weil4yE9Zr9Qm3jB0k+JmOLKMcDicEbp5nGfW6WGtC/Sw1nfiweElhBCyQ+QELSdjOVn/mHAOOoQUC7KPyvOD7aGbEJIfGLoJIWSHmEP34sqqY9AhpFh4q/ZRhm5CCgdDNyGE7BCGblJKMHQTUlgYugkhZIcwdJNSgqGbkMLC0E0IITuEoZuUEgzdhBSWdOgeHR3NaBRCoZDjo1LkwHX6bnl5TEq2uzbpYa3Tgx5m6GGtl4IHQzcpJZZW3mN6ejojdPM4z6zTw1oX6GGt78SDPd2EELJDDmroDr98hkcuMwN4Mf3WcV5SPLCnm5DCwtBNCCE75KCG7t6//ho/+xc7n+Kzi0OIO8z/08TQevQQPvn0a7ROOLWTvYChm5DCwtBNCCE75KCH7uNt8wjPzCPUX4tDH0vtMG4ENuaLx6R9kx7wWdU+K6+nceffZfky3Hltm0dHW5c2r43Ft9o2OLbpaMvOm6Zl/s22a5/C0E1IYWHoJoSQHXLQQ/fpJ5m1P7bMI/HKhaOffKpNa/ziME53xUzzleGby1/j59L214GMnvND1dNIvG7FIZn+cwPu/qexLmtveujeN/jsF8Zyn+JfjzTgRUzajBD/jfI5hI/0dcaf38IX6fkVvziCq8/V9urr2+8wdBNSWBi6CSFkhzB0G7WYCsZ6za2//vgIzrpCG73gH5/Fo1lj2U/x0S+P4Hj5FZxtCSH88h5Ofyr1Qzh99xl6X73dCN0f/waHzt9DZ+XX+ETrTdd7wwMN+Ey1f/TbK+h8GYC3+ix+JdPHn6hQboTuT/Hzz/6M08rnRm8/vvllavmr/dMb2/XL6/Dafr/9CkM3IYUlHbrlrk1zg4Hcmel0cMZiMczOzmbU5bvo5QJkrwv0sNbpQQ8z9LDWS8FDfh7k0P3Z/1ahufws/uNXek/0r6+g1zTMQ4ZxhFSgPq6HXQnL6cDuNq/TYXiJEbp/24ARfb5Hf9aXVWH/xbVD2uvjLbHU8JKZEO78XtrVNqTXdwR3XhkeQ3ro/gJHK5/hxet5xBeNtoOBPL0kHA5nhG4e55l1eljrAj2s9Z14pEO302NSBKcNMOrLy8sZdallW4Ye1jo9nOv0sEIPa10oFg95zRspFb/4Al/871r0zkj7PF5U/hn/qvVKS9tv9Ne20G0amrJp6P73VoRsvrJsxjakkXU4rE8hw0sO/dI07EV60S/v9ObP0iNbT3eujg97nR5W6GGtC/vdg8NLCCFkh8gJl8NLbEwYYbkBL7SbF60BeK9Ct9HTbe4xj8eMmyOdQ7d206WaJz47j5Entfij3gN/94A8MYXDSwgpLAzdhBCyQxi6HdrTofsWvK+n8aIpNdZ689Bt1D/FZ+WteOQ3jenOErqNMd0/+/XXuNH2DI+aruAz6VH/XIajOITu2Sc4Lu0fl+GbJ6GN0K2PNTdvy36FoZuQwsLQTQghO4Sh26l9Hr3nD6eeTKL4+X+24o42Fnvz0J141Yr/0J8s8m8Xh346dKvpcK/1aSQ//1/X8Ujrtd7a8JKPflnGp5cQQvIGQzchhOyQgxq6t4QM5chTD7L9Odw/yezmz/XerzB0E1JY0qFbDkRzg4Hctel0cMqFRr533l6XweNv3rzJqAv0sNbpQQ8z9LDWS8FDfsq6GbpJKSCh2+npJTzOM+v0sNYFeljrO/FIh+54PJ7RKMhjUpzu2pQNWFxczKjLRsgG2usCPax1etDDDD2s9VLwkBO0LM/QTUoBCd2yr9pDN4/zzDo9rHWBHtb6Tjw4vIQQQnYIQzcpJTi8hJDCwtBNCCE7hKGblBIM3YQUFoZuQgjZIQzdpJRg6CaksDB0E0LIDmHoJqUEQzchhSUdumWguLnBQL5b3mlguQwgF+x1mVeWsdcFeljr9KCHGXpY66XgwdBNSolsN1KW8jFohh6ZdXpY60IhPdKhe2pqKqNRkAPU6R2xPCZFLjb2umxANBrNqAv0sNbpQQ8z9LDWS8FDfsp6pfbj3FtEZ5cIKVpiC28dHxnI4zyzTg9rXaCHtb4TDw4vIYSQHSInaDkZy8l6fukdFpaShBQtso9yeAkhhYOhmxBCdog5dH/48AEUVcxaW1tj6CakgDB0E0LIDmHopkpJDN2EFBaGbkII2SEM3VQpiaGbkMLC0E0IITuEoZsqJTF0E1JY0qF7dHQ0o1EIhUKOj0qRA9fpu+XlMSnZ7tqkh7VOD3qYoYe1XgoeDN1UKen9+/eYnp7OCN08zjPr9LDWBXpY6zvxYE83IYTskL0P3e/g66hFs/+dPr2h1bdLWFhZ06eog6kEgt4Q5tb1ybTWsJxI6q+ziz3dhBQWhm5CCNkhOwndMt8PY+N48cMrhH+M61VDMbSfP4UTD2L6tKEYmk9+ic+vD+vT1MHULAYej2AmI3QH0VjnU3vJ5mLoJqSwMHQTQsgO2Unodj8bQO/3L9Hb/xL33B68ngzrLaI1hP2D6A0taVOr8WE017bDPRlEPUP3vlQiGMLMsj7xJoJAWHqsk5jxR5BIVZEMhzD+Rntlqq8hFvDj4QMfAnGGbkJKAYZuQgjZIdsN3aOhKfSosC2S4P3DWAhuz4A2nZKpRzvqwrE/qNdHL+PEX07h0H8zdO9HDbe74I7oEy89qHw6q17Mwl3ngfHfjj11oVHbbTbqsR43qh6owD4XxfNOF64ydBNS9DB0E0LIDtlu6O5+Pgi/Ctqimfgb/BifxcMerzad0kboDnecw+eHb8CtDdWdQPUxhu79qJ2F7gge1vUhqLUqzflRxdBNSNGTDt1y16a5wUDuzHQ6OGOxGGZnZzPq8l30cgGy1wV6WOv0oIcZeljrpeAhP7causenZ1Df9hCx2XnMLSwiPpfAo97v8WLklT6HaCN0+6uPq9BdhVQk55ju/aqdhW77cJKtDS+Rp5eEw+GM0M3jPLNOD2tdoIe1vhOPdOh2ekyK4LQBRn15eTmjLrVsy9DDWqeHc50eVuhhrQvF4iGvtxK6g+NT6cDt+X4IDR1uuHr68XIk3VepayNcL7gvq9B9HBf65rAQup8aasLQve803N6Fzley73zAXI/bFLq78XxR5lhD4F6nLXQn4Gl0w6ON81Z61b+r4SW5Oj7sdXpYoYe1Lux3Dw4vIYSQHSIn3K2E7h7vC/R8P4yOR7147BnAQiJ1o2SmTD3aH9TrM8dU8FbTx2/g9HGG7v2opL8PV2934mqtC23t3XroVntCrxt/0+rdaGnLHNONqSFU3XGhrq0bVV0e1HB4CSFFD0M3IYTskK2G7uDENKru3kP7ox6sb2HsN0VtTR+w/n7r+xNDNyGFhaGbEEJ2yFZDt0jCNgM3VUgxdBNSWBi6CSFkh2wndFNUocXQTUhhSYduORDNDQZy16bTwSkXGvneeXtdBo+/efMmoy7Qw1qnBz3M0MNaLwUP+SnrZuimSkGrq6uOTy/hcZ5Zp4e1LtDDWt+JRzp0x+PxjEZBHpPidNembMDi4mJGXTZCNtBeF+hhrdODHmboYa2XgoecoGV5hm6qFCShW/ZVe+jmcZ5Zp4e1LtDDWt+JB4eXEELIDmHopkpJHF5CSGFh6CaEkB3C0E2Vkhi6CSksDN2EELJDGLqpUhJDNyGFhaGbEEJ2CEM3VUpi6CaksKRDtwwUNzcYyHfLOw0slwHkgr0u88oy9rpAD2udHvQwQw9rvRQ8GLqpUpKEbtlX7aG7lI9BM/TIrNPDWhcK6ZEO3VNTUxmNghygTu+I5TEpcrGx12UDotFoRl2gh7VOD3qYoYe1Xgoe8lPWKzWGbqrY9f79e8dHBvI4z6zTw1oX6GGt78SDw0sIIWSHyAlaQszDhw+1XsRS0WpkGL3Bd/qUSR/WsLxSOr9H6egDkokVrOtTG0pi5sUoxhf1SSe9mcBz/7w+sTtxeAkhhYWhmxBCtol81PjDDz+gra0N//M//4OKigqsr2dGqmLV6ogLzX6H0B11oez6sD5B7Z1m4a7zIPMvm0Swx4fAZqE7MoqH/TF9wkmz8LT0I6BPbSaGbkIKC0M3IYRskcnJSTx+/BhVVVW4desWXC4XAoGA9rHkXg0vWQgFEE7qE/MT8EX0nufVOfhd7bjZMYjxlVRJxSjERrpRXetC7+RSuhYOxRCb9qK6JYAFvWqReb0fljDe78LNJi/GgwzduVEqdL+Yj+L54364h2fTvd6JYAgzy6nX69EJeKTdP485o74cQyCYUC+SmAnGkIiG4H4wgOfjb7VlEsEhNNa40Tm4sZ5sYugmpLAwdBNCyCbIt5T19/ejvr4eN27cwL179zAyMqL1dktwkbF+exm6vdfPoTmqT/iqUNYhvZwRVB+/iOqRORXK7+PYeQ+kGr5/EcdqhzGeiMB95RTKPdJ7HUPz+VM4Xa/qs0tYlfXYlV7vGny3zqHcNYFYPIjqb0/hEEN3DiShuxOVnX6MR6MYfuDC1a4JrWW43QV3RL2IDKGqoR/DkwnMePtQeceo+1DZHlQv1Doau1DzWP2vVDh/WO/Cw3EV1Jem8LCuB8/n3iL5Ex+2MHQTUlgYugkh+wK52UVuXpGe5++//x7Pnz/fMX19fejq6sJ3332Hv//976iurkZHRwc8Ho9lvmfPnuHp06d48ODBng0vyR66L6M+NIfVdLafQPWZu/AllrAgRLtxQoXxBQndJ6vg1edylLHepBfl2jK6Ru4ydOdEErrd8LzRJ9X/82GtRxsSYoTuoNrf2tJjRJIYaHEI3aYhKrGnLjS+lFfW+mZi6CaksKRD9+joaEajEAqFHB+VIgeu03fLy2NSst21SQ9rnR70MEMPa32rHkNDQ2hqatLCsXDnzh20tLTgH//4R5rm5uaMmtDa2qot61Svra3F7du3UVlZqf2sq6vT1tHY2GiZr6GhATU1NTkO3UrSm91UhRNfnUJZbQDLKmZd+O+LKL9Vi0sG2nCSbYRu+xhujunOkSQY9+BFehfZCMpG6E73eOva6AHfu9AtTy+Znp7OCN08l2TW6WGtC/Sw1nfiwZ5uQkjJYoRtGfIh462dHuu0W/I/vOQUbkrGUordv5gKx6sxeIf08I0I6r+SUL2ErvPX4DbGd69E4AvJuO5thG4EUfHVXfj0TV/uuYbPGbpzIAnGnWgb0f/QiyOoq/dpQ4SMcJ3wdqOyW/8fLwbReJs93YTsNxi6CSEliQzpkMAtw0mc2nNBPm6kXB26i8N/PI7DX51DxfVrejh+B++tMyi7VIsLZ9VPradbKeLBaTVf+a0bKDt6DtUjcnPkdkK3Ctq+Whw+dhkXLl3G6dtVOMLQnQNJMO5GY6cbNW09qLzjhjuUuls23aO9/haBB25crelCRcsQ3G1bDd0fEHzQhb/d6cHAnNaUVQzdhBQWhm5CSMkxMTGhBW55RrZTe66RXu6CPDJwdc00pntDq8lsz9YO4OaxUypUb3Da7ZTM1Hod77ik9lwrSYfndSup0J2YN/65qTHdT4xhRnskhm5CCgtDNyGk5JDx1NLj7NSWTyS4lOKX41BFqPgIGmtdqOvsQ2NjFyruBVOfZuyhGLoJKSwM3YSQkkKeUiK93DLUw6k9n0hw2esx3dRBlnxzZQLLK7nZlxi6CSks6dAtd22aGwzkzkyngzMWi2k3GNnr8l30cgGy1wV6WOv0oIcZeljr2TwkbEvodrppMt+/h/xk6KZKRfL0Evlkxh66eb7KrNPDWhfoYa3vxCMdup0ekyI4bYBRX15ezqhLLdsy9LDW6eFcp4cVeljr8uQQeYSfvS7slYewld9DXjN0U6WibD3duTo+7HV6WKGHtS7sdw8OLyGElBTyxTfy3G2ntnwjJ1yGbqpUxOElhBQWhm5CSEkh3wQpN1I6teUbhm6qlMTQTUhhYegmhJQUDN0UtTMxdBNSWBi6CSElBUM3Re1MDN2EFJZ06JYD0dxgIHdtOh2ccqGR752312XwuDzSy14X6GGt04MeZuhhrWfzkNCdbUx3vn8P+SnrZuimSkGrq6uOTy85qOcSgR7WOj1y65EO3fF4PKNRkMekON21KRuwuLiYUZeNkA201wV6WOv0oIcZeljr2TwkdLe0tGTUhXz/HnKCluUZuqlSkIRu2VftoZvnq8w6Pax1gR7W+k48OLyEEFJScHgJtd+1vvQWScfvit+dOLyEkMLC0E0IKSkYujdXzH0NN/36BFWSGm53wR3RJ/ZQDN2EFBaGbkJISbHfQ/dCaAKxRATupmY090ewYKz2wxLGh7pRXetC7+RSqpaMYSwyh/GedtQPqdr8BNqvncKJ+kH4Imva9NisWk613+wYRmw1tZhoNR5Eu81D854NoLnWg/FUifopzUcwHEzoE0rxKQTCSfXiAxLjIXge98M9GEVC67lOYiYYw9zkCB4+DkFbaj6KF0/78fCZ+tu/l4IeuseieK4vu5wqA+tvMTXsx8MHPrwYf5uqLccwHp7HjHcAD4dN2+Eghm5CCgtDNyGkpNjvodt7/TiOXLsPf3wO/rbLOFIdVNU1+GsvotwlgXwC9V+fQfW0KkddOHH0Gm76IqquQvbqO/gbzqC8ZwnLkvt8VTh08i7c0xK8b+DwlUFouVstd+xMM7xG/ZJXC3biXXa7G2Oqng561OZan0Bb3QCmtIkkBlpdeKjesay/6kdVqx/j0QTGu12oeBxV7bNwN3ah5kEIM/G3SC6H0FLXDXdgFrHAACr19Qy3d+Bq2whm5lTwbu1CVZ+E6TUEH7hR90z9r+fUm7L6lA8iPlTVdKNzOIq5efmnZxdDNyGFJR26ZaC4ucFAvlveaWC5DCAX7HWZV5ax1wV6WOv0oIcZeljr2TwkdLe2tmbUhXz/HrkJ3WdQnx5aEEP9yVr49Cl8WMNyYg7eW6dwQYoqPJddH0616Qp3nEu1iVToLuuI6RPDuHDShbB6NdZwERVDS1hICDG0n7+MLpXrvNfPoVmyIbUtBbu60BZQL5ZHUVfvU/81Qx+QVPtL7GUfrrbLmycVuus86j+RUrK/G1W9G73Txlhuy/CSKR8qtGV1rSexPDeL4c4uNL5U0yp0V5rbN5GEbtlX7aE7V8eHGXpk1ulhrQv73SMduqempjIaBTlAnd4Ry2NS5GJjr8sGRKPRjLpAD2udHvQwQw9rPZuHhO6mpqaMupDv30N+ynqltneh2xx8Y2g+WQUv1uCrPoMjZ6twqalbG0Kym9AtPdrHrtTi0i2D+/AxdO9coQFUdk0gOdCTDtFJfx8qat1o7ByAp7fHMXTHnrpSwdkmS+hOh+okAircVzT2oOWxH5627Yfu9+/fOz4ykOerzDo9rHWBHtb6Tjw4vIQQUlLs/+ElX6Lc8y41seJF+fF2jEtg/up+epz1WP3uQveC+zJO9+geeIfxoQksqFcM3TtVFA/re9DY0g3PXKoy3N6Fh5Op13jV7xi6EVDBvHNCn1hB4OkQgslsoTuIxlpjGMsHjLt21tPN4SWEFA6GbkJISbH/Q/cZnL52GSeuVeHEV+dw0y/heA2+26dw+GwVLlxUbV9nD90YacbhslPauO5soRsfYuj69gzKLtWi/C+nUNYQ1MZ6M3TvXNJrfbF1FMaoaq2nu8aNxrZuVDW5nEO3BO0HLq33urGxC5WuCW35rD3dname7sYWN2rqGboJKTUYugkhJcX+D9168E2upW56NCv5Dqt7Y5PSqvLYy/VRVsn465Ut/IHfJ7f+XG613+30Gd4M3YQUFoZuQkhJcWBCN0XtsRi6CSksDN2EkJJiv4duisqVGLoJKSzp0D06OprRKIRCIcdHpciB6/Td8vKYlGx3bdLDWqcHPczQw1rP5iGhu6GhIaMu5Pv3YOimSkny9JLp6emM0M3zVWadHta6QA9rfSce7OkmhJQU7OmmqJ2JPd2EFBaGbkJISVFsoVsCjASZ9fUd3t1GUXnSu3fvGLoJKSAM3YSQkqJYQ7d8UcI///lPPd5QVHFJPomRj89//PFHhm5CCgRDNyGkpCjG0C1BZnx8HIuLi1q4YfimikWyL8qnMDIManJyErFYTHuDyNBNSP5h6CaElBTFFrolwMjXBMvXaweDQQwPD2tBXG6ykZ+EFArZN2dnZ/HDDz/g9evX2ldWy7S8OWToJiT/pEO3fOxkbjCQOzOdDk55tywHr70uB7ncVGSvC/Sw1ulBDzP0sNazeUjobmxszKgL+f495KcEGAk4Mr/csS7hJhAIwO/3a7x48QIejyc9bebx48eO9Z6eHgwNDWXUvV4vvv/++4w6PehhxuwxNjam7Zuyn4+MjGjHgf0Y4fkqs04Pa12gh7W+E4906HZ6TIrgtAFGfXl5OaMutWzL0MNap4dznR5W6GGtb9bTvVcewlZ/D5mW4C2PlJJhJnISlo/xJyYmtCEncvKVIC6v7UjPuFM92/xSl/XZ6/Rwrh90D9kH5RGBxiPPJDg49XLn8vgw1+lhhR7WurDfPTi8hBBSUhTT8BIDOfEaPd4SbCTgyEf5BhJ6CMkX5n3PCNuyb3JYCSGFhaGbEFJSFGPoFozgbYRvMxJ6CMkX9v3PCNsM3IQUFoZuQkhJUayhWzCCjRkjiBOST5z2Rad9lhCSPxi6CSElRTGHbiecwg8hucZpXySEFJZ06JZxYOYGA7lr0+kAlmd+yiOx7HUZPC6Pz7LXBXpY6/Sghxl6WOvZPCR0Nzc3Z9QF/q2sdYEe1jo96GGGHtY6PXLrkQ7dcrOFucFAxoc53bUpGyAfYdnrshGygfa6QA9rnR70MEMPaz2bh4TulpaWjLrAv5W1LtDDWqcHPczQw1qnR249OLyEEFJSlNrwEkIIIURg6CaElBQM3YQQQkoRhm5CSEnB0E0IIaQUYegmhJQUDN2EEEJKkXToloHi5gYD+W55p4HlMoBcsNdlXlnGXhfoYa3Tgx5m6GGtZ/OQ0N3a2ppRF0rp9xDoYa3Tgx5m6GGt06P0PdKhe2pqKqNRiEQijo9QkcekON21KRsgXz1rrwv0sNbpQQ8z9LDWs3lI6G5qasqoC/xbWesCPax1etDDDD2sdXrk1oPDSwghJQWHlxBCCClFGLoJISUFQzchhJBShKGbEFJSMHQTQggpRRi6CSElBUM3IYSQUoShmxBSUjB0E0IIKUXSoXt0dDSjUQiFQo6PSpmZmXH8bnl5TEq2uzbpYa3Tgx5m6GGtZ/OQ0N3Q0JBRF/i3stYFeljr9KCHGXpY6/TIrQd7ugkhJQV7ugkhhJQiDN2EkJKCoZsQQkgpwtBNCCkpGLoJIYSUIgzdhJCSgqGbEEJIKXKgQrcMkBecvlufEJLCOE6c2ooBhm5CCCGlSDp0y12b5gYDuTPT6bvoY7EYZmdnM+ryXfTy/fX2ulBIj/HxcSRnZrF6txfJ//8/FK2EECe+acdq5yDevXun3bVdbMe5hO7GxsaMurBfzlf0sNYFeljr9KCHGXpY68XqkQ7d2Xq2nDbAqDv1GEst2zKF8pBa8lUY7/53JVb+f1cJIVsgea5FO3YWFxczjqlCHueb9XTvlYdQqPOVQA9rXaCHtU4P5zo9rNDDWhcK6bHvh5fILy7PUkx+0+YYLAgh2Vn9h1c7frKdWAoBh5cQQggpRfZ16JagIN3/i3PzjoGCELI5yf/TpH2sJm9eiyV4M3QTQggpRQ5E6E7E57F8qp4Qsk1Wrj3QxrPJccTQTQghhOycfR+65+bmMB+bRSIyTwjZLtEEotEo5ufnGboJIYSQXZAO3fKUAnODgfRyOV1sJczKWE97XT6GfvPmTUZdyLdHRuhefk8I2Q4qdMuTf+Q4Mh+jhTzOJXQ3Nzdn1IVSPl+ZoYe1LtDDWqcHPczQw1ovVo906I7H4xmNgozndLprUzbA6akGshGygfa6kE8P+cPJsvIHmV9IaOHBMVQQQrKyGF/E5OSkdryZT0aFPM4ldLe0tGTUhVI9X9mhh7Uu0MNapwc9zNDDWi9Wj307vMQeuhfnlh1DBSEkO4uJd9pzSOXE4tQDUAg4vIQQQkgpcnBC98qqY6gghGRHjhuGbkIIIWT3MHQTQrLC0E0IIYTsDQzdhJCsMHQTQgghe0M6dMtAcXODgTyf12lguQwgF+x1mVeWsdeFfHowdBOye+S4mZqaygjdhTzOJXS3trZm1IVcnEvs0MNaF+hhrdODHmboYa0fZI906JYLq7nBQHq5nHq4JMzKhdhelw2Q5/ra60I+PRi6Cdk9cty8fv06I3QX8jiX0N3U1JRRF0r1fGWHHta6QA9rnR70MEMPa71YPTi8pFSZnUav6xke9U4jbq5PB/BI6i9j1vn3mu36xAK486cj+OTTQ/jkSCtGnOYpJP238MnHn+I/7k47tx9Q5LiRE5GccJxORoWAw0sIIYSUIgzdpcrrVhz6l1/jZ//eipC5/uQKfib1vw5Y599rtunjvfgbbf6f/6+zOF495DhP/oih9agK/59+jdYJvcbQ7QhDNyGEELI3MHSXKtsM3fGZeYRn3lpqaWalbR7xRYc2YfFt5rKbhe55u9c07vy7mvdfynDntWk+QVv3Jt6KeEytb95Wl22eNU2LZ8zh99PXb11+k+2xo/0uW9g+87bsIxi6CSGEkL2BobtU2WLojj+/hS9+IQFT5xdHcPW5/pX4sQBuHPkNPkq3Hcbpe/pwEX09h87fwlFt+SvoNTxM7SkfI8R+gzvfHcPP9fV99Nvr8MaMNhOyzGIMnX85nJ73Z//yKb64PICwFm431vfN5UPa9h2q9jl4fIpPzg/ghcnz5//ZihFtHfPwXj5iWf+/HmnACxWOe/9q1FIcqp7OfBNh/9t8fAhHm0KpNuNv/+cG3P3PT/X1fIrPLg5Zh/rsAxi6CSGEkL2BobtU2VLoHsI3v5RAWIar/dMI9dfi0Mdq+pcqDC+/xaPjEhi/wNFKFVxfPsM3v5fpw7gR2FjPRx//Bl/86QrOlrus47AdQ7cKtr+/jrttDTj6SSqMHqoex0jvPZz+VNoP4fTd1DjwkcrDWvuvyhrQ6XLhRtkX+vwyvGNjfT//7M84XX4FN3rH0rVPjqplmq7gM/ldZBt/eyXl+etU+9letX3Pr+PftPW3wvs6hM7jqfV/VhlC+KV1e3pfvbX9PsbfRgXp8nt45LqHs7+V6d/g9BM1r/G3V3+bQ+fvobPya3yibcsWes5LDIZuQgghZG9Ih+7R0dGMRiEUCjk+KmVmZsbxu+XlMSnZ7trMpwdDtzl0S7B+hhevTcMkZp/guMz3eS282tAThesK/lXVLD2/f362sW4zjqH7CO680tvd3zi0G6E0hBta6D2Gu9P6/Mbv82ktXjitL2Md7/HozzJ9CDf8qemRqiNq2gju+nLa8JAQei+WaW3O26Mw/z7G30benBh/L9Wu9Xr/6Qnixrb+tiH9RiS1Lb9WoVyff58gx83Y2FhG6C7kcS6hu6GhIaMulOr5yg49rHWBHtY6Pehhhh7WerF6sKe7VNlS6E4NLzn0y1Svs4b0zl4e2giOTsiytvVk4Bi6s4TYjPYBnNa8zENWzDWH9TnUUsNENqZD1algrYXuiSc4/Znxe3+KfzX+BlvZXqe/rbnm0G4MWdmPoZs93YQQQsjuYeguVWZc+KMEv4/PojO2Ue8tTz0l5JNr+vhjuZEw9hbx2XmMPKnFH/XhJncDem+uqbdWm9e44TCnodvo6TbNbwRZS0+3qX2bobu3XB8O0mUdo76l7TV6uj9WbwA26+lm6C4IDN2EEEJKEYbukuWtCpapccpyA+Qf/3IFx3+v3/j3sQrVEiYlPMpYYzX9zZPQRuhWQf3RrH3csjGu+lMc77KPcbZ7K7YTYh3ajYCsjcdOj5n+FIe+M4/pNq1vh6H7eEsI4cCAPl7d2B5jWfndW/HInzmmu/evqTcv2pjz9HjxL3C21zSmm6G7IDB0E0IIKUUYukuZxRgenS/Dv+o3FAo//+ws7gzqTydR2IeXfPTLso2nlyyGcPdo6ukgWrs8oaM6kHoCR45Dd2JxHr2XTdtuDHvR1r/70J141areYOi/t/q9zlarv0N6e9T8qv0/9Ke6/NvFoczfV/42fzI9XUW9sTneoo8VZ+guKAzdhBBCShGG7n2C9hxu+7Oszdifa23G6Tnc+WILz+neDfIM7V2tu5B/myKAoZsQQgjZG9KhW+7aNDcYyJ2ZThfbWCyG2dnZjLp8F71cpO11IZ8eBy10E5IL5LgJBoMZobuQx7mE7sbGxoy6UKrnKzv0sNYFeljr9KCHGXpY68XqkQ7dTo9JEZw2wKgvLy9n1KWWbZl8ekg7Qzchu0OOm3A4nBG6C3mcb9bTvVcewn47J9qhh7Uu0MNap4dznR5W6GGtC9k8OLyEEJIVOW7knTyHlxBCCCG7g6GbEJIVhm5CCCFkb2DoJoRkhaGbEEII2RsYugkhWWHoJoQQQvaGdOiW75Y3NxjIXZtOF1u5CMv3ztvrMnhcgq69LuTTg6GbkN0jx834+HhG6C7kcS6hu7m5OaMulOr5yg49rHWBHtY6Pehhhh7WerF6pEN3PB7PaBTkMSlOd23KBkiotddlI2QD7XUhnx7yhzNC9+zcAsLxRYRjhJDtEHmziMnJSe14M5+MCnmcS+huaWnJqAuler6yQw9rXaCHtU4Pepihh7VerB4HYniJhO5371eRfL9GCNkG75LvObyEEEII2QMOxpju+Xn885//BEVR29OHDx8YugkhhJA9gKGboqisKsbQ3dvbi87OTsc2QgghpFhh6KYoKquKMXRLL7f0dju1EUKKAxkbK2NeCSkGnMZqF4J06JaB4uYGA/lueaeNNX4Re13mlWXsdSGfHgzdFLV7SeiemprKCN2FOs6lduvWLfj9fkvdIBfnEjv0sNYFeljrB9lDzhVy7Z2bX8HIWAI/EFIERKJv0/t5IY+PdOiWC6u5wUB6uZx6uCTMysFlr8sGRKPRjLqQTw+GboravSR0v379OiN0F+o4l3X//e9/x8jIiKVuUKrnKzv0sNYFeljrxeghwUSedlTXOo3f/Vc/IUXFt38Pqjz4VnsMrn3fFfJxDHJ4SbHqQwzu2ma4I/p0WmtYTixhOalPUtSmSmLmxSjGF/VJk9aX3iK5rk9kUbENL7l37x6ampoc2wghhUPOD9K719IZcQw8hBQDFypeafupU891PmDotmkq/CN6+1/iqfcFguPTerUASgZQcfIcKobW9IKhYVw4/CXKOmL6NEVtpiSCPT4EHEL3cLvL4U2dVcUUugOBgNbLPTQ05NhOCCkcEmLkOcf/91c+x7BDSLEw9npO66UuxDWNodukqZkYHvV+D/9YCC9HXqHz8TNEY2/0VtESxvoH4YukgvBqJKAC+gQWZCIRgc/VjktN3fBNLmntmlS9t6MZNzsGMZ7Qa/MT2nKx2QCa7wdSy2fI6rUw6UV1rQve+CBD90HXmwgCYeOjjgTG/TEVrdWrYAgzy6mqeR5zfT06Ac/jfrj983hRQqE7HA5rgZu93IQUH3JukBDzY2zBMeQQUkw8+z6m9XYzdO8hOwnd3pcjWuBefvcOrp5+PB/047nPr7eKrL3M4Y5z+PxwFbzJAC6VfYlDZ6pw6dpFHDp8HBUjaoZ5D07/V6p+4ewpfP6Hi2iOqrqvSi13HIeOHcfhbz1wjs8bXqtDtWqdX+J3Jy/jxF9Oaa8Zug+wXnpQ+XRWnwiisc6n7UOWnmvTPOl6ZAhVDf0YnkxgxtuHyjvFHbrFT8aHPn78WAvcDx48cJyPEFJY5FiVc4SE7ifeOCFFzcireW1/LcQQE4Zuk5o7nyD840bP9rOBYfRtJXQnPDih6keud8M/PYdYfAnLq3p7WS28s0tYSARx8yt9WS10n8LNoLaaLNrw8l7/Ep8fa8eYlJNelDN0H2ztMHRPPXKhLaCVlBLwNP506F5fX9fC7tOnT/Hs2TPtUX25pqenB62trdpTSiRsyyMCJyYmHI9zQkjhMUJ3NDaPyZllJJbfE1K0SOiWr2kvxBCTdOgeHR3NaBRCoZDju4GZmRnH75aXLvtsd23m02O7odvtGYD3xQ9YXVvDq/FpPBscwj23B2/mjTEhoiyhW72O9bej/MwpHPovFZD/cEobi+27pV7/90WU36rFJYMnKuVooftcqtc7qwyvcXSdV+s56ULYUmfoPrDaYei2tCvZp50kofvOnTtoaGjQgrAEYEFey1APY9qMzOtUb2xsdKw3NzejpaUlPS03S3o8Hm3s9g8//JBxjAv77Xxlhx7WukAPa72YPIzQHZ9dYOgmRc9wIK7t7/bQnY9jkD3dSj1eH/oG/Xg9Gcadpk50PenDi5Eg5hbsd58FcOkPX+LQJQ/G40HcPKnCsITu+CBu3mpG1/Rauif6UHUQq303tHBdL/WVAJpV6K73v9tm6I7BX31cG5pSH1pCrK+Kw0sOulSgvuqaSr3+cQhV6dDdhc5XH9SrD5jrcWeE7kSfG1W9+pvI9Sl01vx06C62p5cQQooLy7V2IYFIfMUx6BBSLCwsruDHH38sbE/3fmM7obvxnhvfD4/if+40YTQ0qVedFb5/Eb9Toffz/7qIiutGT3cMXd+eUq8lhH+J3x27C++KmvnDHNzXT6Xml/rJZvikvs3QjZVhXDqaWsehSzdwzKhTB1PLIbTUdOJvNV2o7PKgRg/dSX8frt7uxNVaF9rauzNCN9ZjeNLQicrWHtQ09qGxhaGbELI77KF7fsk56BBSLCwtv2Po3mu2E7rHVaiQ4D0x/RMJ5Kf0Yc35+dmqvrqqv85QKlwbgV0jPZSEonKg9/bHUGYXQzchZDPsoXtxZdUx6BBSLDB054DthO7CKvVlNwtm3m49FFFULsXQTQjZDIZuUmowdOeA0gndFFW8YugmhGwGQzcpNYoidMtdm+YGA7kz02mjYrGY9u1T9rr8EnKRtteFfHpYTgQM3RS1I0noDgaDGaG7WI5zO/Sw1gV6WOv02FsPWR9DNyklZucTjqE7H8dgOnQ7PSZFcNoAo768vJxRl1q2ZfLpIe0M3RS1O0nolm+DtIfuYjnO7dDDWhfoYa3Tw7m+Uw9pZ+gmpcTSW+enl+Ti+LDD4SUURWUVh5cQQjbDcq0t5tA9Pw1vUy3Oll/B1epneDHtME8hmJ1Gr+sZHim8E5nt8VcDWtsjVwBhW9vueIuRXlnvAEZmndr3LxzTnQMYuilq92LoJoRsRimE7viTK/jk41/jZ/9i5lP8x3fTjvPnldetOKRv00fHnyBuaY/h7n8a23sFvZa23TKNO/8u6y3DnddO7fsXhu4cwNBNUbsXQzchZDOKPnRLqNUC9xc4Wj2E0Mw8Rp7cSte+6bfNv/gWYTVPfHGjFlfT4d30BqsMEo69dW4zhe6f/cuf0Tpjags04LN0my10yzpt22khy++xMW0L3Ztt4+xWvEzL6tsWnjfNU0QwdOcAhm6K2r0Yugkhm1Hsodt78TdaaP3sWshSD7v1oSau6Y3g++fruPrJp+kgGrr3DT77hRF6f42f/69b6NVDce9fU7XTT/R1Guv491aE0oH2G9z57hh+blreG9vYBstyOv/RFEu3ec/Ltn+Kj7Q3CHroXoyh8y+H0+v82ce/wR8rA6ke8idXtNqhy604q/0eqv0Xx3B3cGBj+uNDOPtkXq1/I3R/8/ez+JW+vo8+UT7GNsYCuHHkN/hIb/vZLw7j9D19+wyv87dwVPsbqeUWp9F69NDG/GrbPznqwki2sF4giiJ0y3fLmxsM5K5Np42Si7B877y9LoPH5eCz14V8elhOBAzdFLUjSegeHx/PCN3FcpzboYe1LtDDWqfH3nrI+oo3dMdw9/cS/g7hht+pXccIvh9/is+OfKPCeAN6+/Ve5l9/jRttz9BZ+XUqmGqhequhW4XY317BXZcLN8q+0Kb/7a8D1iEk6eXO4vjn6ufnDRiR+uwTHJew/Z/X8Y22rlToHqk8rF6r7Sx34cXLIdw5Luv9FMe73qaD8Ee/OIKzTRueWi9/pQt3y4+kAvHvN9/G1DCXt3h0XIK6LDugvJ7hm9/L9GHcCKjtM7xU6P/iT1fU38yF71v+rNX+7U8qaM+E0Klt26/xxxYJ+abfucDI96E4he58HIPp0B2PxzMaBXlMitNdm7IBcqDZ67IRsoH2upBPD8uJgKGbonYkCd2Tk5Pa8WY+GRXLcW6HHta6QA9rnR5761Hcods2hEJqelhMo0JwOvj+Vg+8ihfXDmntGz3PxrpSAX5rodvkO30P/yHtH9uGiZiW8zYdU8v8Bt88f4+w9lrCdEhflywXwo1P5fVZtE7rQzj8Dan1yu9h/G7yWtb9qgFfyPSf9LHii89wWqa1dVl/H21+CfrSLttovP68Fl7xEVxX8K+qdqh6esPrz8/Sv0tYD91aiO8P7W5ITi5ZfOsYuvNxDHJ4iUlr6+uYCEe11xI2KGqn+vDhn1hdy+MbvfcrWF7Z+32Ww0sIIZtR3KH7LTr/JMHy041wPB1IPQ3ku29SPdfm0K33Yst8GaHaVtta6DYH7AFT4DVqtuX0YP7Rn27hG+n1/uV1eBfN6zLW4YAsbw/dxrqNacs2OLwxMLcbyzrhFPAFGV7yJ9PQF8XPP1NvEF4Z6y8OOKY7B2w3dP/4Zg6937/E7cZ7uPj377TwbQRwitqKEksr6B0YTfH9KAb8IQ3/2DRGQzP6XDnSSw8qn87qE3snhm5CyGYUd+g2eoxVkP19q2Vs8UhVmVbXem0dQrfR0621azVrz3A6dLv1dQ7ewifpdTj0Ihs93RKkdQ8Ni7cxpCO17n+7OGTylaBs9HR/g0fG7yI3MRo9yjsK3YdwdVBf3twbb/R0m3r/NS/j5kin0K2Ix+YRn1fzvQ6g868yFEb97cut8xQahu4csNXQ/X51Dc99P+Cbyjqsrq3h1Dc3MDA8ikBwAo333PC++EGfU7SGsH8CC/rUaiSAsXn9dTyI9qZmNPdHsJwqqcSyhPF+F242dcMfX0vVkjGMReYw3tOO+qElYH4CY7NqPjV9s2MYsdXUbNqyQ92ornWhd1LNp0n5h2KITXu1uk9lrNX4MJpr2+FOz6OUiKC3oxnVruDG+qicSwJ2cCKK5ZUkku9X07x/v47BH0KYiMRTMyZnEfTHkExNAYtRDAcT2sv16ASeP+3Hw2cTiL3XSkgEVeiNh+B+4MeUFNbfYmrQh87HfgSj+n4lobt7ClPeAXQ+HcXMYqqsdiQkxkPwPO6HezCKxLrUkpgJxjA3OYKHj0NIOTuLoZsQshnFHrql9/WONhZZhb9fluF4+RUc/71+c+CvVbiUmwYdQne69rGMj36WHg8t4V3mSY2tlnUcw+nyb/Afv1av0+swAq2a/7ff4E5TK07/NrUNv9KCtO5h9jG8n1/Hv8m0MXbaEro3fH9V1oBO18Z2fVapzuU7Ct1qGz+Rcev3cFbfxtS4c+MNgIwfv4dH6THf1vHj5tCd3rbj9/AisBG6tW3T5ykGGLpzwFZDt6jN1aOFbeH/XL2t9XD/7dZdXK5qwD8ePtXnEsXQfLIKXn0q3HEOF3zqxXQ7jnzdroL1EsbaLuKEe04V1+C7dQ7lLhWeVCCv/voMqkOqHHXhxNFruOmLIJZQgclXhUMn78I9LcH7Bg5fGcSqWtZfezG1bGIC9bLstDgq//NncKFDhelpD8qPn0J5k7weRsXJy+iS9JQM4NLJG2gPzSE20o5jx9sxxpEyedHLwCQWFpcRm02g70VQ4/nLoNY2GlL/b1VPKQFPQzcG9HdnU49dqBtQETzuR01jP4YnE4gNenC1dVQL5sPtnajs9GNc1ZdVJXDPhZqnat9QAf1hvQsPx9VMKnRfrOnBczXPjLcHVxv9kL1w/VU/qlrVstEExrtdqHgsn97Mwt3YhZoHIczE326EfwcxdBNCNqPoQ7ewGELnX8rwr+lndX+Kf/39dTwyvozGKXQrwr23cOiXRs+zLGN6+khsCFf/l972iyO42qTmTa/DCLRluFptPCNcLX+kAS+yPb0k7R3CDRla8p/39C/DsYbuxOI8ei8fMQ3h+BRfnH+GkPR87yh0m7fR9oQV9Xe7a34ayceHcLTa+qQUc+jOHF6iArvcVMmnl6RJh24ZKG5uMJCNchpYLgPIBXtd5pVl7HUhnx7bCd1mlV+9g/9z5bbW052pTUL3+fsYm9V7HUVJL8rPdyOcWNLulF0Yuosj1SqAqdBddn1Yn0lJhe6yjpg+MYwLJ10I61P4sIblxBy8t06lfGz+vdfOoVkfARNuO4dLQ8Cq5wZOPIilPBW+6jOoGEnNQ+VWRuiOzy2i5/sAZhc2Pn2whm4Vu/vcqOqT6Sge1nkwrPVAp7S+lEBicghVdT71H5fQ7YI7kmrD8gjqGoa0QK3JGMttGV4Sg1vWqU9Jb3dSHS+xl3242i5vAlTotrRn1/r6OmpqatDQ0IDW1lb84x//SGOebmtrc6ybyVY3Y16PsN11bcXDDj0y6ejowJMnTzAwMICRkRGEw+GiObfboYe1LuTToyRCtwlt+MM2Q6Ass71nTm8EWm289OLbbXv+JNqzsbf/u2xGPNvvqHlleYa3EznYtr1kMcvXwOfjGEyH7qmpqYxGQXq5nN4JyAHmdNembEA0Gs2oC/n02E7olh5uo7e7u28QrQ+eaL3c37U+QFXjPX0uUZbQrbQw6UX1tcs4cvQcbvrfpcL1V5dx6VbtBk9UctpS6F7TwvKRs1W41NSN9mvOodt73RS69W2Rn0fOmzwVXZOpeajcyv9qGsHJqDa2W27KFa2trat98T18IxP40RS6tfDc6EdifACVnfobvIgK2ndcqOvsh9vb7xy6Iz5UasHZJkvo3gjVSX8fKmrdaOwcgKe3Z0ehu7OzE0+fPsWzZ8/w/PlzDXktocyYNuN2ux3r3d3d6Ovry6j39PSgt7c3o06PwnnIuh48eICmpibcvn0bf//73/Ho0aOiOLfboYe1LuTTQ9ZXSqE7P9hCt+M8pFDMLSw6hu58HIMcXqJ08247mjofIxyNa6H7h7EQ+l+O4NbdDjzq/V6fSySh9xrcK/Jaho8c14LuanQYPiMUTd/HES1UB1FxsnljaMdsUM2ztsXQrX5+dR8yakA0Vr/10I2Ruyir3+ilj40GEN5s/AC1Z3qXfI/+odcY9Ct+COHN3BL6f5jAqwm5KVcfz51WEgOtKgyrQN0WSFViT1XgHtQ/LVkcQY1T6MYE2mr7ENB7xpdHfHjySi2TJXQPt3fhofGm61X/tkM3h5cQQUK9BG8h20WGHEwYup2YR2+lPLu6If1lOqR44JjuHLCd0P1mbgEt97sRn53H/7lShcr6diyvvEPz/cf6HBsKP7iI3/3xFA5/dQ0V186kgu7KMC59dQ7lt6pwQv3UerqVlv3NWm/3hWuXcUTN3yUBeas93beVx9kqXLh4GSe+3kboxjv4as9pveQXzp/BkW89G8NVqLxJhpPcf/pCvaM23eBql4zDrh1I3RwpSvd096CqxY1Kx9AtQbsfldJ73eZGRX0/gjI2fLOe7hqZtxtVTS6GbrIrmpubcffuXcc2cjBh6CalBkN3DthO6DYkvdwSuj0DQzt6XOBq0jSm26Rs9Z9U8h1Wd3oT5Ic1rPLJJQWTDC9ZfJt687U9rWF5aSv7yxqSW30u93pyx8/wZugmZuTLI6S32+/3O7aTgwdDNyk1GLpzwE5CN0VRVjF0Ezsy7vu7775zvLGIHDwYukmpwdCdAxi6KWr3YugmduRJJtLbLRctp3ZysGDoJqVGUYTu0dHRjEYhFAo59mjMzMw4fre8PCYl212b+fRg6Kao3UtC99jYWEboLpbj3A49rHVhrz3kQiWhW5Y32vi3stYPkof5Wjs7t4A3iRXEFwgpXqLxOcfQnY9jkD3dFEVlFXu6iRPy7Pbh4WHHNnKwsIfuH+eWCClq5hJvObxkr2Hopqjdi6GbOCFfoCNju53ayMGC11qq1CRfasPQvcfwREBRuxdDN3GCoZsY8FpLlZoYunMATwQUtXsxdBMnGLqJAa+1VKmJoTsH8ERAUbsXQzdxgqGbGPBaS5WaiiJ0y12b5gYDuTPTaaNisZj2RQn2uvwScpG214V8evBEQFG7l4TuYDCYEbqL5Ti3Qw9rXciFhz10829lrR8kD1kfr7VUKUmeROIUuvNxDKZDt9NjUgSnDTDq8m7BXpdatmXy6SHtPBFQ1O4koVuey2wP3cVynNuhh7Uu5MLDHrr5t7LWD5KHtPNaS5WSZJ91Ct3Z9nWp79UxyOElFLUf9F6dAHb4Ve+bicNLiBMcXkIMdnOtfTO3gNibOX3KpA8xuGub4Y7o02mtYTmxhOWkPkmVltaTWF5a0yfMSiDoDWFuXZ90UDIcxItXK/rU7iRhmWO69xiGbupA6aUHlU9n9Ym9E0M3cYKhmxjs5Fr7/v17dPcN4v7jPtxze+Dpf4l3qpZWMoCKk+dQMWQPaMO4cPhLlHXE9GmqpBTxobI9qE+YNYuBxyOY2Sx0B4bgHtksdE+gs8UPh7dwGWLozgG5Cd1rCIdiWIgPo7m2He7JJb0OrMaDcHc0o9oVRGw1VVsITSA2G0jNO/1OvZmLwN3UjGbfHPRZVKpZwni/CzebuuGPO70DpPadkrMI+mNId9YsRjEcTGgv16MTeP60Hw+fqX1HvwYlgir0xkNwP/BjSgrrbzE16EPnYz+CUX2fkdDdPYUp7wA6n45iZjFVVjsYEuMheB73wz0YRUI7qSUxE4xhbnIEDx+HkHJ2FkM3cYKhmxjs5Frr84/hsQrd6+r88sPYuArgAxgOmMPYEsb6B+GLpM5vC5NeVNe64I0PMnSXsvTQnRhX154HPgwb1y+5Jvkj+rVoDbGAX2sPxOcxblwr30QQCKtXyzGMh98iNizXwBFMzcsnvLJ8P6pqeuAZNNaTXQzdOSA3oTuG5vOncLpJBWsVsqu/PoPqaVWe9eD02WZ4p5cQ66vC4SuDWqj2Xj+OY7WDGFfz3vz6FMpue9XrCbRfOoOKEVnfGny3zqHcpQKWsb6Q1Kn9rQQ8Dd0YWE5NTT12oW5AnUziftQ09mN4MoHYoAdXW0e1k81weycqO/0YV/VlVQncc6HmqdpnVEB/WO/Cw3E1kwrdF9UJ57maZ8bbg6uNqXf866/UiahVLRtNYLzbhYrHUVWdhbuxCzUPQpiJv02d0LKIoZs4wdBNDHZyrf2H6ykmw1Ht/OIfe42hwGt4X2oXRV0bPdqrQ7U4pF7/7uRlnPjLKe01Q3eJSkL3HRdankUQmwyhrb4LbQEJzeqaVOdR/3WVsnrcqJJr01wUzztduFrnU8lLyfg0V62jqqYbDwOzKpwPoLJuAFP4gGRiBHXqdXBuBZt0mGsqitAt3y1vbjCQuzadNkouwvK98/a6DB6Xg89eF/LpsZMTwU9Lhe6TVfDqU+GOc7jg0yeUVleWsDDtwomTLoTVtPf6OTRLxlEKt53ZmLe/Csfuq0iU9KL8fDfCCbWcMHQXR6qdPnqh9psSferE0ifvx6N4KCcb01lifSmBxOQQqvSTzXC7a2Ns47I6sTQMbXyEZozltgwviaVPYCnJCUkF+Zd9uKp9tLdxgvspyUVxfHw8I3QXy3Fuhx7WupALD3vo5t/KWj9IHrK+7Vxrx6dnUN3cidjsvF4B3M8GMBbSPsfTtRG6vde/xOfH2jEmZblmMnSXriR0m69foQFU3JOeRuOaNIG22j6kU5Bc7xxC98YQFfO1LIhGY96fkOynTqE7H8dgOnTLI1TMDQbymBR5V2CvywbIgWavy0bIBtrrQj49tnsi2JqyhO5oN04cPYfyW81o7ml2Dt3mgO6rSp00oi6UfXUZl27VbvAk484Raj9KTiaNfiTG1Tv1zolULaKC9h0X6jr74fb2O4duywnHJEvo3jgRJf19qKh1o7FzAJ7enh2F7snJSe14M5+MiuU4t0MPa13IhYc9dPNvZa0fJI/tXGvHpyKob3uIifAMXo4E0e7qQYfbg4HhUX0OQ0boHkfXeRW69WuqOYxTJSi5frWZrl/p65lxTbIHZ9P0HoZuCdtOoTsfxyCHl2xLzqFbfpb36WOTVrw4vdXQrXaSipPNGDMeOjEbTI9ho/a7khhoVWFYBeq2QKoSe6oC96D+/18cQY1T6NZ7AgJ6z/jyiA9PXqllsoTu4fYuPJxMVfGqf0ehm8NLiB0OLyEG27nW3n/aj8nIj2hTYVuIvZnH2prTNW8jXPurj+PzP1xEfSg1fJPDS0pYEphvm65f/d36dcu4JiXwvEld76ZSoWj5RQ/+loPQLcGaY7r3mHyGbunpPlYmPd03cOLbyyjbcuhW/3x/s9bbfeHaZRz56hq69PmpAyB1ErlYK+PRdKV7untQ1eJGpWPolqDdj0rpvW5zo6K+H0EZG75ZT3eNzNuNKnUyY+gmewFDNzHYzrXW1dOPuvaH6qc3S9g2ZOrRXhnGpaNf4nM1fejSDRxj6C5dSWBu8aCloRuNrep61OjDlHZvk+maNB9CZ0MXrtZ2oabHt42ebgnsnSqkD0Buc9pMDN05IDehezOtYXll573Uq8mdL0vtJ6n9yPE5pnatIbnV53LLs1F3+Axvhm7iBEM3MdjOtXZp5R0iP75RgfunbnWj9rc+qOtXluvcfEJ/ypaSDMOsN40B3yMxdOeA/Iduitp/YugmTjB0EwNea6m90wfM9fegor4HLfKJb00XWl7uzRfimFUUoVsGipsbDGSjnAaWywBywV6XeWUZe13IpwdPBBS1e0nonpqaygjdxXKc26GHtS7kwsMeuvm3stYPkgevtdSeSz6dnXuLZI4+EJF93Sl05+MYTIduubCaGwykl8vpnYAcYHIhttdlA6LRaEZdyKcHTwQUtXtJ6H79+nVG6C6W49wOPax1IRce9tDNv5W1fpA8ZH281lKlJHlKiVPozscxyOElFEVlFYeXECc4vIQY8FpLlZqkh5pjuvcYnggoavdi6CZOMHQTA15rqVITQ3cO4ImAonYvhm7iBEM3MeC1lio1MXTnAJ4IKGr3YugmTrjdbjx69MixjRwseK2lSk0M3TmAJwKK2r0YuokTXq8Xra2tjm3kYMFrLVVqKorQPTo6mtEohEIhx0elzMzMOH63vDwmJdtdm/n04ImAonYvCd1jY2MZobtYjnM79LDWhVx4+P1+1NTUpNv4t7LWD5IHr7VUqUkCt1PozscxyJ5uiipSrS85P6c0GQ7ixavNvjAggaA3hLk9eMYpe7qJE3Jx+vvf/47h4WHHdnJwMK61sVgMP/zwg3bOoKjd6wOSiRXk4lHdHF6SAxi6qVLXcLsL7og+YVIyMAT3yGahexYDj0cws8nZau5ZNzpH9IlNxNBNstHZ2Ynq6mrHNnJwmJyc1Mb4X79+HbW1tQzd1B5pFu46D4b1qb0UQ3cOyFnoXp2Dv8eFm03d8MfX9KIqx4Nob2pG89AcYqEAwklbvT+CBZ6LqG1IC92Tsxh+2o+H3igSRoh+E0HA2MHmo3iht8+FQxh/I8UkZvwRJNSrRFAFZjXP88f9cA/PpnoN1PKeti5UuUY31pNFDN0kG/IFE9LbzaeYHDzkmjowMIC7d+9qYbuxsRF9fX1ab/feXGvXEPZPYEGfWo0EMDavvzZdU5dTJXWiWsJ4v+26nIxhLDKH8Z521A8tqXPlBMZm1Xxq+mbHMGKrqdm0ZYe6UV3rQu+kmk+T8g/FEJv2anXfrPgOo7m2XZ2TjXmUEhH0djSj2hXcWN8BVSIU1K8/og+YexXCjPyD1t9iatiPhw98eDH+NtW8HMN4eB4z3gE8HJYrlZotOgGPXKcGjWtdKnS/iIbgfjAAzyt9BxC9n0XQ60PnYz+CUf3/ra5r4/F5BNT18Pl4qpRNDN05IDehew5d317GTZ8K0PFBXDh6A72SWaIuHDvTDO+0HNB3UVZ2Ds1Re/0GDl/ybpwkKOonNNzeiast/RhWwXv8WQ+uNvrVHqj00oPKp+oqsBxCS10PPMFZxAIDqKnpRONLmWGjh0DWUdk5gpk5Fbxbu1A3oHbY9ysIPnKhzpvA8srm7wQZuslmSOCW4F1fX49Xr145zkP2B3L8yzhV+YTjxo0b+O6777T/v4SXvb/WxtB8sgpefSrccQ4XfOrFdDuOfN2ugvUSxtou4oRbzohr8N06h3LXBGIqkFd/fQbVIVVW198TR69p1+tYQgUzXxUOnbwLt3E9vjKIVbWsv/ZiatnEBOpl2WlxVP7nz+BChwrT0x6UHz+F8iZ5PYyKk5fRJTkxGcClkzfQHppDbKQdx463Y+wgd6yN9KHykf7R7PIo6uoGMKX+vsEHbtQ9U/+DuQjc9S48lEAc8aGqphudw1HMzatrUmQIVRKwJxMqiKtrXesoktp1rANVj9X/RgXyh/VdaAvIH3gez1vcaFPLJqKjaKzpwYAEK3VdvFrXp66Hqr4oG5FdDN05IDehW9fqOyyod7jNZ1Ph2l99BhXpj+rX4L6Uqo81XESFeoe9kBBiaD+vH6wUtQVJYG4bMc7iSQy0uPBE3szpoTvR50ZV38YONfWoyyF0m4aoGGFdKfbUpc+7uRi6yU8hF66enh4tfEsQk1D27NkzLYRPTEyQEmdoaAhdXV24desWbt68iXv37uHFixfpdhnfHwwGMTIygtevX+c+dJ+/j7HZjU+ZkfSi/Hw3wtp1VjF0F0eqg1roLrtuGpygQndZR0yfGMaFky6E9Sl8WMNyYg7eW6dSPjb/3mt6R5pSuO0cLg2pGOC5gRMPYvr1fQk+Sw44iJpAW20f1F8eyYGe9LVG03oSy3OzGO7Ur1EqdFe2y5wpTT1yma51xlhu2/CSF7Z1vlfnnrkonjTq1zjT9e2nVBShWw4cc4OB3JnptFHyMZJ8vGivyy8hF2l7XcinR25CtwrOZ0+h7FItbnZ4cVMP3d7rGwekyJj2Xj+OY1dqcemWwX34GLqpLUoLzFP6hFI6QOsnF3tw3pje29AtF1R76C6W49wOPax1IV8ewuDgoDa+t7m5WQtpEsTJ/kaGl1y7dg1XrlzRnmizN2O6s4RupYVJL6qvXcaRo+dw0/8uFa6/umy6ziqeqJPelkL3mhaWj5ytwqWmbrRfcw7d5mu8sS3y88h5k6eiazI1z0GVFp4DSQy0uuHRhzoG1Bu2isYetDz2a8ManUK35TqVli10p69fs/A0dqKytQ+dT0fQuYPQLU8icQrd+TjvpkO302NSBKcNMOrybsFel1q2ZfLpIe17HrrlINY+khK9g/ti6kBceHINx9r0g3llEBf+W6+7L+N0jzopaHqH8aGNMWoU9VMabu9AVa/+Lm09godyApKxbsbJ5VU/KtqCqSFL6zHto7hchO5wOJwRuovlOLdDD2tdoIe1Tg/n+mYecg2VN1QNDQ3a0JL29natB1yusdKem+El1+DW7heX4SPHtaC7Gh2GzzifTd/HES1UB1FxsnljaMdsUM2ztsXQrX5+dR/GEOCx+q2HbozcRVn9RKqoFBvduJfrwGp8AJVtHtQ1+bV7iuR/01grw0xEHzDucg7d2qe26WtdDAOPR9V/IEvolmXbRvWnmqzgecv2Q7fss06h2/zajNT36hjk8JJtKYb2M8e1nu7ys9dw4qR+IH5Ygq/2Ig4fU++Yv3Wh3vgo6kMMXd+eSc3/l1MoawjqgZ2ifloSmBvvdaOqtQc1tepkNaCflNInlzVM9fagoqYLFfV9cLu23tONgArsdzrR2L/5Ry8cXkIIMSNvwp8+fYrbt29rw00ePHigPctfeg/37lqrwu2Di/jdH0/h8FfXUHHtTCrorgzj0lfnUH6rCifUT62nW2nZ36z1dl+4dhlH1Pxdcv3dak/3beVxtgoXLl7Gia+3EbrxTl33z2m95BfOy7XfszFc5cBKrj0dqXuHNCUR6Ez1dDe2uFFT7xy6JWh7Wrq03us6NU+NV65Tm/R0N6R6uusa1fWxbvuhW8Iyx3TvMbkJ3SmtrryzhmcVuhfS2UXGdF9Ec1yfFK2uYXUvPnGjDqbeJx2f1y37WuLNxqMDZUx3i1+f2CMxdBNCnJDzgdxY2dHRgYqKCq0H3OPx7Om1NptWk6Yx3SZlq/+kkuqavtNr9Ad1fWdv2uZS+4vzNcymleSWn8u9vrTzZ3gzdOeAXIbuDM16cUF7912LC2fVu+Zbw3xKCZV7LU7hYWMXqtr60NLqwt8ahjZ9NvdOxNBNCNkMOS/ImFe5mba1tXWPxnRTVO7E0J0D8hq6da2+XcLyQR/TReVd60sJJJZ22MPzE2LoJoRsRiGutRS1GxVF6Jbvljc3GMg7WKeNkouwfO+8vS6Dx+Xgs9eFfHrwREBRu5eE7vHx8YzQXSzHuR16WOsCPax1euyth6yP11qqlCT7qVPozscxmA7dchOEucFAHpMi7wrsddkAOdDsddkI2UB7XcinB08EFLV7SeiWr3mW4818MiqW49wOPax1gR7WOj321oPXWqrUJGHbKXTn4xjk8BKKorKKw0sIIZvBay1VapJgzTHdewxPBBS1ezF0E0I2g9daqtTE0J0DeCKgqN2LoZsQshm81lKlJobuHMATAUXtXgzdhJDN4LWWKjUVReiWgeLmBgPZKKeB5TKAXLDXZV5Zxl4X8unBEwFF7V4SuqempjJCd7Ec53boYa0L9LDW6bG3HrzWUqUm2dedQnc+jsF06JYLq7nBQHq5nN4JyAEmF2J7XTYgGo1m1IV8evBEQFG7l4Tu169fZ4TuYjnO7dDDWhfoYa3TY289ZH281lKlJHlKiVPozscxyOEl29Tq2118XeyWtYbwwCDGNr7hm6I213v1rntl73dMDi8hhGyGca0dGxvTvpVSzhmlr+zX4NWVfGQAalO9mcBz/7w+YdJ6Estb+KI46aHmmO49JjehO4bmk+fQHNUn91Rz6Pq2GT7t9Rr8913wMXRTW9VLDyqfzuoTeyeGbkJINuTa2t/fj++++w5XrlxBe3v7Punpzn4N9l7PVQagtqzIKB72x/QJkyI+VLYH9YnsYujOAfkO3avxINqbmtHcH8GC6V2wY311Dv4eF242dcMfT70rWwh148Kxy7jZH0A4KdOpn5oSEfR2NKPaFURsVa8lYxiLLCHmk/V4MZ7Q61TxKzmLoD8G49+LxSiGg6l/4HpUvYN/2o+HzyYQe6+VkAiq0BsPwf3AjykprL/F1KAPnY/9CEb1d/USurunMOUdQOfTUcwspsoqNiMxHoLncT/cg1Ek1qWWxEwwhrnJETx8HMJmuw5DNyHEjJwHRkdHce/ePdy4cQM1NTV4+vSp9s21ezq85MMSxvv169tsDL7QkiquIRyKITbtRXVLAAuq4niNnZ+AL2L0eC5hTJ1v5dK5EFLnVXU9dTtcq+0yX4PTHkNz6GXozoHUNckfSV+LkuEQxt+oF8sxBPRro2Uecz19PRzBzCuG7oKR19AddeHYyVr0TquTRF8Vjpz3aCcDS73nBg5fGVQHvvRoq3DtUwd8fBAXjt5ArzqwV1eCqD5+A+5E6qOr9LvpZACXTl5D88gcYiP3ceL4XfjlRKHWfeLoNVRr9XYcO96OcfGkSkAJeBq6MbCcmpp67ELdgNoJ4n7UNPZjeDKB2KAHV1tHtWA+3N6Jyk4/xlV9WVUC91yoeaouHiqgP6x34aH841XovljTg+dqnhlvD642+tWeps5Hr/pR1aqWjSYw3u1CxWPZqWbhbuxCzYMQZuJvNY9sYugmhAjhcFgL17dv30ZVVRXcbrcWtHNzrV2D79Y5lLvUeU4F3upvT+HQ9WFVV9fg86dwun5YBfElrGa79vqqUNZh9IQO48JJF8Lqlff6cRy5dh/++Bz8bZdxpDp7QEtfg8XjTDO82nX8LsrKGLr3XuqaVOdR/6mUYk9daHypXlh6rk3zpOup62Hds0jqetjShb8xdBeGfIbusYZzqPDrE0pysNZHMuvaeHD9NVbfYUG9424+a6xP1l0Fr9a4ccCvem7gmEve4acU7jiHC/3qhToRlGknIZF1War4lehzo6pP3qlH8VBOJFoPdErrSwkkJodQVedT/1kJ3S641f6kaXkEdQ1DWqDWZIzltgwviVlOYNLbnVQnl9jLPlzVTkjWE9xmYugmpPgwbuCSm5yHhobw/PnznNDb24uOjg7cuXMHf//731FXV4f79++jr68vPc+zZ8/g8XjQ3d0Nr9e7N9fahAcnjAAtCrXjsBG6Tde6bNfe7KH7TKpdUwz1KrCnhnRmyrgGax4jehFL6DrP0L332mHolutho3/j09pAX+mEbvm4yNxgEAqFHB+VMjMz4/jd8vKYlGx3bebTI5+hO/2OWFe47RwuDWXWU4qh/ewplF2qxc0OL27+ROjWQrb5rNBfhWP3VeRi6C5tGSeL8QFUdk6kahEVtO+od+2d/XB7+51Dd7Yxa5bQvXFySvr7UFHrRmPnADy9PTsK3XKDlD10F8txboce1rpAD2u91D0eP36sBWBBhnfU19fjH//4h4WGhoaMmtDY2OhYb25uRktLi2Ndho/cvHlTQ3q5xa+1tTXtIa9lvrt376Kzs1M7Z+xaluubUnra+TppyLj2Zg/d5vk3v24a89o97NPUXmiHodt+Pcx2fbRJArdT6M7Hcc6e7m3JOXQvuC+beqPVPF9fQ5d662Wpf4jB3TKImJw8tGEmondwXzTWl+VkMnIXR24HUkWsqfoZ3JR9iqG7xJXEQKsKwypQt+n/XjnR1A3q4xAXR1DjFLoxgbbaPgT0nvHlER+evFLLZAndw+1deDiZquJVP3u6CSlRpEdbgraE38HBQa2nO5/HZH6Hl0zg5vEq9Oo3MkqY/twhdGe79kroPlyvd2bEZQiKEbq/RLnnXaq+4kX5JsMyjWuw9TqutusYQ/feS65J3Xiu3Yu0hsC9zo3Q3TICbSTm+xBabttCt/166O3GxS2Ebg4vyQG5C91f4ndHT+HwsRSn3XNaoO769ozWe13+lzOqpr/DttefSD2G9jPHU7Wz13DCFOL9tadw6KiM6za/m34HX+05HDlbhQtn1bpqA6kdkKG79CXjsGsHUjdHitI93T2oanGj0jF0S9DuR6X0Xre5UVHfj6DsEJv1dNfIvN2oanIxdBNSgkgvmwTuBw8eOLbnEzkPSC9erm+kXJ3uRvnJUzjy1TlUdDQ79nRnvfYmA6g4egyHjqm26iqcNg0vOX3tMk5cq8IJtd6bfj2AOyh9DVYezdo1W63n7F1cSHeUUXupWK8bf7vdiau13Whp03u61bXK09CJv93pQkVLHxrtPd1Ky+rap13jWt2oUdfOCobuwpCb0P0TSq5tjNk2y6GuPetTf70lrap17MGndlSxa21LzxmV+ZJbfS63PLt0h8/wZugmpPBI2JZhHE5thUSurbl6ZODq/FKqg0kUaseRW8Ynvg7Kdu21KR2kzfPHPTitd6IZ3DSNE09LXYOpYtUa1vWnfW1FDN05oCChm6L2mRi6CSksfr9f6+WW4R1O7YXGuNbu7ZfjvMNY02XtE95Lt26grOwimk2f9u1UG58gUwdZDN05gKGbonYvhm5CCos8FURuUHRqKwZyeq3VnvK1zU+FKeonVBShW+7aNDcYyJ2ZThsVi8W076+31+WXkIu0vS7k0yOnJwKKOiCS0B0MBjNCd7Ec53boYa0L9LDWS81DnhDy6NGjjHqx/B6yPl5rqVKS3CPhFLrzcZynQ7fTY1IEpw0w6vJuwV6XWrZl8ukh7TwRUNTuJKFbPta2h+5iOc7t0MNaF+hhrZeahzyib2BgIKNeLL+HtPNaS5WSZJ91Ct3Z9nWp79VxzuElFEVlFYeXEFJY5BGB8mmTU1sxYL7WTk9P81pLFbVk/5T9lWO69xiGboravRi6CSkschPlxMSEY1uxIOcGOUdI6F5d5Qhsqngl1zQ5niQbMnTvIQzdFLV7MXQTUlhKJXTLdVa+uU/Gsq6vr/OaSxWd5HpmvDlk6N5jGLopavdi6CaksJRS6JYbziYnJ7Uvz5FA8/79e0KKAtlHf/jhB+1LnOTbXGV/LcQ1LR265R2qucFADiKnDZOLsHzvvL0ug8cl6NrrQj49ZH0M3RS1O0nolpOUPXQXy3Fuhx7WukAPa73UPCR0v3r1KqNeTL+HrFOut/KEBwncr1+/1p7bPTw8jJcvX2p4vV58//336WkDn8+H58+fZ9QFee63U/3Zs2d48eJFRp0emXV6vNT2w5GREW2/lE4kOZ6cernzcZynQ7c8QsXcYCAHkdNdm7IBcpDZ67IRsoH2upBPD+MkIH8Qhm6K2pkkdEvPlRxv5pNRsRznduhhrQv0sNZLzUNCt4QFe73Yfg85P8i1Vh67JsFGeudlqIncBCpIL6MEHwk8ZgKBgBaK7HVBQpZTfWhoSAv19jo9MusH3UP2PdkPZX+U/VKCtTyRS/Z3e8DOx3HO4SXb1OrbJSwkTKzk6qthl+DvCSDGr36ntqL3Kzv+qvfNxOElhBSWUhheIhjXXLneSniRj/Clt0+QkENIITD2QdkfZb+U/dMpcOcLhu5tKYbmk8dx7EotLt3SebIH303rqBh6m7wIM3RTW9FLDyqfzuoTeyeGbkIKS6mEbkHOEfbwbUZ6/wjJB/Z9zwjbhQzcAkP3tiSh+xyao/qkrtVoEL7pd6mJZAw+XwTL6uVCaAKxRATupmY090ewkA7Qa4iNdKO61oXeySW9ps8/G0BzrQfjap6wfwILWovT/Ko9FMNCfFjN3w63aT34sITxfhduNnXDH9/oiV+NB9GesS1U3pWcRdAfQ1KfxGIUw8GE9nI9OoHnT/vx8JnaF95rJSSCKvTGQ3A/8GNKCutvMTXoQ+djP4JR/f8robt7ClPeAXQ+HcXMYqqsdgYkxkPwPO6HezCKxLrUkpgJxjA3OYKHj0NIOTuLoZuQwlJKoVswgrdxDSakGDDvl077bb5g6N6WnEM3kgFcOnkXfhVkxxou4kJ/KoB7rx/HkWv3VfCdg7/tMo5UB7V6+P5FHKsdxrgE8iunUO7ZmL/sdjfGppdUaBevKnizzq/az5/C6aYgYipMV399BtXTspY1+G6dw+kOWz3qwrEzzfCqdY/33MDhS17tjQFVCCXgaejGgP4PmHrsQt2AiuBxP2oa+zE8mUBs0IOrraNaMB9u70Rlpx/jqr6sKoF7LtQ8VaFcBfSH9S48HFczqdB9saYHz9U8M94eXG30Y06V11/1o6pVLRtNYLzbhYrHsvPOwt3YhZoHIczE326EfwcxdBNSWEotdJsxBx1CConT/lkI0qFbBoqbGwzkDk+ngeUygFyw12VeWcZeF/LpIX/k3ITuL/G7o6dw+FiKm/5Uy7KvCseu16L8+mA6zHqvn0F9evRJDPUna+HDBKrP3IXPGBMe7caJ8x6tR9t73RzojdCdbf6NUC4Kd5zDBZ96kfSi/Ey33kOutPoOyypVyZuBiiF9HYkY2s9fRtdmXZxUTpXoc6OqT/4BUTys82BY64FOaX0pgcTkEKrqfOq/LKHbBbexHy2PoK5hSAvUmoyx3JbhJTG4ZZ36lPR2J9XxEnvZh6vt8sZPhW5Le3ZJ6JYbo+yhu1iOczv0sNYFeljrpeaR7UbKUvs96JFZp4e1Lux3j3TolgurucFAermc3iVImJULsb0uGyAD1u11IZ8euQvdDj3douQgLvzXMZT36cNMlJxD9DAu/PdFlBtjwoWWwCahO9v8WUJ31IWy65lxSnrRLWPRb91XQV5vpPIvCc+NfiTGB1DZOZGqRVTQvuNCXWc/3N5+59Ad8aFSC842WUL3RqhO+vtQUetGY+cAPL09OwrdcsG3h+5iOc7t0MNaF+hhrZeah4RueWqDvc6/FT3M0MNaL1YPDi/ZlrKF7tSQjku+YVRIEF5JVb3Xv0wPHcGKF+XH2zGOJXSdvwa3Pg9WIvCFUuOxnUN3tvmzhG4EUfHVXfj0MdvLfhfaR9ew4L6M0z3GG4J3GB8yxotThVESA60qDKtA3RZIVWJPVeAe1MdoL46gxil0YwJttX0I6D3jyyM+PHmllskSuofbu/BwMlXFq/4dhW45EckJx+lkRAjJLaU8vIQQYoWhe1uSoGsdXnK4ViWmkbs4ci01rGR1qFbraZbXMrzk9LXLOHGtCie+Ooebfj30Rjw4rabLb91A2dFzqB5JBS3n0K3kOH+20C1BuxllX13GBeV95C/t8Mug3Q8xdH17BmWXalH+l1MoawhiNTU7VSjJOOzagdTNkaJ0T3cPqlrcqHQM3RK0+1EpvddtblTU9yMoO9tmPd01Mm83qppcDN2ElBgM3YTsHxi6c6h0iE6uOQbcVVXfjrY3v/J0ukNuVdX55JIi1hqWl7byf15DcqvP5V5P7vgZ3gzdhBQWhm5C9g8M3TmUteeaokpPDN2EFBaGbkL2DwzdFEVlFUM3IYWFoZuQ/UM6dI+OjmY0CvKd9U6PSpGv1ZRv/bHX5TEp2e7azKcHQzdF7V4SuuXJCfbQXSzHuR16WOsCPaz1UvOQ0D0yMpJR59+KHmboYa0Xqwd7uimKyir2dBNSWNjTTcj+gaGboqisYugmpLAwdBOyf2Dopigqqxi6CSksDN2E7B8YuimKyiqGbkIKC0M3IfsHhm6KorKKoZuQwsLQTcj+IR265a5Nc4OB3JnpdLGNxWKYnZ3NqMt30ctF2l4X8unB0E1Ru5eE7mAwmBG6i+U4t0MPa12gh7Veah4Sup2ehMC/FT3M0MNaL1aPdOh2ekyK4LQBRn15eTmjLrVsy+TTQ9oZuilqd5LQHQ6HM0J3sRznduhhrQv0sNZLzUNC9/j4eEadfyvnOj2s0MNaFwrpweElO9Tq23c7/Dr1Jfh7AoipZVdXNl9HtvbVyDB6g+9Sr2U7sIbwwCDGVrQSdRD1Xp0AdvhV75uJw0sIKSwcXkLI/oGheydKDqL8D1/imGtJL2xHMfQ2eRFW+einviY+W/vqiAvNfgndMTSfrIJXhW7/fRd8WuieQ9e3zfDJS+rg6KUHlU9n9Ym9E0M3IYWFoZuQ/QND9w602ncDJ9pcKD/fjQUpJCLwhkwBfDYIX2RNJZYljA91o7rWhd5Jo30NYf+Etpw5VK/Gg3B3NKPaFURsNVXT2qfn4JV6TwQLRkfm/ERq/enQDSyEAggn5Wc3Lhy7jJv9avptDH5/DPrqgJUIfObtpAqj5CyC6v+i/l0pLUYxHExoL9ejE3j+tB8Pn00g9l4rIRFUoTcegvuBH1NSWH+LqUEfOh/7EYzKfqAkobt7ClPeAXQ+HcXMYqqsdkIkxkPwPO6HezCKxLrUkpgJxjA3OYKHj0NIOTuLoZuQwsLQTcj+gaF721pC1/mLaJ9fQ++VM6ieVqUPAVScbMeY1m7U1+CvvYhylwpPiQnUf63PawrK6dA968Hps83wTi8h1leFw1cGtaDsvX4ch7+V+hzGXDdw+LwnFfJ9VSjriKkXmetaXQmi+vgNuBMyNGUJ7WfUaz3djTedQXmfHtKoAioBT0M3BpZTU1OPXagbUP+kuB81jf0YnkwgNujB1dZRLZgPt3eistOPcVVfVpXAPRdqnqr9SgX0h/UuPBxXM6nQfbGmB8/VPDPeHlxt9GNOlddf9aOqVS0bTWC824WKx9oOB3djF2oehDATf7sR/h3E0E1IYWHoJmT/kA7d8t3y5gYDuWvT6WIrF2H53nl7XQaPS9C114V8euQsdM9345gp/B5pimhlf/UZVIyoFzL05GsXwlpV6cMalhNz8N46hQvamA+H0K1rdWUJC9MunDiZWl5Cd4U/1SZh3n3pIprj6uUmodtcEy24LuKEW3q3IyqMq/reD/uldqBEnxtVfdLHHMXDOg+GtR7olNaXEkhMDqGqzqf+mxK6XXCndjNgeQR1DUNaoNZkjOW2DC+JwS3r1KektzuZUEH+ZR+utgfVtArdlvbsktAtN3HZQ3exHOd26GGtC/Sw1kvNQ0L3q1evMur8W9HDDD2s9WL1SIfueDye0SjIY1Kc7tqUDZBQa6/LRsgG2utCPj3kD5eL0B3uOIfP/3gKh48pjh7D58f0Hu5QO8qqg6mhJ9pY7zX4VBA/crYKl5q60X5tk9Ad7caJo+dQfqsZzT3NptB9BvVG2FJKz7+N0I2kF+XyJmG6HcduB/QiVXBJeG70IzE+gMrOiVQtooL2HRfqOvvh9vY7h+6ID5VacLbJEro3QnXS34eKWjcaOwfg6e3ZUeienJzUjjfzyahYjnM79LDWBXpY66XmIaH79evXGXX+rehhhh7WerF6cHjJtiS9xTfQa/o83nf7jN4brdq+rsKFS9fQpQ2SHcaFr+5DPvkXjdVnD90S5NPDPla8OJ0O3aabNT9MbPRUbyd0a8NdLuPC9YupnniqSJTEQKsKwypQt+nvhWJPVeAe1PeDxRHUOIVuTKCttg8BvWd8ecSHJ6/UMllC93B7Fx5Opqp41b+j0M3hJYQUDg4vIWT/wNC9HQWbcUQfb53WyF0c0XuQtV7wdPuaCuSncPisCuIXL+PE15v3dB8rk57uGzjx7WWUmXq6L9y6jGOXqnDiK/W6Tw/gm4ZuwF97CoeOyrju1LTM//lX7ek3AFSRSMZh1w6kbo4UpXu6e1DV4kalY+iWoN2PSum9bnOjor4fQRkbvllPd43M242qJhdDNyElBkM3IfsHhu5cK7nV53mvYXkly02Oq2s7fCa4Lv9dHNPHnlPFLrUfLG3lZtc1JLf6XO715I6f4c3QTUhhYegmZP/A0L3P5as+hcNf1cLLL86hdiCGbkIKC0M3IfuHdOiWgeLmBgP5bnmngeUygFyw12VeWcZeF/LpwdBNUbuXhO6pqamM0F0sx7kdeljrAj2s9VLzyHYjZan9HvTIrNPDWhf2u0c6dMuF1dxgIL1cTj1cEmblQmyvywZEo9GMupBPD4Zuitq9JHTLBd8euovlOLdDD2tdoIe1XmoeErrHxsYy6vxb0cMMPaz1YvU4EMNL5DEwDN0UtX1xeAkhhYXDSwjZPxyI0D09Pa2FB4qitqfV1VXtIf/yaRFDNyH5h6GbkP3Dvg3dgoQECQsSGiSAs7eborYueaMqb1oZugkpHAzdhOwfDkToljE38lXWMv5GgoSEb0JIdtbW1rRv1JKL/Y8//sjQTUiBYOgmZP+w70O3BG35Pv1wOIxgMIjh4WHtNSEkExm//fLlS4yMjGg3UMq03BMhnxQxdBOSfxi6Cdk/pEP36OhoRqMQCoUcH5UiHzk7fbe8PCYl212b+faQkCBhQXrpJGxLb7d4vXr1SpsvEAjA6/ViYGBAe21maGgIHo8noy48evTIsf706VP4/f6MOj0y6/Sw1oVi8JDjQo4POVYkcMtrCeNyLJlDdzEd52boYa0L9LDWS81DQre8CbbX+beihxl6WOvF6rGve7oFI3hLb530eMsfT26sFCYnJwkhJoxjQ4ZkyUlG3rCyl5uQwsGebkL2D/s+dAvmHm8J3xImCCHOyDEiMHATUngYugnZPxyI0C1IcDDCt4F8NCDBghAyrx0P5uPDOGacjidCSH5g6CZk/3BgQrdghAhCyE/jdAwRQvILQzch+4cDFboJIYSQUoKhm5D9Qzp0y12b5gYDuTPTqddLbkqUcZ/2ujyiT556YK8L9LDW6UEPM/Sw1ulBDzMH1UNCt9OTEPi3oocZeljrxeqRDt1Oj0kRnDbAqC8vL2fUpZZtGXpY6/RwrtPDCj2sdYEe1jo9nOv7wUNCtzzC017n38q5Tg8r9LDWhUJ6cHgJIYQQUqRweAkh+weGbkIIIaRIYegmZP/A0E0IIYQUKQzdhOwfGLoJIXuOjHWTMW2EFBNO+2qxw9BNyP4hHbrl69HNDQZy16bTQPG5uTntyzTsdTmxvXnzJqMu0MNapwc9zOwXD/ka+bdLKxh2L+FZwwIhBaevcQGvvKmboWR/LqVjUEL3q1evMuo8X9HDDD2s9WL1SIdu+fpnc4OBPCbF6a5N2QD51jp7XTZCNtBeF+hhrdODHmb2g4fUQy8XcOP/DuOb/2uSkKKi6esfMT+7mPU4KMZjUEL369evM+r7/Vwi0MNap0fpe3B4CSFkT5ATkJyc7vw/M46Bh5Bi4MG1N9p+Kvur035cbHB4CSH7B4ZuQsiukY/k5IsCQi8XHYMOIcXCpd9NaT1aErqdPkouNhi6Cdk/MHQTQnaNhBf5mG3Es+AYdAgpJt78mNDeJDJ0E0LyCUM3IWRXGL3cEronAm8RmX5HSFETj6X2V4ZuQkg+SYduGeNmbjCQi6nTwHL5aM5pTJzMK8vY6wI9rHV60MNMqXoYoVtuHJkILCGx/J6QomUm/A7RyKxj6C7GYzDbjZR76ZGP34MemXV6WOvCfvdIh+6pqamMRiESiTj2BshjUpzu2pQNiEajGXWBHtY6PehhplQ9ZDmZltAdDqnXDkGHkGIhGnmn9vcZbb+WJxKY9/tiPAYldI+NjWXU9+O5xA49rHV6lL4Hh5cQQnaFnKTk5PPjjz9iafmdY9AhpFiIx5OYX0hoF1J76C5GOLyEkP0DQzchZFcwdJNSYnF5laGbEFIQGLoJIbuCoZuUEosrDN2EkMLA0E0I2RUM3aSUYOgmhBQKhm5CyK5g6CalBEM3IaRQpEP36OhoRqMQCoUcH5UyMzPj+N3y8piUbHdt0sNapwc9zJSqB0M3KSUkdE9OTTuG7mI8BiV0j4yMZNR5vqKHGXpY68XqwZ5uQsiuYOjOJPzyGe58ewVny2txt38a8UXn+Uj+YU83IaRQMHQTQnYFQ7eJxWnc/c9P8bN/+bWFjz65gt6Yw/wk7zB0E0IKBUM3IWRXMHQbvEVv+RepkP3bK3gUmEf4dQB3j+u1Iy6E7cvMqnlmTdPzanpmflc94/Fsy+vrDs87tB0gGLoJIYWCoZsQsisYunVmXPij9Gx/fBad5l7txQBay2WoyT14VeDt/av0fpfhm8tf4+cy/18HkIgFcOPIb/CRTGvrOISjTaHU8q9bcUhq/96KkL7O1Dp+jdNP1PSTK9rrQ5dbcfYTvZddlm+Z1v2n0Xr00Ma6/+VTfHLUhZEDOuSFoZsQUigYugkhu4KhW6f3SirY/ukJ4k7tOqnA/Ck++uURHJcw3jKGR8clLH+Kz1Qwf+S6h7O/lenfqFCt/rZbDN0/+5cvcLTShUdNV/DZxzJdhjuv3yPc8met/d/+pIL2TAides/7H1vmM7btIMDQTQgpFOnQLXdtmhsM5M5Mp5NSLBbD7OxsRl0uvvL99fa6QA9rnR70MFOqHrKcTB/40G2EX+m51mrTuPPvqXCcIhWC04HZrS83+wTHpf2X1+E1ep/VutIBfouh+6O073t4z/9Gqx36LpYO3TLk5W5/yDqc5QAioTscmXEM3cV4DErodnoSQr6Pczv0sNbpQQ8z2TzSodvpMSmC0wYY9eXl5Yy61LItQw9rnR7OdXpYKXYP+SknnwMfuv21+MQSjt9ipPcZHrme4OphCcm20C2BWeZzCNWW2laHl1Trw0kUoeqyjZoML/nT4dRQFp2ff3YWra90rwOGhO65uXnH0F2Mx6CE7vHx8Yx6vo9zO/Sw1unhXKeHFQ4vIYTsCjnpMHQrFofwzS8l1H6hwrBp6EbsGU5L/eMr6F10CN1GT7fertWcerp/24ARbZ3z6CwzrcPoYTcNazF6uo0hJPHYPOLzb7UbOzv/elhr+6h8o2f8IMHhJYSQQsHQTQjZFQzdG8RVAP6VBGAZn/2/v8HZv/wZn/0iNW30RGeEbnnqyV9TIflXZQ3obGvA0V/LPF/gbK/620oo18Zoq3UevYKzR4+kb4q0hG41/39cvoe7l4+ltuHjP6N1+j1GKlMh+1fH7+FFYCN0f1ap36h5wGDoJoQUCoZuQsiuYOi2Eu6txR8/Mz2r+xeHcbw6kO6FzgzdisUQ7pqHgMgyxtNHFCMtX+MTPXjLk0fu/Nm0DiN0/7lh4xnhavnT92L6uu3DS1R4l5sq+fQShm5CSF5h6CaE7AqG7iwsvt3+TYuyzIz6ezq1ZcMI3caNlPNZltfWvbtngO8HGLoJIYUiHbrlu+XNDQZy16bTSWlubk773nl7XQaPy8nMXhfoYa3Tgx5mStVDlmPoLiD20E02RUL3j7G4tv/aQ3cxHoMSul+9epVR5/mKHmboYa0Xq0c6dMfj8YxGQR6T4nTXpmyAnLDsddkI2UB7XaCHtU4PepgpVQ85STF0FxC/C2e1530fzDHa20VCdyxL6C7GY1BC9+vXrzPqPF/Rwww9rPVi9eDwEkLIrmDoJqUEh5cQQgoFQzchZFcwdJNSgqGbEFIoGLoJIbuCoZuUEgzdhJBCwdBNCNkVDN2klGDoJoQUinToloHi5gYDuZg6DSyXAeSCvS7zyjL2ukAPa50e9DBTqh4M3aSUkND9ZnbOMXQX4zGY7UbKvfTIx+9Bj8w6Pax1Yb97pEP31NRURqMQiUQcewLkhOV016ZsQDQazagL9LDW6UEPM6XqIcvJtITuucRbRGeXCClafpx7i+nwjLZv20N3MR6DErrHxsYy6vvxXGKHHtY6PUrfg8NLCCG7Qk5ScvIxQvfCUpKQIuYdZucWtAsph5cQQvIJQzchZFeYQ7d83EZRxax//vOfmJ+fZ+gmhOQdhm5CyK5g6KZKSQzdhJBCwdBNCNkVDN1UKamUQvf09LQWurPdlEUIKS0Yugkhu4KhmyollVLofvHiBerr6x3bCCGlRzp0j46OZjQKoVDI8VEpMzMzjt8tL+/Is921SQ9rnR70MFOqHgzdVClJQrfs706hu9iOQbfbjY6ODp6vbNDDWhfoYa0Xqwd7ugkhu2I/h+5lvwuXOgLI+K1W32Eh8Q6rH/RpKq9KhoN48WpFnzJp5S2W3+uvs6hUerrlUWRVVVV4/vy5YzshpPRg6CaE7Iqdhu6JcBTDYyGEpsJ6pfgUfnAZh893I2MLfVX4/PA5NEf1aSqvSgaG4B7JDN2xpy40vtQnsqhUQrf0cNfU1Di2EUJKE4ZuQsiu2EnoDk5M457bg97+l+j5/iWePvfpLRtajQ+jubYd7sk5jPsH0RtaUtUljPUPYmx2Dr4OF3wJVUpE4HO142aHqs+vacsa8/kiqenVSEB5TWABawhr65pDzOfCzSYvxmUdWbSxnNKHJYz3iM8wYn0M3Xuq5RgCQeMfkcSMPwJt6k0EgXBSq6p/tNoPYqpVyVyfj+LF03489EYxvk9CdzAY1G6gHBoacmwnhJQmDN2EkF2xk9D9sMeLH9/MIhyNY3j0Ne53P8P49IzeqhR14dgfvsTnRy/jxF9O4dB/q9fXh1XDMC4c/hKHylTt2DV0BT04/V9f4ncnb+DC2VP4/A8X0RyRFaTmK+uIyQTCHedUSK6CFzE0n1Tr+sMxHDl/GWVq2c/LauEzcp1NG8utwXfruHp9DGWy3FF5zdC9Z4r4UNke1Cdm4a7zqP+g0ksPKp/OalX1Vg2NdT71H1Qy6sshtNT1wBOcRSwwgJqazpIO3eFwGA8fPtQC94MHDxznIYSULgzdhJBdsd3Q/eHDP9Fyvxvr6+taAEosvYVnYAivxqf1OYywewNuLQxPoPqYNXQfrp+QBuf5bgXU658I3Ze8WJWGYDMOq/kuZHa0a9pYTvdtSPmuem4wdO+ldhi6k/3dqOrb+Kgi2LW10P369WuMjIxoPcpy85Q8B7tQyBNKXC4XGhsbtbB9//597euonY41Qkhpkw7dcuIxNxjInZlOPQGxWAyzs7MZdbn4Zjth0MNapwc9zJSqhywn01sN3W7PALwvfsDq2hoWEm8xNBJEh9uDd+82upv91dKTLGFXpAdlU+g2wrTvlqrb57syqAL15qH7ULUe8KIulKn5Trhl6Eqm0sslPDhhWh/HdO+xdhi67WO4tzKm+8OHD9pY6StXruDatWu4fv26FnYLRV1dnRa05UklgUAg41jj+SqzTg9rXaCHtV6sHunQ7fSYFMFpA4y6XGDtdallW4Ye1jo9nOv0sFLsHvJTTj5bCd2uHi+eq8AtQ0ma7z9G4z03evpfIvZmTp8jpdU+6Uk+jnJ3BLGR9tRQE4fQnZrvDCqGlrA6fV+b70iTjC8J4JJ6feiSB+PxIG5KGDeF7s/LqtAbX8JYi4Tq46gY0VaXoY2wHkSFDHH5+j7GEnPovc7hJXsqCd0tI6mnxLwPoeX2Rui+6pqSV8CPQ6iyDy8J9KGiM/XpA7CC5y0dW+rplguo0/ASHufWOj2c6/SwQg9rXcjmweElhJBdISedrYTu5ZV3qG97oD2t5H9qmtH/MkvSFX1Qwfb2RRz6r2M4fOkuLhx3Dt0yn/v6KfxO1T5X/O6sC2H9MX7h+xdT9f+6iIrr1p7uz8/cQHlZapnDt4YzHwmoayN0q+331eKwhH95M3DpovrJ0L13moWnoRN/u9OFipY+NBo93TJmu0bVa7pQ2eVBjT10q6A9fE8t09iDusZutLTtn6eXEEL2HwzdhJBdsdXQvfT2HR489aKyvg2vxvXeyyxajQbR6/LCJ0+F+zCBm+mx2ln0YQ2r2iDtn5J5qIpJ+jATCeFp7PNQxav3a1jXX/6UGLoJIYWCoZsQsiu2GrpFchOl8JNaCeDmyWMbAfjoNXRpTyXZrbKEbhXalxNLWDCzYjx+kNpPYugmhBQKhm5CyK7YTujerlZXVPh9y/BL7Z0YugkhhSIduuW75c0NBnLXptNJaW5uTvveeXtdBo/LycxeF+hhrdODHmZK1UOWy1Xopqi9loRuOQ5k/7WHbh7n1jo96GGGHtb6TjzSoTsej2c0CnKXt1xI7XXZADlh2euyEbKB9rpAD2udHvQwU6oecpJi6KZKRRK6o9GodrGUfdt8keVxbq3Tgx5m6GGt78SDw0sIIbuCoZsqJXF4CSGkUDB0E0J2BUM3VUpi6CaEFAqGbkLIrmDopkpJDN2EkELB0E0I2RUM3VQpiaGbEFIo0qFbBoqbGwzkYuo0sFwGkAv2uswry9jrAj2sdXrQw0ypejB0U6UkCd1yk5NT6OZxbq3Tgx5m6GGt78QjHbqnpqYyGoVIJOLYEyAnLKe7NmUD5M5we12gh7VOD3qYKVUPWU6mGbqpUpCEbjkOZN+2h24e59Y6Pehhhh7W+k48OLyEELIr5CQlJx+GbipfSoaDePFqRZ8yaeUtlt/rr7OIw0sIIYWCoZsQsisYuql8KxkYgnskM3THnrrQ+FKfyCKGbkJIoWDoJoTsipyF7kQEvR3NqHYFEVuVwhrCIwGEk1orFkKD8M+mXmN+At7JJe3n2OwSxnvacbNjWF8updV4EO1NzWjuj2DhQ6q2EJpAbDaA5loPxlMlqhBajiEQTOgTScz4I9Cm3kQQMP7hqjLuj6lWJXN9PooXT/vx0BvFOEM3IaSIYegmhOyKnITuZACXTl5D88gcYiP3ceL4XfhVUB5vOoMLPpkhhuavv8Sh6qA2+1iDXvdV4dDJu3BPS/C+gcNXBqHl7qgLx840w2vUL3khW+q9fhxlt7sxpursoy+gIj5Utqf+l8As3HUeDMvLlx5UPjXeWQXRWOdT/3klo74cQktdDzzBWcQCA6ip6WToJoQULQzdhJBdkYvQveq5gWOuJX0KCHecw4V+9SLUjjIJ2gkPTl9vR/X5doxpAbwKXum9VqG7rEOLZUrDuHDShbB6NdZwERVDS1hICDG0n7+MroSE7nNojqbmpgqoHYbuZH83qvqMHnI1RxdDNyGkeEmH7tHR0YxGIRQKOT4qZWZmxvG75eUxKdnu2qSHtU4PepgpVY9chG4tZGs92rr6q3Ds/px6EUTFyXb4VSgv96ypMH0DzSMenLjkTfVoZwnd0qN97EotLt0yuA8fQ3fxaIeh2z6Ge6tjumV/dwrdPM6tdXrQwww9rPWdeLCnmxCyK3IRujFyF0duB/SJNRWOz+Cmnsn81Zdx7OtrWk+1zHfi5DktgGvKEroX3Jdxuuddqox3GB+awIJ6xdBdJJLQ3TKSGuLzPoSW2xuh+6prSl4BPw6hyj68JNCHis4JrRlYwfOWDvZ0E0KKFoZuQsiuyEnoVsHYV3sOR85W4cLZMyirDWyMuVbB+vMz3VpoxgcVrP+QGiqiKUvoxocYur5V67lUi/K/nEJZQ1DrGWfoLhbNwtPQib/d6UJFSx8ajZ5uGbNdo+o1Xajs8qDGHrpV0B6+p5Zp7EFdYzda2ngjJSGkeGHoJoTsityEbl2ra1jVnzSyJ9rr9VHFofdrWNdf/pQYugkhhYKhmxCyK3Iauilqj8XQTQgpFAzdhJBdwdBNlZIYugkhhSIduuWuTXODgdyZ6XRSisVimJ2dzajLxVe+v95eF+hhrdODHmZK1UOWk2mGbqoUJKF7cnLSMXTzOLfW6UEPM/Sw1nfikQ7dTo9JEZw2wKjLBdZel1q2ZehhrdPDuU4PK8XuIT/l5MPQTZWCJHTLBdQpdPM4t9bp4VynhxV6WOtCNg8OLyGE7Ao56TB0U6UiDi8hhBQKhm5CyK5g6KZKSQzdhJBCwdBNCNkVDN1UKYmhmxBSKBi6CSG7gqGbKiUxdBNCCkU6dMt3y5sbDOSuTaeT0tzcnPa98/a6DB6Xk5m9LtDDWqcHPcyUqocsx9BNlYokdMtxIPuvPXTzOLfW6UEPM/Sw1nfikQ7d8Xg8o1GQu7zlQmqvywbICctel42QDbTXBXpY6/Sgh5lS9ZCTFEM3VSqS0B2NRrWLpezb5ossj3NrnR70MEMPa30nHhxeQgjZFQzdVE60nsTy0po+sXfi8BJCSKFg6CaE7AqGbionivhQ2R7UJ/ZODN2EkELB0E0I2RU5C92JCHo7mlHdE0EsEsDYvKolYxiLzGG8px31Q0uqsIbYSDeqa13onZTplBZCAYST+sT8BHwR6TFdQzgUw0J8GM217WgfmcNqag4HWed1m9aN1Tn4e1y42dQNf1zviVUeY7Nz8Onbu/xhSdvGmx3DiKVNnLd1f0j9boEQZtL//hXMDEeQkJfvZxH0+tD52I9gVP97vYlgPD6PwNN+PB+Xgizvx8MHPrwYf6vNkgrdo4gN68vGP6TqSuvRCTxXyz58NoHY+1QtEYxgLh6C+4EfU6mSoxi6CSGFgqGbELIrchK6kwFcOnkD7aE5FVTbcfrocVzwqXrUhRNHr+GmTwXxhArG9y+i7NYgxiWgXz+DE+5UmPVeP4fmqPYS8FWhrCOmXsTQfP44jjnMnymZ9xRONwURiwdR/fUZVE9LfQ5d317W/Bfig7hw9AZ6Jdwrj0NnmtE7rQJ5/UUc/stduNXrsQc3cKQ61Vsr23qsdljzdl85hXLPO62+XzTX60Zdv/5OZ3wAFa2jSGIez1vcaBuOIhEdRWNNDwZkF3npwdW6PniCqr6o/to9blTeG8XMXBTPW7tQN6DWI6H7lhsPA7MqkA+gsqYPwXW1bNyPmsZ+DE8mEBtU69F8gOH2TlR2+jGu6pvthQzdhJBCkQ7dMlDc3GAgF1OngeUygFyw12VeWcZeF+hhrdODHmZK1SMXoXvBfdkSiMcaTqVDd9n14VQRE6g+eRc+owP0wzAunLyPsHqZNXSfrEJven4Vmr92qaqTUvN69alwx7mUv6HVd1hQ4bn5rO6T9lCK3McRYxvTHmpbz6htTSyp5RTRbpw478FCaq79oTk/qhr9Wu/21GMXGl9u9EzjvdrHVKB+0uiCO6KmVeiufDqbakMED1UAD0igFhljuS3DSz7gRZu+rK71pQQSk0OoqvNp/8Phdmt7NknolpucnEI3j3NrnR70MEMPa30nHunQPTU1ldEoRCIRx54AOWE53bUpGyB3htvrAj2sdXrQw0ypeshyMr2XodsectPTltAtIdulheyUYqg/WQuZbbPQbQTpzOXNyha6Y2g/ewpll2pxs8OLm06h23Eb1c//vojyW7W4ZNAS2F+hG0kMtLjhUeH6Yb0RomfhaexEZWsfOp+OoNMxdAfRqAdni2xjutOhOqKC9h0X6jr74fb27yh0y3Eg+7Y9dPM4t9bpQQ8z9LDWd+LB4SWEkF0hJyk5+ezp8JJgM45cG0wNE/ggYfpLh9C9hK7zF9EuY71Fqu3YxVTvsff6KdzU81pMhqCkQ/cZVIdSdYTaceTKYJZx3VlCt/inl3kH98Wthm7Z1mtwr+jllQh8of02rlvF7oEeVLWrQN01kSpIcG4bRaoTewXPW5xCd0IFcxXW3+iTUyN4OKjasoTu2FMVuAf1seGLI6jZQejm8BJCSCFg6CaE7IqchG6sYdx1A2XHzuDIX+6iud6pp1sp4sHpr86h/Jaa96tr6NJD1+rQXRz+43EcVm0V16+ZQvdFlF+/nDF/pjbp6T5zXOvpLj97DSdObjV0K5m39eg5VI/owXE/aT2IxptdeKjdHCmahach1dNd19iNqjqn0K005UdNrfRe96CythvPZZ6f7OlWAb/FjUqGbkJIicDQTQjZFbkK3QvzGzcajjWcwaUhfcJBq8mtBNiNIG2eP+a+hsPHTplo1oaobKbVlXebPPlkc21tW/eX1pdW9N7uzfQByZWt/m3WdvwMb4ZuQkihYOgmhOyKnITulQlUnz2DE9dqcenSORw640LYdF/ezmTtvaYOphi6CSGFgqGbELIrctPTndLqyhIWttz7SVE/LYZuQkihSIfu0dHRjEYhFAo5PiplZmbG8bvl5TEp2e7apIe1Tg96mClVj1yGboraa0nolv3dKXTzOLfW6UEPM/Sw1nfiwZ5uQsiuMIdueU1RxSwJ3fL4L/Z0E0LyDUM3IWRXmEO3vPOXUENRxaoPHz5genqaoZsQkncYugkhu8II3RJiJicnsbbGMdhUcUreEL579077uFh6uxm4CSH5hKGbELIrJLhIj6GE7nA4jFevXmnBW3oUKapYJIE7mUxq4zblW+TkZkqGbkJIPmHoJoTsGgkvEmIkzIyPj2NkZES78UR6wGXIibQRUgiM/U96t+XmJvk0JhaLafsmQzchJJ+kQ7e8+zc3GMidmU4nJjlpzc7OZtTlRCbfX2+vC/Sw1ulBDzOl7CHLSk3mHRwc1IK39HgHAgH4/X6Nnp4eDA0NpacNvF4vvv/++4z6ixcv4PF4MurC48ePHev0sNYFevi1/VD2x4mJCW1ff/36teN4bh7n1jo96GGGHtb6TjzSodvpMSmC0wYYdXk8mL0utWzL0MNap4dznR5WSsFDXgvSoyg3VEqPt9ysJiFHArggQcd4bUbqcoKy16WWbZlgMOhYp4e1LtBjXNsPZX+U/VKGQUnvt9M+z+PcWqeHc50eVuhhrQvZPDi8hBCyJ8jJR3oPJXhLr4AML5GQYyAf7xOSL8z7nrwRlP1R9k2jhzvbxZIQQnIFQzchZM8wwowEG/tYbgnihOQL874nyD7JwE0IKSQM3YSQPcUINWaMwENIvrHvi077LCGE5AOGbkJIzrEHH0LyhdP+SAghhSAdumUMnLnBQO7adDpxyRcLyMfH9roMHpcbVex1gR7WOj3oYYYe1jo96GGGHtY6Pehhhh7WerF6pEO33GRibjCQsXFOd23KBshHd/a6bIRsoL0u0MNapwc9zNDDWqcHPczQw1qnBz3M0MNaL1YPDi8hhBBCCCEkxzB0E0IIIYQQkmMYugkhhBBCCMkxDN2EEEIIIYTkmHToloHi5gYD+W55p4HlMoBcsNdlXlnGXhfoYa3Tgx5m6GGt04MeZuhhrdODHmboYa0Xq0c6dE9NTWU0CpFIxPERKvKYFKe7NmUD5Gt37XWBHtY6Pehhhh7WOj3oYYYe1jo96GGGHtZ6sXpweAkhhBBCCCE5hqGbEEIIIYSQHMPQTQghhBBCSE5Zwf8LqjT7XY9LFXwAAAAASUVORK5CYII=;" vertex="1" parent="1">
          <mxGeometry x="-745" y="352" width="674.08" height="420" as="geometry" />
        </mxCell>
        <mxCell id="uFFMmfKACldLguCO9u6B-7" value="NoSQL Database" style="text;html=1;align=center;verticalAlign=middle;resizable=0;points=[];autosize=1;strokeColor=none;fillColor=none;" vertex="1" parent="1">
          <mxGeometry x="557" y="19" width="112" height="26" as="geometry" />
        </mxCell>
      </root>
    </mxGraphModel>
  </diagram>
</mxfile>
